  0
SECTION
  2
HEADER
  9
$ACADVER
  1
AC1032
  9
$ACADMAINTVER
 90
      155
  9
$DWGCODEPAGE
  3
ANSI_1252
  9
$REQUIREDVERSIONS
160
                 0
  9
$INSBASE
 10
0.0
 20
0.0
 30
0.0
  9
$EXTMIN
 10
1.000000000000000E+20
 20
1.000000000000000E+20
 30
1.000000000000000E+20
  9
$EXTMAX
 10
-1.000000000000000E+20
 20
-1.000000000000000E+20
 30
-1.000000000000000E+20
  9
$LIMMIN
 10
0.0
 20
0.0
  9
$LIMMAX
 10
12.0
 20
9.0
  9
$ORTHOMODE
 70
     0
  9
$REGENMODE
 70
     1
  9
$FILLMODE
 70
     1
  9
$QTEXTMODE
 70
     0
  9
$MIRRTEXT
 70
     0
  9
$LTSCALE
 40
1.0
  9
$ATTMODE
 70
     1
  9
$TEXTSIZE
 40
0.2
  9
$TRACEWID
 40
0.05
  9
$TEXTSTYLE
  7
Standard
  9
$CLAYER
  8
0
  9
$CELTYPE
  6
ByLayer
  9
$CECOLOR
 62
   256
  9
$CELTSCALE
 40
1.0
  9
$DISPSILH
 70
     0
  9
$DIMSCALE
 40
1.0
  9
$DIMASZ
 40
0.18
  9
$DIMEXO
 40
0.0625
  9
$DIMDLI
 40
0.38
  9
$DIMRND
 40
0.0
  9
$DIMDLE
 40
0.0
  9
$DIMEXE
 40
0.18
  9
$DIMTP
 40
0.0
  9
$DIMTM
 40
0.0
  9
$DIMTXT
 40
0.18
  9
$DIMCEN
 40
0.09
  9
$DIMTSZ
 40
0.0
  9
$DIMTOL
 70
     0
  9
$DIMLIM
 70
     0
  9
$DIMTIH
 70
     1
  9
$DIMTOH
 70
     1
  9
$DIMSE1
 70
     0
  9
$DIMSE2
 70
     0
  9
$DIMTAD
 70
     0
  9
$DIMZIN
 70
     0
  9
$DIMBLK
  1

  9
$DIMASO
 70
     1
  9
$DIMSHO
 70
     1
  9
$DIMPOST
  1

  9
$DIMAPOST
  1

  9
$DIMALT
 70
     0
  9
$DIMALTD
 70
     2
  9
$DIMALTF
 40
25.4
  9
$DIMLFAC
 40
1.0
  9
$DIMTOFL
 70
     0
  9
$DIMTVP
 40
0.0
  9
$DIMTIX
 70
     0
  9
$DIMSOXD
 70
     0
  9
$DIMSAH
 70
     0
  9
$DIMBLK1
  1

  9
$DIMBLK2
  1

  9
$DIMSTYLE
  2
Standard
  9
$DIMCLRD
 70
     0
  9
$DIMCLRE
 70
     0
  9
$DIMCLRT
 70
     0
  9
$DIMTFAC
 40
1.0
  9
$DIMGAP
 40
0.09
  9
$DIMJUST
 70
     0
  9
$DIMSD1
 70
     0
  9
$DIMSD2
 70
     0
  9
$DIMTOLJ
 70
     1
  9
$DIMTZIN
 70
     0
  9
$DIMALTZ
 70
     0
  9
$DIMALTTZ
 70
     0
  9
$DIMUPT
 70
     0
  9
$DIMDEC
 70
     4
  9
$DIMTDEC
 70
     4
  9
$DIMALTU
 70
     2
  9
$DIMALTTD
 70
     2
  9
$DIMTXSTY
  7
Standard
  9
$DIMAUNIT
 70
     0
  9
$DIMADEC
 70
     0
  9
$DIMALTRND
 40
0.0
  9
$DIMAZIN
 70
     0
  9
$DIMDSEP
 70
    46
  9
$DIMATFIT
 70
     3
  9
$DIMFRAC
 70
     0
  9
$DIMLDRBLK
  1

  9
$DIMLUNIT
 70
     2
  9
$DIMLWD
 70
    -2
  9
$DIMLWE
 70
    -2
  9
$DIMTMOVE
 70
     0
  9
$DIMFXL
 40
1.0
  9
$DIMFXLON
 70
     0
  9
$DIMJOGANG
 40
0.7853981633974483
  9
$DIMTFILL
 70
     0
  9
$DIMTFILLCLR
 70
     0
  9
$DIMARCSYM
 70
     0
  9
$DIMLTYPE
  6

  9
$DIMLTEX1
  6

  9
$DIMLTEX2
  6

  9
$DIMTXTDIRECTION
 70
     0
  9
$LUNITS
 70
     2
  9
$LUPREC
 70
     4
  9
$SKETCHINC
 40
0.1
  9
$FILLETRAD
 40
0.0
  9
$AUNITS
 70
     0
  9
$AUPREC
 70
     0
  9
$MENU
  1
.
  9
$ELEVATION
 40
0.0
  9
$PELEVATION
 40
0.0
  9
$THICKNESS
 40
0.0
  9
$LIMCHECK
 70
     0
  9
$CHAMFERA
 40
0.0
  9
$CHAMFERB
 40
0.0
  9
$CHAMFERC
 40
0.0
  9
$CHAMFERD
 40
0.0
  9
$SKPOLY
 70
     0
  9
$TDCREATE
 40
2459312.984004630
  9
$TDUCREATE
 40
2459312.567337963
  9
$TDUPDATE
 40
2459312.984004630
  9
$TDUUPDATE
 40
2459312.567337963
  9
$TDINDWG
 40
0.0000000000
  9
$TDUSRTIMER
 40
0.0000000000
  9
$USRTIMER
 70
     1
  9
$ANGBASE
 50
0.0
  9
$ANGDIR
 70
     0
  9
$PDMODE
 70
     0
  9
$PDSIZE
 40
0.0
  9
$PLINEWID
 40
0.0
  9
$SPLFRAME
 70
     0
  9
$SPLINETYPE
 70
     6
  9
$SPLINESEGS
 70
     8
  9
$HANDSEED
  5
176
  9
$SURFTAB1
 70
     6
  9
$SURFTAB2
 70
     6
  9
$SURFTYPE
 70
     6
  9
$SURFU
 70
     6
  9
$SURFV
 70
     6
  9
$UCSBASE
  2

  9
$UCSNAME
  2

  9
$UCSORG
 10
0.0
 20
0.0
 30
0.0
  9
$UCSXDIR
 10
1.0
 20
0.0
 30
0.0
  9
$UCSYDIR
 10
0.0
 20
1.0
 30
0.0
  9
$UCSORTHOREF
  2

  9
$UCSORTHOVIEW
 70
     0
  9
$UCSORGTOP
 10
0.0
 20
0.0
 30
0.0
  9
$UCSORGBOTTOM
 10
0.0
 20
0.0
 30
0.0
  9
$UCSORGLEFT
 10
0.0
 20
0.0
 30
0.0
  9
$UCSORGRIGHT
 10
0.0
 20
0.0
 30
0.0
  9
$UCSORGFRONT
 10
0.0
 20
0.0
 30
0.0
  9
$UCSORGBACK
 10
0.0
 20
0.0
 30
0.0
  9
$PUCSBASE
  2

  9
$PUCSNAME
  2

  9
$PUCSORG
 10
0.0
 20
0.0
 30
0.0
  9
$PUCSXDIR
 10
1.0
 20
0.0
 30
0.0
  9
$PUCSYDIR
 10
0.0
 20
1.0
 30
0.0
  9
$PUCSORTHOREF
  2

  9
$PUCSORTHOVIEW
 70
     0
  9
$PUCSORGTOP
 10
0.0
 20
0.0
 30
0.0
  9
$PUCSORGBOTTOM
 10
0.0
 20
0.0
 30
0.0
  9
$PUCSORGLEFT
 10
0.0
 20
0.0
 30
0.0
  9
$PUCSORGRIGHT
 10
0.0
 20
0.0
 30
0.0
  9
$PUCSORGFRONT
 10
0.0
 20
0.0
 30
0.0
  9
$PUCSORGBACK
 10
0.0
 20
0.0
 30
0.0
  9
$USERI1
 70
     0
  9
$USERI2
 70
     0
  9
$USERI3
 70
     0
  9
$USERI4
 70
     0
  9
$USERI5
 70
     0
  9
$USERR1
 40
0.0
  9
$USERR2
 40
0.0
  9
$USERR3
 40
0.0
  9
$USERR4
 40
0.0
  9
$USERR5
 40
0.0
  9
$WORLDVIEW
 70
     1
  9
$SHADEDGE
 70
     3
  9
$SHADEDIF
 70
    70
  9
$TILEMODE
 70
     1
  9
$MAXACTVP
 70
    64
  9
$PINSBASE
 10
0.0
 20
0.0
 30
0.0
  9
$PLIMCHECK
 70
     0
  9
$PEXTMIN
 10
1.000000000000000E+20
 20
1.000000000000000E+20
 30
1.000000000000000E+20
  9
$PEXTMAX
 10
-1.000000000000000E+20
 20
-1.000000000000000E+20
 30
-1.000000000000000E+20
  9
$PLIMMIN
 10
0.0
 20
0.0
  9
$PLIMMAX
 10
12.0
 20
9.0
  9
$UNITMODE
 70
     0
  9
$VISRETAIN
 70
     1
  9
$PLINEGEN
 70
     0
  9
$PSLTSCALE
 70
     1
  9
$TREEDEPTH
 70
  3020
  9
$CMLSTYLE
  2
Standard
  9
$CMLJUST
 70
     0
  9
$CMLSCALE
 40
1.0
  9
$PROXYGRAPHICS
 70
     1
  9
$MEASUREMENT
 70
     0
  9
$CELWEIGHT
370
    -1
  9
$ENDCAPS
280
     0
  9
$JOINSTYLE
280
     0
  9
$LWDISPLAY
290
     1
  9
$INSUNITS
 70
     4
  9
$HYPERLINKBASE
  1

  9
$STYLESHEET
  1

  9
$XEDIT
290
     1
  9
$CEPSNTYPE
380
     0
  9
$PSTYLEMODE
290
     1
  9
$FINGERPRINTGUID
  2
{B63F66F9-B72C-F246-A424-A93EA3566943}
  9
$VERSIONGUID
  2
{C078A5D9-9B6C-BD45-8FFC-5A48558FD754}
  9
$EXTNAMES
290
     1
  9
$PSVPSCALE
 40
0.0
  9
$OLESTARTUP
290
     0
  9
$SORTENTS
280
   127
  9
$INDEXCTL
280
     0
  9
$HIDETEXT
280
     1
  9
$XCLIPFRAME
280
     2
  9
$HALOGAP
280
     0
  9
$OBSCOLOR
 70
   257
  9
$OBSLTYPE
280
     0
  9
$INTERSECTIONDISPLAY
280
     0
  9
$INTERSECTIONCOLOR
 70
   257
  9
$DIMASSOC
280
     2
  9
$PROJECTNAME
  1

  9
$CAMERADISPLAY
290
     0
  9
$LENSLENGTH
 40
50.0
  9
$CAMERAHEIGHT
 40
0.0
  9
$STEPSPERSEC
 40
2.0
  9
$STEPSIZE
 40
6.0
  9
$3DDWFPREC
 40
2.0
  9
$PSOLWIDTH
 40
0.25
  9
$PSOLHEIGHT
 40
4.0
  9
$LOFTANG1
 40
1.570796326794896
  9
$LOFTANG2
 40
1.570796326794896
  9
$LOFTMAG1
 40
0.0
  9
$LOFTMAG2
 40
0.0
  9
$LOFTPARAM
 70
     7
  9
$LOFTNORMALS
280
     1
  9
$LATITUDE
 40
37.795
  9
$LONGITUDE
 40
-122.394
  9
$NORTHDIRECTION
 40
0.0
  9
$TIMEZONE
 70
 -8000
  9
$LIGHTGLYPHDISPLAY
280
     1
  9
$TILEMODELIGHTSYNCH
280
     1
  9
$CMATERIAL
347
11
  9
$SOLIDHIST
280
     0
  9
$SHOWHIST
280
     1
  9
$DWFFRAME
280
     2
  9
$DGNFRAME
280
     0
  9
$REALWORLDSCALE
290
     1
  9
$INTERFERECOLOR
 62
     1
  9
$INTERFEREOBJVS
345
33
  9
$INTERFEREVPVS
346
30
  9
$CSHADOW
280
     0
  9
$SHADOWPLANELOCATION
 40
0.0
  0
ENDSEC
  0
SECTION
  2
CLASSES
  0
CLASS
  1
ACDBDICTIONARYWDFLT
  2
AcDbDictionaryWithDefault
  3
ObjectDBX Classes
 90
        0
 91
        1
280
     0
281
     0
  0
CLASS
  1
MATERIAL
  2
AcDbMaterial
  3
ObjectDBX Classes
 90
     1153
 91
        3
280
     0
281
     0
  0
CLASS
  1
VISUALSTYLE
  2
AcDbVisualStyle
  3
ObjectDBX Classes
 90
     4095
 91
       24
280
     0
281
     0
  0
CLASS
  1
SCALE
  2
AcDbScale
  3
ObjectDBX Classes
 90
     1153
 91
       17
280
     0
281
     0
  0
CLASS
  1
TABLESTYLE
  2
AcDbTableStyle
  3
ObjectDBX Classes
 90
     4095
 91
        1
280
     0
281
     0
  0
CLASS
  1
MLEADERSTYLE
  2
AcDbMLeaderStyle
  3
ACDB_MLEADERSTYLE_CLASS
 90
     4095
 91
        1
280
     0
281
     0
  0
CLASS
  1
ACDBSECTIONVIEWSTYLE
  2
AcDbSectionViewStyle
  3
ObjectDBX Classes
 90
     1025
 91
        1
280
     0
281
     0
  0
CLASS
  1
ACDBDETAILVIEWSTYLE
  2
AcDbDetailViewStyle
  3
ObjectDBX Classes
 90
     1025
 91
        1
280
     0
281
     0
  0
CLASS
  1
DICTIONARYVAR
  2
AcDbDictionaryVar
  3
ObjectDBX Classes
 90
        0
 91
        5
280
     0
281
     0
  0
CLASS
  1
CELLSTYLEMAP
  2
AcDbCellStyleMap
  3
ObjectDBX Classes
 90
     1152
 91
        1
280
     0
281
     0
  0
ENDSEC
  0
SECTION
  2
TABLES
  0
TABLE
  2
VPORT
  5
8
330
0
100
AcDbSymbolTable
 70
     1
  0
VPORT
  5
57
330
8
100
AcDbSymbolTableRecord
100
AcDbViewportTableRecord
  2
*Active
 70
     0
 10
0.0
 20
0.0
 11
1.0
 21
1.0
 12
0.0
 22
0.0
 13
0.0
 23
0.0
 14
1.0
 24
1.0
 15
0.0
 25
0.0
 16
0.0
 26
0.0
 36
1.0
 17
-0.0000000000003126
 27
0.0
 37
0.0
 40
214.1999999464498
 41
1.414285714285718
 42
50.0
 43
0.0
 44
0.0
 50
0.0
 51
0.0
 71
     0
 72
   100
 73
     1
 74
     0
 75
     1
 76
     0
 77
     0
 78
     0
281
     0
 65
     1
110
0.0
120
0.0
130
0.0
111
1.0
121
0.0
131
0.0
112
0.0
122
1.0
132
0.0
 79
     0
146
0.0
 60
     3
 61
     5
292
     1
282
     1
141
0.0
142
0.0
 63
   250
421
  3355443
  0
ENDTAB
  0
TABLE
  2
LTYPE
  5
5
330
0
100
AcDbSymbolTable
 70
     1
  0
LTYPE
  5
5B
330
5
100
AcDbSymbolTableRecord
100
AcDbLinetypeTableRecord
  2
ByBlock
 70
     0
  3

 72
    65
 73
     0
 40
0.0
  0
LTYPE
  5
5C
330
5
100
AcDbSymbolTableRecord
100
AcDbLinetypeTableRecord
  2
ByLayer
 70
     0
  3

 72
    65
 73
     0
 40
0.0
  0
LTYPE
  5
5D
330
5
100
AcDbSymbolTableRecord
100
AcDbLinetypeTableRecord
  2
Continuous
 70
     0
  3
Solid line
 72
    65
 73
     0
 40
0.0
  0
ENDTAB
  0
TABLE
  2
LAYER
  5
2
330
0
100
AcDbSymbolTable
 70
     4
  0
LAYER
  5
54
330
2
100
AcDbSymbolTableRecord
100
AcDbLayerTableRecord
  2
0
 70
     0
 62
     7
  6
Continuous
370
    -3
390
F
347
21
348
0
  0
LAYER
  5
78
330
2
100
AcDbSymbolTableRecord
100
AcDbLayerTableRecord
  2
彫刻パス
 70
     0
 62
     7
  6
Continuous
370
     0
390
F
347
21
348
0
  0
LAYER
  5
7B
330
2
100
AcDbSymbolTableRecord
100
AcDbLayerTableRecord
  2
カット2(R0G0B255)
 70
     4
 62
     7
  6
Continuous
370
     0
390
F
347
21
348
0
  0
LAYER
  5
7C
330
2
100
AcDbSymbolTableRecord
100
AcDbLayerTableRecord
  2
カット1(R255G0B0)
 70
     4
 62
     7
  6
Continuous
370
     0
390
F
347
21
348
0
  0
ENDTAB
  0
TABLE
  2
STYLE
  5
3
330
0
100
AcDbSymbolTable
 70
     2
  0
STYLE
  5
55
330
3
100
AcDbSymbolTableRecord
100
AcDbTextStyleTableRecord
  2
Standard
 70
     0
 40
0.0
 41
1.0
 50
0.0
 71
     0
 42
0.2
  3
txt
  4

  0
STYLE
  5
5A
330
3
100
AcDbSymbolTableRecord
100
AcDbTextStyleTableRecord
  2
Annotative
 70
     0
 40
0.0
 41
1.0
 50
0.0
 71
     0
 42
0.2
  3
txt
  4

1001
AcadAnnotative
1000
AnnotativeData
1002
{
1070
     1
1070
     1
1002
}
  0
ENDTAB
  0
TABLE
  2
VIEW
  5
6
330
0
100
AcDbSymbolTable
 70
     0
  0
ENDTAB
  0
TABLE
  2
UCS
  5
7
330
0
100
AcDbSymbolTable
 70
     0
  0
ENDTAB
  0
TABLE
  2
APPID
  5
9
330
0
100
AcDbSymbolTable
 70
     2
  0
APPID
  5
56
330
9
100
AcDbSymbolTableRecord
100
AcDbRegAppTableRecord
  2
ACAD
 70
     0
  0
APPID
  5
5E
330
9
100
AcDbSymbolTableRecord
100
AcDbRegAppTableRecord
  2
AcadAnnotative
 70
     0
  0
ENDTAB
  0
TABLE
  2
DIMSTYLE
  5
A
330
0
100
AcDbSymbolTable
 70
     2
100
AcDbDimStyleTable
 71
     0
  0
DIMSTYLE
105
58
330
A
100
AcDbSymbolTableRecord
100
AcDbDimStyleTableRecord
  2
Standard
 70
     0
340
55
  0
DIMSTYLE
105
59
330
A
100
AcDbSymbolTableRecord
100
AcDbDimStyleTableRecord
  2
Annotative
 70
     0
340
55
1001
AcadAnnotative
1000
AnnotativeData
1002
{
1070
     1
1070
     1
1002
}
  0
ENDTAB
  0
TABLE
  2
BLOCK_RECORD
  5
1
330
0
100
AcDbSymbolTable
 70
     9
  0
BLOCK_RECORD
  5
70
330
1
100
AcDbSymbolTableRecord
100
AcDbBlockTableRecord
  2
*Model_Space
340
73
 70
     0
280
     1
281
     0
  0
BLOCK_RECORD
  5
6C
330
1
100
AcDbSymbolTableRecord
100
AcDbBlockTableRecord
  2
*Paper_Space
340
6F
 70
     0
280
     1
281
     0
  0
BLOCK_RECORD
  5
74
330
1
100
AcDbSymbolTableRecord
100
AcDbBlockTableRecord
  2
*Paper_Space0
340
77
 70
     0
280
     1
281
     0
  0
BLOCK_RECORD
  5
7D
330
1
100
AcDbSymbolTableRecord
100
AcDbBlockTableRecord
  2
Block_0
340
0
102
{BLKREFS
331
7E
102
}
 70
     0
280
     1
281
     0
  0
BLOCK_RECORD
  5
81
330
1
100
AcDbSymbolTableRecord
100
AcDbBlockTableRecord
  2
Block_1
340
0
102
{BLKREFS
331
82
102
}
 70
     0
280
     1
281
     0
  0
BLOCK_RECORD
  5
AE
330
1
100
AcDbSymbolTableRecord
100
AcDbBlockTableRecord
  2
Block_2
340
0
102
{BLKREFS
331
AF
102
}
 70
     0
280
     1
281
     0
  0
BLOCK_RECORD
  5
B3
330
1
100
AcDbSymbolTableRecord
100
AcDbBlockTableRecord
  2
Block_3
340
0
102
{BLKREFS
331
B4
102
}
 70
     0
280
     1
281
     0
  0
BLOCK_RECORD
  5
F5
330
1
100
AcDbSymbolTableRecord
100
AcDbBlockTableRecord
  2
Block_4
340
0
102
{BLKREFS
331
F6
102
}
 70
     0
280
     1
281
     0
  0
BLOCK_RECORD
  5
F9
330
1
100
AcDbSymbolTableRecord
100
AcDbBlockTableRecord
  2
Block_5
340
0
102
{BLKREFS
331
FA
102
}
 70
     0
280
     1
281
     0
  0
BLOCK_RECORD
  5
126
330
1
100
AcDbSymbolTableRecord
100
AcDbBlockTableRecord
  2
Block_6
340
0
102
{BLKREFS
331
127
102
}
 70
     0
280
     1
281
     0
  0
BLOCK_RECORD
  5
12B
330
1
100
AcDbSymbolTableRecord
100
AcDbBlockTableRecord
  2
Block_7
340
0
102
{BLKREFS
331
12C
102
}
 70
     0
280
     1
281
     0
  0
ENDTAB
  0
ENDSEC
  0
SECTION
  2
BLOCKS
  0
BLOCK
  5
71
330
70
100
AcDbEntity
  8
0
100
AcDbBlockBegin
  2
*Model_Space
 70
     0
 10
0.0
 20
0.0
 30
0.0
  3
*Model_Space
  1

  0
ENDBLK
  5
72
330
70
100
AcDbEntity
  8
0
100
AcDbBlockEnd
  0
BLOCK
  5
6D
330
6C
100
AcDbEntity
 67
     1
  8
0
100
AcDbBlockBegin
  2
*Paper_Space
 70
     0
 10
0.0
 20
0.0
 30
0.0
  3
*Paper_Space
  1

  0
ENDBLK
  5
6E
330
6C
100
AcDbEntity
 67
     1
  8
0
100
AcDbBlockEnd
  0
BLOCK
  5
75
330
74
100
AcDbEntity
 67
     1
  8
0
100
AcDbBlockBegin
  2
*Paper_Space0
 70
     0
 10
0.0
 20
0.0
 30
0.0
  3
*Paper_Space0
  1

  0
ENDBLK
  5
76
330
74
100
AcDbEntity
 67
     1
  8
0
100
AcDbBlockEnd
  0
BLOCK
  5
7F
330
7D
100
AcDbEntity
  8
0
100
AcDbBlockBegin
  2
Block_0
 70
     0
 10
0.0
 20
0.0
 30
0.0
  3
Block_0
  1

  0
INSERT
  5
82
330
7D
100
AcDbEntity
  8
カット1(R255G0B0)
100
AcDbBlockReference
  2
Block_1
 10
0.0
 20
0.0
 30
0.0
  0
CIRCLE
  5
A9
330
7D
100
AcDbEntity
  8
カット1(R255G0B0)
 62
     1
420
 16711680
370
     0
100
AcDbCircle
 10
-123.6381013636487
 20
53.73142666370089
 30
0.0
 40
1.099997507440438
  0
CIRCLE
  5
AA
330
7D
100
AcDbEntity
  8
カット1(R255G0B0)
 62
     1
420
 16711680
370
     0
100
AcDbCircle
 10
-123.6381013636487
 20
72.48143017826554
 30
0.0
 40
1.099997507440598
  0
CIRCLE
  5
AB
330
7D
100
AcDbEntity
  8
カット1(R255G0B0)
 62
     1
420
 16711680
370
     0
100
AcDbCircle
 10
-47.63807243358745
 20
76.23123045950118
 30
0.0
 40
1.099997507440198
  0
CIRCLE
  5
AC
330
7D
100
AcDbEntity
  8
カット1(R255G0B0)
 62
     1
420
 16711680
370
     0
100
AcDbCircle
 10
-80.38803610677682
 20
36.48128174606728
 30
0.0
 40
1.099997507440318
  0
CIRCLE
  5
AD
330
7D
100
AcDbEntity
  8
カット1(R255G0B0)
 62
     1
420
 16711680
370
     0
100
AcDbCircle
 10
-33.88805398125597
 20
28.73124338404151
 30
0.0
 40
1.099997507440438
  0
ENDBLK
  5
80
330
7D
100
AcDbEntity
  8
0
100
AcDbBlockEnd
  0
BLOCK
  5
83
330
81
100
AcDbEntity
  8
0
100
AcDbBlockBegin
  2
Block_1
 70
     0
 10
0.0
 20
0.0
 30
0.0
  3
Block_1
  1

  0
SPLINE
  5
85
330
81
100
AcDbEntity
  8
カット1(R255G0B0)
 62
     5
420
      255
370
     0
100
AcDbSpline
210
0.0
220
0.0
230
1.0
 70
     8
 71
     3
 72
     8
 73
     4
 74
     0
 42
0.0000000001
 43
0.0000000001
 40
0.0
 40
0.0
 40
0.0
 40
0.0
 40
1.0
 40
1.0
 40
1.0
 40
1.0
 10
-8.615336908239697
 20
30.38068528815974
 30
0.0
 10
-8.462599715326287
 20
30.64581737007686
 30
0.0
 10
-8.384157449042449
 20
30.94722379117103
 30
0.0
 10
-8.388245257505507
 20
31.25317442652752
 30
0.0
  0
SPLINE
  5
86
330
81
100
AcDbEntity
  8
カット1(R255G0B0)
 62
     5
420
      255
370
     0
100
AcDbSpline
210
0.0
220
0.0
230
1.0
 70
     8
 71
     3
 72
    11
 73
     7
 74
     0
 42
0.0000000001
 43
0.0000000001
 40
0.0
 40
0.0
 40
0.0
 40
0.0
 40
1.0
 40
1.0
 40
1.0
 40
2.0
 40
2.0
 40
2.0
 40
2.0
 10
-23.76896194318055
 20
7.067318311424136
 30
0.0
 10
-23.13386335162622
 20
6.639249359166362
 30
0.0
 10
-22.27201045275455
 20
6.807087630916606
 30
0.0
 10
-21.84394150049678
 20
7.442176300606377
 30
0.0
 10
-21.84290962651581
 20
7.443714189711983
 30
0.0
 10
-21.84187775253485
 20
7.445252078818873
 30
0.0
 10
-21.84084587855388
 20
7.446789967924479
 30
0.0
  0
SPLINE
  5
87
330
81
100
AcDbEntity
  8
カット1(R255G0B0)
 62
     5
420
      255
370
     0
100
AcDbSpline
210
0.0
220
0.0
230
1.0
 70
     8
 71
     3
 72
     8
 73
     4
 74
     0
 42
0.0000000001
 43
0.0000000001
 40
0.0
 40
0.0
 40
0.0
 40
0.0
 40
1.0
 40
1.0
 40
1.0
 40
1.0
 10
-38.06304587384106
 20
15.32840218438801
 30
0.0
 10
-38.2764751161933
 20
15.39284469887304
 30
0.0
 10
-38.49570864968782
 20
15.43623301539899
 30
0.0
 10
-38.71760124305637
 20
15.45794205646009
 30
0.0
  0
SPLINE
  5
88
330
81
100
AcDbEntity
  8
カット1(R255G0B0)
 62
     5
420
      255
370
     0
100
AcDbSpline
210
0.0
220
0.0
230
1.0
 70
    24
 71
     3
 72
     8
 73
     4
 74
     0
 42
0.0000000001
 43
0.0000000001
 40
0.0
 40
0.0
 40
0.0
 40
0.0
 40
1.0
 40
1.0
 40
1.0
 40
1.0
 10
-21.84312790755025
 20
7.448059966670284
 30
0.0
 10
-21.84312790755025
 20
7.448059966670284
 30
0.0
 10
-8.614820971249216
 20
30.37915732091869
 30
0.0
 10
-8.614820971249216
 20
30.37915732091869
 30
0.0
  0
SPLINE
  5
89
330
81
100
AcDbEntity
  8
カット1(R255G0B0)
 62
     5
420
      255
370
     0
100
AcDbSpline
210
0.0
220
0.0
230
1.0
 70
    24
 71
     3
 72
     8
 73
     4
 74
     0
 42
0.0000000001
 43
0.0000000001
 40
0.0
 40
0.0
 40
0.0
 40
0.0
 40
1.0
 40
1.0
 40
1.0
 40
1.0
 10
-38.06355188896699
 20
15.32967218313382
 30
0.0
 10
-38.06355188896699
 20
15.32967218313382
 30
0.0
 10
-23.77098600368167
 20
7.069600340420504
 30
0.0
 10
-23.77098600368167
 20
7.069600340420504
 30
0.0
  0
SPLINE
  5
8A
330
81
100
AcDbEntity
  8
カット1(R255G0B0)
 62
     5
420
      255
370
     0
100
AcDbSpline
210
0.0
220
0.0
230
1.0
 70
    24
 71
     3
 72
     8
 73
     4
 74
     0
 42
0.0000000001
 43
0.0000000001
 40
0.0
 40
0.0
 40
0.0
 40
0.0
 40
1.0
 40
1.0
 40
1.0
 40
1.0
 10
-75.38881502816507
 20
20.22932734444808
 30
0.0
 10
-75.38881502816507
 20
20.22932734444808
 30
0.0
 10
-38.71887124180218
 20
15.45921205520589
 30
0.0
 10
-38.71887124180218
 20
15.45921205520589
 30
0.0
  0
SPLINE
  5
8B
330
81
100
AcDbEntity
  8
カット1(R255G0B0)
 62
     5
420
      255
370
     0
100
AcDbSpline
210
0.0
220
0.0
230
1.0
 70
     8
 71
     3
 72
     8
 73
     4
 74
     0
 42
0.0000000001
 43
0.0000000001
 40
0.0
 40
0.0
 40
0.0
 40
0.0
 40
1.0
 40
1.0
 40
1.0
 40
1.0
 10
-75.74161671100352
 20
20.37461321659574
 30
0.0
 10
-75.64782531925249
 20
20.28090119976599
 30
0.0
 10
-75.52064685109808
 20
20.22827562673672
 30
0.0
 10
-75.38805104454391
 20
20.22831531419752
 30
0.0
  0
SPLINE
  5
8C
330
81
100
AcDbEntity
  8
カット1(R255G0B0)
 62
     5
420
      255
370
     0
100
AcDbSpline
210
0.0
220
0.0
230
1.0
 70
    24
 71
     3
 72
     8
 73
     4
 74
     0
 42
0.0000000001
 43
0.0000000001
 40
0.0
 40
0.0
 40
0.0
 40
0.0
 40
1.0
 40
1.0
 40
1.0
 40
1.0
 10
-86.28540426716879
 20
34.83431292120134
 30
0.0
 10
-86.28540426716879
 20
34.83431292120134
 30
0.0
 10
-75.74187467949876
 20
20.37664719896142
 30
0.0
 10
-75.74187467949876
 20
20.37664719896142
 30
0.0
  0
SPLINE
  5
8D
330
81
100
AcDbEntity
  8
カット1(R255G0B0)
 62
     5
420
      255
370
     0
100
AcDbSpline
210
0.0
220
0.0
230
1.0
 70
    24
 71
     3
 72
     8
 73
     4
 74
     0
 42
0.0000000001
 43
0.0000000001
 40
0.0
 40
0.0
 40
0.0
 40
0.0
 40
1.0
 40
1.0
 40
1.0
 40
1.0
 10
-29.14054070094366
 20
92.97993549912055
 30
0.0
 10
-29.14054070094366
 20
92.97993549912055
 30
0.0
 10
-29.14054070094366
 20
91.73025673324877
 30
0.0
 10
-29.14054070094366
 20
91.73025673324877
 30
0.0
  0
SPLINE
  5
8E
330
81
100
AcDbEntity
  8
カット1(R255G0B0)
 62
     5
420
      255
370
     0
100
AcDbSpline
210
0.0
220
0.0
230
1.0
 70
     8
 71
     3
 72
     8
 73
     4
 74
     0
 42
0.0000000001
 43
0.0000000001
 40
0.0
 40
0.0
 40
0.0
 40
0.0
 40
1.0
 40
1.0
 40
1.0
 40
1.0
 10
-29.13825867194729
 20
92.97815948524945
 30
0.0
 10
-29.13819914075608
 20
93.25429491567515
 30
0.0
 10
-29.36197688851293
 20
93.4782066086119
 30
0.0
 10
-29.63812224080383
 20
93.47828102260187
 30
0.0
  0
SPLINE
  5
8F
330
81
100
AcDbEntity
  8
カット1(R255G0B0)
 62
     5
420
      255
370
     0
100
AcDbSpline
210
0.0
220
0.0
230
1.0
 70
     8
 71
     3
 72
    11
 73
     7
 74
     0
 42
0.0000000001
 43
0.0000000001
 40
0.0
 40
0.0
 40
0.0
 40
0.0
 40
1.0
 40
1.0
 40
1.0
 40
2.0
 40
2.0
 40
2.0
 40
2.0
 10
-29.13825867194729
 20
91.72822275088245
 30
0.0
 10
-29.1383182031385
 20
91.45208235952384
 30
0.0
 10
-28.91452061165124
 20
91.22817066658708
 30
0.0
 10
-28.63837525936034
 20
91.22810121353067
 30
0.0
 10
-28.63829588443873
 20
91.22810121353067
 30
0.0
 10
-28.63821650951712
 20
91.22810121353067
 30
0.0
 10
-28.63813713459551
 20
91.22810121353067
 30
0.0
  0
SPLINE
  5
90
330
81
100
AcDbEntity
  8
カット1(R255G0B0)
 62
     5
420
      255
370
     0
100
AcDbSpline
210
0.0
220
0.0
230
1.0
 70
    24
 71
     3
 72
     8
 73
     4
 74
     0
 42
0.0000000001
 43
0.0000000001
 40
0.0
 40
0.0
 40
0.0
 40
0.0
 40
1.0
 40
1.0
 40
1.0
 40
1.0
 10
-8.889140700343014
 20
91.22987722740175
 30
0.0
 10
-8.889140700343014
 20
91.22987722740175
 30
0.0
 10
-28.64016119509663
 20
91.22987722740175
 30
0.0
 10
-28.64016119509663
 20
91.22987722740175
 30
0.0
  0
SPLINE
  5
91
330
81
100
AcDbEntity
  8
カット1(R255G0B0)
 62
     5
420
      255
370
     0
100
AcDbSpline
210
0.0
220
0.0
230
1.0
 70
     8
 71
     3
 72
     8
 73
     4
 74
     0
 42
0.0000000001
 43
0.0000000001
 40
0.0
 40
0.0
 40
0.0
 40
0.0
 40
1.0
 40
1.0
 40
1.0
 40
1.0
 10
-86.28464028354764
 20
34.83177292370973
 30
0.0
 10
-86.37839198783819
 20
34.92558415919148
 30
0.0
 10
-86.50558037785684
 20
34.97829902900694
 30
0.0
 10
-86.63820595000725
 20
34.97832879460318
 30
0.0
  0
SPLINE
  5
92
330
81
100
AcDbEntity
  8
カット1(R255G0B0)
 62
     5
420
      255
370
     0
100
AcDbSpline
210
0.0
220
0.0
230
1.0
 70
     8
 71
     3
 72
    11
 73
     7
 74
     0
 42
0.0000000001
 43
0.0000000001
 40
0.0
 40
0.0
 40
0.0
 40
0.0
 40
1.0
 40
1.0
 40
1.0
 40
2.0
 40
2.0
 40
2.0
 40
2.0
 10
-142.1381730937847
 20
35.47820228532429
 30
0.0
 10
-142.1381036407292
 20
35.20205693303275
 30
0.0
 10
-141.9141919477915
 20
34.97825934154613
 30
0.0
 10
-141.6380515564329
 20
34.97832879460318
 30
0.0
 10
-141.6380465955007
 20
34.97832879460318
 30
0.0
 10
-141.6380465955007
 20
34.97832879460318
 30
0.0
 10
-141.6380465955007
 20
34.97832879460318
 30
0.0
  0
SPLINE
  5
93
330
81
100
AcDbEntity
  8
カット1(R255G0B0)
 62
     5
420
      255
370
     0
100
AcDbSpline
210
0.0
220
0.0
230
1.0
 70
     8
 71
     3
 72
    11
 73
     7
 74
     0
 42
0.0000000001
 43
0.0000000001
 40
0.0
 40
0.0
 40
0.0
 40
0.0
 40
1.0
 40
1.0
 40
1.0
 40
2.0
 40
2.0
 40
2.0
 40
2.0
 10
-141.6380465955007
 20
91.22810121353067
 30
0.0
 10
-141.9141869868592
 20
91.22817066658708
 30
0.0
 10
-142.1381036407292
 20
91.00437307509983
 30
0.0
 10
-142.1381730937847
 20
90.72823268374184
 30
0.0
 10
-142.1381730937847
 20
90.72822772280892
 30
0.0
 10
-142.1381730937847
 20
90.72822772280892
 30
0.0
 10
-142.1381730937847
 20
90.72822772280892
 30
0.0
  0
SPLINE
  5
94
330
81
100
AcDbEntity
  8
カット1(R255G0B0)
 62
     5
420
      255
370
     0
100
AcDbSpline
210
0.0
220
0.0
230
1.0
 70
     8
 71
     3
 72
    11
 73
     7
 74
     0
 42
0.0000000001
 43
0.0000000001
 40
0.0
 40
0.0
 40
0.0
 40
0.0
 40
1.0
 40
1.0
 40
1.0
 40
2.0
 40
2.0
 40
2.0
 40
2.0
 10
-104.6381561427915
 20
91.22810121353067
 30
0.0
 10
-104.3620107905006
 20
91.22803176047424
 30
0.0
 10
-104.1381040584955
 20
91.45183431289444
 30
0.0
 10
-104.1380346054397
 20
91.72797470425242
 30
0.0
 10
-104.1380346054397
 20
91.72805904010694
 30
0.0
 10
-104.1380346054397
 20
91.72813841502856
 30
0.0
 10
-104.1380346054397
 20
91.72822275088245
 30
0.0
  0
SPLINE
  5
95
330
81
100
AcDbEntity
  8
カット1(R255G0B0)
 62
     5
420
      255
370
     0
100
AcDbSpline
210
0.0
220
0.0
230
1.0
 70
     8
 71
     3
 72
     8
 73
     4
 74
     0
 42
0.0000000001
 43
0.0000000001
 40
0.0
 40
0.0
 40
0.0
 40
0.0
 40
1.0
 40
1.0
 40
1.0
 40
1.0
 10
-103.6381611147173
 20
95.97814953040295
 30
0.0
 10
-103.9142072483562
 20
95.9780800773459
 30
0.0
 10
-104.1379651523823
 20
95.75432217331943
 30
0.0
 10
-104.1380346054397
 20
95.47827603968057
 30
0.0
  0
SPLINE
  5
96
330
81
100
AcDbEntity
  8
カット1(R255G0B0)
 62
     5
420
      255
370
     0
100
AcDbSpline
210
0.0
220
0.0
230
1.0
 70
     8
 71
     3
 72
    11
 73
     7
 74
     0
 42
0.0000000001
 43
0.0000000001
 40
0.0
 40
0.0
 40
0.0
 40
0.0
 40
1.0
 40
1.0
 40
1.0
 40
2.0
 40
2.0
 40
2.0
 40
2.0
 10
-85.63821092193308
 20
95.97814953040295
 30
0.0
 10
-85.36206556964218
 20
95.9780800773459
 30
0.0
 10
-85.13815883763836
 20
96.20188262976608
 30
0.0
 10
-85.13808938458131
 20
96.47802302112404
 30
0.0
 10
-85.13808938458131
 20
96.47810735697859
 30
0.0
 10
-85.13808938458131
 20
96.47819169283312
 30
0.0
 10
-85.13808938458131
 20
96.47827602868702
 30
0.0
  0
SPLINE
  5
97
330
81
100
AcDbEntity
  8
カット1(R255G0B0)
 62
     5
420
      255
370
     0
100
AcDbSpline
210
0.0
220
0.0
230
1.0
 70
     8
 71
     3
 72
    11
 73
     7
 74
     0
 42
0.0000000001
 43
0.0000000001
 40
0.0
 40
0.0
 40
0.0
 40
0.0
 40
1.0
 40
1.0
 40
1.0
 40
2.0
 40
2.0
 40
2.0
 40
2.0
 10
-84.6382158938602
 20
98.22833430040644
 30
0.0
 10
-84.91436124615109
 20
98.22826484734939
 30
0.0
 10
-85.13815883763836
 20
98.00435315441262
 30
0.0
 10
-85.13808938458131
 20
97.728212763054
 30
0.0
 10
-85.13808938458131
 20
97.72820780212173
 30
0.0
 10
-85.13808938458131
 20
97.72820780212173
 30
0.0
 10
-85.13808938458131
 20
97.72820780212173
 30
0.0
  0
SPLINE
  5
98
330
81
100
AcDbEntity
  8
カット1(R255G0B0)
 62
     5
420
      255
370
     0
100
AcDbSpline
210
0.0
220
0.0
230
1.0
 70
     8
 71
     3
 72
    11
 73
     7
 74
     0
 42
0.0000000001
 43
0.0000000001
 40
0.0
 40
0.0
 40
0.0
 40
0.0
 40
1.0
 40
1.0
 40
1.0
 40
2.0
 40
2.0
 40
2.0
 40
2.0
 10
-67.13813919179703
 20
97.72820780212173
 30
0.0
 10
-67.13806973874127
 20
98.0043481934797
 30
0.0
 10
-67.36186733022852
 20
98.22826484734939
 30
0.0
 10
-67.63801268251942
 20
98.22833430040644
 30
0.0
 10
-67.63801268251942
 20
98.22833430040644
 30
0.0
 10
-67.63801268251942
 20
98.22833430040644
 30
0.0
 10
-67.63801268251942
 20
98.22833430040644
 30
0.0
  0
SPLINE
  5
99
330
81
100
AcDbEntity
  8
カット1(R255G0B0)
 62
     5
420
      255
370
     0
100
AcDbSpline
210
0.0
220
0.0
230
1.0
 70
     8
 71
     3
 72
    11
 73
     7
 74
     0
 42
0.0000000001
 43
0.0000000001
 40
0.0
 40
0.0
 40
0.0
 40
0.0
 40
1.0
 40
1.0
 40
1.0
 40
2.0
 40
2.0
 40
2.0
 40
2.0
 10
-67.13813919179703
 20
96.47827602868702
 30
0.0
 10
-67.13820864485409
 20
96.20213563732839
 30
0.0
 10
-66.91441105336682
 20
95.97821898345872
 30
0.0
 10
-66.63826570107592
 20
95.97814953040295
 30
0.0
 10
-66.63818632615464
 20
95.97814953040295
 30
0.0
 10
-66.63809702936686
 20
95.97814953040295
 30
0.0
 10
-66.63801765444524
 20
95.97814953040295
 30
0.0
  0
SPLINE
  5
9A
330
81
100
AcDbEntity
  8
カット1(R255G0B0)
 62
     5
420
      255
370
     0
100
AcDbSpline
210
0.0
220
0.0
230
1.0
 70
     8
 71
     3
 72
     8
 73
     4
 74
     0
 42
0.0000000001
 43
0.0000000001
 40
0.0
 40
0.0
 40
0.0
 40
0.0
 40
1.0
 40
1.0
 40
1.0
 40
1.0
 10
-48.13819397093988
 20
95.47827603968057
 30
0.0
 10
-48.13826342399565
 20
95.75432217331943
 30
0.0
 10
-48.36202132802178
 20
95.9780800773459
 30
0.0
 10
-48.63806746166098
 20
95.97814953040295
 30
0.0
  0
SPLINE
  5
9B
330
81
100
AcDbEntity
  8
カット1(R255G0B0)
 62
     5
420
      255
370
     0
100
AcDbSpline
210
0.0
220
0.0
230
1.0
 70
     8
 71
     3
 72
     8
 73
     4
 74
     0
 42
0.0000000001
 43
0.0000000001
 40
0.0
 40
0.0
 40
0.0
 40
0.0
 40
1.0
 40
1.0
 40
1.0
 40
1.0
 10
-48.13819397093988
 20
93.97815451332297
 30
0.0
 10
-48.13812451788282
 20
93.702014121965
 30
0.0
 10
-47.91421778587898
 20
93.47821156954482
 30
0.0
 10
-47.63807243358809
 20
93.47828102260187
 30
0.0
  0
SPLINE
  5
9C
330
81
100
AcDbEntity
  8
カット1(R255G0B0)
 62
     5
420
      255
370
     0
100
AcDbSpline
210
0.0
220
0.0
230
1.0
 70
     8
 71
     3
 72
     8
 73
     4
 74
     0
 42
0.0000000001
 43
0.0000000001
 40
0.0
 40
0.0
 40
0.0
 40
0.0
 40
1.0
 40
1.0
 40
1.0
 40
1.0
 10
-8.388245257505507
 20
90.72822772280892
 30
0.0
 10
-8.388304788696716
 20
91.00427385644781
 30
0.0
 10
-8.612082536453574
 20
91.22803672140717
 30
0.0
 10
-8.888128670092452
 20
91.22810121353067
 30
0.0
  0
SPLINE
  5
9D
330
81
100
AcDbEntity
  8
カット1(R255G0B0)
 62
     5
420
      255
370
     0
100
AcDbSpline
210
0.0
220
0.0
230
1.0
 70
    24
 71
     3
 72
     8
 73
     4
 74
     0
 42
0.0000000001
 43
0.0000000001
 40
0.0
 40
0.0
 40
0.0
 40
0.0
 40
1.0
 40
1.0
 40
1.0
 40
1.0
 10
-8.388761194495991
 20
90.72949772155473
 30
0.0
 10
-8.388761194495991
 20
90.72949772155473
 30
0.0
 10
-8.388761194495991
 20
31.25545645552389
 30
0.0
 10
-8.388761194495991
 20
31.25545645552389
 30
0.0
  0
SPLINE
  5
9E
330
81
100
AcDbEntity
  8
カット1(R255G0B0)
 62
     5
420
      255
370
     0
100
AcDbSpline
210
0.0
220
0.0
230
1.0
 70
    24
 71
     3
 72
     8
 73
     4
 74
     0
 42
0.0000000001
 43
0.0000000001
 40
0.0
 40
0.0
 40
0.0
 40
0.0
 40
1.0
 40
1.0
 40
1.0
 40
1.0
 10
-86.63846391850249
 20
34.97909277822306
 30
0.0
 10
-86.63846391850249
 20
34.97909277822306
 30
0.0
 10
-141.6395696018094
 20
34.97909277822306
 30
0.0
 10
-141.6395696018094
 20
34.97909277822306
 30
0.0
  0
SPLINE
  5
9F
330
81
100
AcDbEntity
  8
カット1(R255G0B0)
 62
     5
420
      255
370
     0
100
AcDbSpline
210
0.0
220
0.0
230
1.0
 70
    24
 71
     3
 72
     8
 73
     4
 74
     0
 42
0.0000000001
 43
0.0000000001
 40
0.0
 40
0.0
 40
0.0
 40
0.0
 40
1.0
 40
1.0
 40
1.0
 40
1.0
 10
-142.1399491076564
 20
90.72949772155473
 30
0.0
 10
-142.1399491076564
 20
90.72949772155473
 30
0.0
 10
-142.1399491076564
 20
35.47947228407009
 30
0.0
 10
-142.1399491076564
 20
35.47947228407009
 30
0.0
  0
SPLINE
  5
A0
330
81
100
AcDbEntity
  8
カット1(R255G0B0)
 62
     5
420
      255
370
     0
100
AcDbSpline
210
0.0
220
0.0
230
1.0
 70
    24
 71
     3
 72
     8
 73
     4
 74
     0
 42
0.0000000001
 43
0.0000000001
 40
0.0
 40
0.0
 40
0.0
 40
0.0
 40
1.0
 40
1.0
 40
1.0
 40
1.0
 10
-104.6394261415379
 20
91.22987722740175
 30
0.0
 10
-104.6394261415379
 20
91.22987722740175
 30
0.0
 10
-141.6395696018094
 20
91.22987722740175
 30
0.0
 10
-141.6395696018094
 20
91.22987722740175
 30
0.0
  0
SPLINE
  5
A1
330
81
100
AcDbEntity
  8
カット1(R255G0B0)
 62
     5
420
      255
370
     0
100
AcDbSpline
210
0.0
220
0.0
230
1.0
 70
    24
 71
     3
 72
     8
 73
     4
 74
     0
 42
0.0000000001
 43
0.0000000001
 40
0.0
 40
0.0
 40
0.0
 40
0.0
 40
1.0
 40
1.0
 40
1.0
 40
1.0
 10
-104.1390466356909
 20
95.47929303086403
 30
0.0
 10
-104.1390466356909
 20
95.47929303086403
 30
0.0
 10
-104.1390466356909
 20
91.73025673324877
 30
0.0
 10
-104.1390466356909
 20
91.73025673324877
 30
0.0
  0
SPLINE
  5
A2
330
81
100
AcDbEntity
  8
カット1(R255G0B0)
 62
     5
420
      255
370
     0
100
AcDbSpline
210
0.0
220
0.0
230
1.0
 70
    24
 71
     3
 72
     8
 73
     4
 74
     0
 42
0.0000000001
 43
0.0000000001
 40
0.0
 40
0.0
 40
0.0
 40
0.0
 40
1.0
 40
1.0
 40
1.0
 40
1.0
 10
-85.64024490430005
 20
95.97967253671107
 30
0.0
 10
-85.64024490430005
 20
95.97967253671107
 30
0.0
 10
-103.6386671298436
 20
95.97967253671107
 30
0.0
 10
-103.6386671298436
 20
95.97967253671107
 30
0.0
  0
SPLINE
  5
A3
330
81
100
AcDbEntity
  8
カット1(R255G0B0)
 62
     5
420
      255
370
     0
100
AcDbSpline
210
0.0
220
0.0
230
1.0
 70
    24
 71
     3
 72
     8
 73
     4
 74
     0
 42
0.0000000001
 43
0.0000000001
 40
0.0
 40
0.0
 40
0.0
 40
0.0
 40
1.0
 40
1.0
 40
1.0
 40
1.0
 10
-85.13986539845303
 20
97.72973080842985
 30
0.0
 10
-85.13986539845303
 20
97.72973080842985
 30
0.0
 10
-85.13986539845303
 20
96.48005204255809
 30
0.0
 10
-85.13986539845303
 20
96.48005204255809
 30
0.0
  0
SPLINE
  5
A4
330
81
100
AcDbEntity
  8
カット1(R255G0B0)
 62
     5
420
      255
370
     0
100
AcDbSpline
210
0.0
220
0.0
230
1.0
 70
    24
 71
     3
 72
     8
 73
     4
 74
     0
 42
0.0000000001
 43
0.0000000001
 40
0.0
 40
0.0
 40
0.0
 40
0.0
 40
1.0
 40
1.0
 40
1.0
 40
1.0
 10
-67.63928268126521
 20
98.23011031427689
 30
0.0
 10
-67.63928268126521
 20
98.23011031427689
 30
0.0
 10
-84.63948589260601
 20
98.23011031427689
 30
0.0
 10
-84.63948589260601
 20
98.23011031427689
 30
0.0
  0
SPLINE
  5
A5
330
81
100
AcDbEntity
  8
カット1(R255G0B0)
 62
     5
420
      255
370
     0
100
AcDbSpline
210
0.0
220
0.0
230
1.0
 70
    24
 71
     3
 72
     8
 73
     4
 74
     0
 42
0.0000000001
 43
0.0000000001
 40
0.0
 40
0.0
 40
0.0
 40
0.0
 40
1.0
 40
1.0
 40
1.0
 40
1.0
 10
-67.13890317541819
 20
96.48005204255809
 30
0.0
 10
-67.13890317541819
 20
96.48005204255809
 30
0.0
 10
-67.13890317541819
 20
97.72973080842985
 30
0.0
 10
-67.13890317541819
 20
97.72973080842985
 30
0.0
  0
SPLINE
  5
A6
330
81
100
AcDbEntity
  8
カット1(R255G0B0)
 62
     5
420
      255
370
     0
100
AcDbSpline
210
0.0
220
0.0
230
1.0
 70
    24
 71
     3
 72
     8
 73
     4
 74
     0
 42
0.0000000001
 43
0.0000000001
 40
0.0
 40
0.0
 40
0.0
 40
0.0
 40
1.0
 40
1.0
 40
1.0
 40
1.0
 10
-48.64010144402794
 20
95.97967253671107
 30
0.0
 10
-48.64010144402794
 20
95.97967253671107
 30
0.0
 10
-66.63852366957117
 20
95.97967253671107
 30
0.0
 10
-66.63852366957117
 20
95.97967253671107
 30
0.0
  0
SPLINE
  5
A7
330
81
100
AcDbEntity
  8
カット1(R255G0B0)
 62
     5
420
      255
370
     0
100
AcDbSpline
210
0.0
220
0.0
230
1.0
 70
    24
 71
     3
 72
     8
 73
     4
 74
     0
 42
0.0000000001
 43
0.0000000001
 40
0.0
 40
0.0
 40
0.0
 40
0.0
 40
1.0
 40
1.0
 40
1.0
 40
1.0
 10
-48.13972193818124
 20
93.98069451081459
 30
0.0
 10
-48.13972193818124
 20
93.98069451081459
 30
0.0
 10
-48.13972193818124
 20
95.47929303086403
 30
0.0
 10
-48.13972193818124
 20
95.47929303086403
 30
0.0
  0
SPLINE
  5
A8
330
81
100
AcDbEntity
  8
カット1(R255G0B0)
 62
     5
420
      255
370
     0
100
AcDbSpline
210
0.0
220
0.0
230
1.0
 70
    24
 71
     3
 72
     8
 73
     4
 74
     0
 42
0.0000000001
 43
0.0000000001
 40
0.0
 40
0.0
 40
0.0
 40
0.0
 40
1.0
 40
1.0
 40
1.0
 40
1.0
 10
-29.63838020929907
 20
93.48031500496757
 30
0.0
 10
-29.63838020929907
 20
93.48031500496757
 30
0.0
 10
-47.63934243233421
 20
93.48031500496757
 30
0.0
 10
-47.63934243233421
 20
93.48031500496757
 30
0.0
  0
ENDBLK
  5
84
330
81
100
AcDbEntity
  8
0
100
AcDbBlockEnd
  0
BLOCK
  5
B0
330
AE
100
AcDbEntity
  8
0
100
AcDbBlockBegin
  2
Block_2
 70
     0
 10
0.0
 20
0.0
 30
0.0
  3
Block_2
  1

  0
SPLINE
  5
B2
330
AE
100
AcDbEntity
  8
カット1(R255G0B0)
 62
     5
420
      255
370
     0
100
AcDbSpline
210
0.0
220
0.0
230
1.0
 70
     9
 71
     3
 72
    29
 73
    25
 74
     0
 42
0.0000000001
 43
0.0000000001
 40
0.0
 40
0.0
 40
0.0
 40
0.0
 40
1.0
 40
1.0
 40
1.0
 40
2.0
 40
2.0
 40
2.0
 40
3.0
 40
3.0
 40
3.0
 40
4.0
 40
4.0
 40
4.0
 40
5.0
 40
5.0
 40
5.0
 40
6.0
 40
6.0
 40
6.0
 40
7.0
 40
7.0
 40
7.0
 40
8.0
 40
8.0
 40
8.0
 40
8.0
 10
139.545927289035
 20
-53.81596445704397
 30
0.0
 10
139.545927289035
 20
-53.81596445704397
 30
0.0
 10
139.545927289035
 20
4.937553798433245
 30
0.0
 10
139.545927289035
 20
4.937553798433245
 30
0.0
 10
139.545927289035
 20
5.322416339370331
 30
0.0
 10
139.1293339613053
 20
5.562983652479491
 30
0.0
 10
138.7960006352263
 20
5.370608838270198
 30
0.0
 10
138.7960006352263
 20
5.370608838270198
 30
0.0
 10
120.0771513029741
 20
-5.432496884377879
 30
0.0
 10
120.0771513029741
 20
-5.432496884377879
 30
0.0
 10
119.9224094331224
 20
-5.521802201712136
 30
0.0
 10
119.8270779570323
 20
-5.686888872665734
 30
0.0
 10
119.8270779570323
 20
-5.865551924216116
 30
0.0
 10
119.8270779570323
 20
-5.865551924216116
 30
0.0
 10
119.8270779570323
 20
-53.81349016460447
 30
0.0
 10
119.8270779570323
 20
-53.81349016460447
 30
0.0
 10
119.8270779570323
 20
-54.0896067296893
 30
0.0
 10
120.0508953033028
 20
-54.31345366250916
 30
0.0
 10
120.3270118659755
 20
-54.31349016011227
 30
0.0
 10
120.3270118659755
 20
-54.31349016011227
 30
0.0
 10
139.0458611982277
 20
-54.31596445255113
 30
0.0
 10
139.0458611982277
 20
-54.31596445255113
 30
0.0
 10
139.3220293811296
 20
-54.31600095697743
 30
0.0
 10
139.545927289035
 20
-54.09213264235864
 30
0.0
 10
139.545927289035
 20
-53.81596445704397
 30
0.0
  0
INSERT
  5
B4
330
AE
100
AcDbEntity
  8
カット1(R255G0B0)
100
AcDbBlockReference
  2
Block_3
 10
0.0
 20
0.0
 30
0.0
  0
CIRCLE
  5
D9
330
AE
100
AcDbEntity
  8
カット1(R255G0B0)
 62
     1
420
 16711680
370
     0
100
AcDbCircle
 10
122.4753681315509
 20
-6.83150841251073
 30
0.0
 40
1.09999999972491
  0
CIRCLE
  5
DA
330
AE
100
AcDbEntity
  8
カット1(R255G0B0)
 62
     1
420
 16711680
370
     0
100
AcDbCircle
 10
136.9073759103795
 20
1.689419188218137
 30
0.0
 40
1.09999999972507
  0
CIRCLE
  5
DB
330
AE
100
AcDbEntity
  8
カット1(R255G0B0)
 62
     1
420
 16711680
370
     0
100
AcDbCircle
 10
22.01889963890405
 20
-34.00451581617398
 30
0.0
 40
1.099999999725151
  0
CIRCLE
  5
DC
330
AE
100
AcDbEntity
  8
カット1(R255G0B0)
 62
     1
420
 16711680
370
     0
100
AcDbCircle
 10
22.01889963890437
 20
-15.25450980932518
 30
0.0
 40
1.099997507440438
  0
CIRCLE
  5
DD
330
AE
100
AcDbEntity
  8
カット1(R255G0B0)
 62
     1
420
 16711680
370
     0
100
AcDbCircle
 10
98.01892856896463
 20
-37.75431360512531
 30
0.0
 40
1.099997507440438
  0
CIRCLE
  5
DE
330
AE
100
AcDbEntity
  8
カット1(R255G0B0)
 62
     1
420
 16711680
370
     0
100
AcDbCircle
 10
65.26896489577598
 20
1.99563510830971
 30
0.0
 40
1.099997507440438
  0
CIRCLE
  5
DF
330
AE
100
AcDbEntity
  8
カット1(R255G0B0)
 62
     1
420
 16711680
370
     0
100
AcDbCircle
 10
111.7689470212961
 20
9.745673470333885
 30
0.0
 40
1.099997507440598
  0
LWPOLYLINE
  5
E0
330
AE
100
AcDbEntity
  8
カット1(R255G0B0)
 62
     1
420
 16711680
370
     0
100
AcDbPolyline
 90
        4
 70
     1
 43
0.0
 10
19.52769299463077
 20
-36.62983631237774
 10
5.527692998131388
 20
-36.62983631237774
 10
5.527692998131388
 20
-50.62983630887713
 10
19.52769299463077
 20
-50.62983630887713
  0
LWPOLYLINE
  5
E1
330
AE
100
AcDbEntity
  8
カット1(R255G0B0)
 62
     1
420
 16711680
370
     0
100
AcDbPolyline
 90
        4
 70
     1
 43
0.0
 10
19.52769299463077
 20
-17.6298435712381
 10
5.527692998131388
 20
-17.6298435712381
 10
5.527692998131388
 20
-31.62984356773749
 10
19.52769299463077
 20
-31.62984356773749
  0
LWPOLYLINE
  5
E2
330
AE
100
AcDbEntity
  8
カット1(R255G0B0)
 62
     1
420
 16711680
370
     0
100
AcDbPolyline
 90
        4
 70
     1
 43
0.0
 10
19.52769299463077
 20
1.370156424012068
 10
5.527692998131388
 20
1.370156424012068
 10
5.527692998131388
 20
-12.62984357248731
 10
19.52769299463077
 20
-12.62984357248731
  0
LWPOLYLINE
  5
E3
330
AE
100
AcDbEntity
  8
カット1(R255G0B0)
 62
     1
420
 16711680
370
     0
100
AcDbPolyline
 90
        4
 70
     1
 43
0.0
 10
38.52586433499214
 20
-36.63050776444574
 10
24.52586433849211
 20
-36.63050776444574
 10
24.52586433849211
 20
-50.63050776094512
 10
38.52586433499214
 20
-50.63050776094512
  0
LWPOLYLINE
  5
E4
330
AE
100
AcDbEntity
  8
カット1(R255G0B0)
 62
     1
420
 16711680
370
     0
100
AcDbPolyline
 90
        4
 70
     1
 43
0.0
 10
38.5258643349915
 20
-17.63051502330674
 10
24.52586433849211
 20
-17.63051502330674
 10
24.52586433849211
 20
-31.63051501980613
 10
38.5258643349915
 20
-31.63051501980613
  0
LWPOLYLINE
  5
E5
330
AE
100
AcDbEntity
  8
カット1(R255G0B0)
 62
     1
420
 16711680
370
     0
100
AcDbPolyline
 90
        4
 70
     1
 43
0.0
 10
38.5258643349915
 20
1.369484971943431
 10
24.52586433849211
 20
1.369484971943431
 10
24.52586433849211
 20
-12.63051502455595
 10
38.5258643349915
 20
-12.63051502455595
  0
LWPOLYLINE
  5
E6
330
AE
100
AcDbEntity
  8
カット1(R255G0B0)
 62
     1
420
 16711680
370
     0
100
AcDbPolyline
 90
        4
 70
     1
 43
0.0
 10
57.52613329217116
 20
-41.37532225697307
 10
43.52613329567178
 20
-41.37532225697307
 10
43.52613329567178
 20
-55.37532225347245
 10
57.52613329217116
 20
-55.37532225347245
  0
LWPOLYLINE
  5
E7
330
AE
100
AcDbEntity
  8
カット1(R255G0B0)
 62
     1
420
 16711680
370
     0
100
AcDbPolyline
 90
        4
 70
     1
 43
0.0
 10
57.52613329217116
 20
-22.37532951583343
 10
43.52613329567178
 20
-22.37532951583343
 10
43.52613329567178
 20
-36.37532951233346
 10
57.52613329217116
 20
-36.37532951233346
  0
LWPOLYLINE
  5
E8
330
AE
100
AcDbEntity
  8
カット1(R255G0B0)
 62
     1
420
 16711680
370
     0
100
AcDbPolyline
 90
        4
 70
     1
 43
0.0
 10
57.52613329217116
 20
-3.375329520583259
 10
43.52613329567178
 20
-3.375329520583259
 10
43.52613329567178
 20
-17.37532951708264
 10
57.52613329217116
 20
-17.37532951708264
  0
LWPOLYLINE
  5
E9
330
AE
100
AcDbEntity
  8
カット1(R255G0B0)
 62
     1
420
 16711680
370
     0
100
AcDbPolyline
 90
        4
 70
     1
 43
0.0
 10
76.5280697880064
 20
-43.75416620244961
 10
62.52806979150701
 20
-43.75416620244961
 10
62.52806979150701
 20
-57.75416619894899
 10
76.5280697880064
 20
-57.75416619894899
  0
LWPOLYLINE
  5
EA
330
AE
100
AcDbEntity
  8
カット1(R255G0B0)
 62
     1
420
 16711680
370
     0
100
AcDbPolyline
 90
        4
 70
     1
 43
0.0
 10
76.5280697880064
 20
-24.75417346131062
 10
62.52806979150701
 20
-24.75417346131062
 10
62.52806979150701
 20
-38.75417345781
 10
76.5280697880064
 20
-38.75417345781
  0
LWPOLYLINE
  5
EB
330
AE
100
AcDbEntity
  8
カット1(R255G0B0)
 62
     1
420
 16711680
370
     0
100
AcDbPolyline
 90
        4
 70
     1
 43
0.0
 10
76.5280697880064
 20
-5.75417346606044
 10
62.52806979150701
 20
-5.75417346606044
 10
62.52806979150701
 20
-19.75417346255982
 10
76.5280697880064
 20
-19.75417346255982
  0
LWPOLYLINE
  5
EC
330
AE
100
AcDbEntity
  8
カット1(R255G0B0)
 62
     1
420
 16711680
370
     0
100
AcDbPolyline
 90
        4
 70
     1
 43
0.0
 10
95.52929480068234
 20
-41.37959115593323
 10
81.52929480418297
 20
-41.37959115593323
 10
81.52929480418297
 20
-55.37959115243261
 10
95.52929480068234
 20
-55.37959115243261
  0
LWPOLYLINE
  5
ED
330
AE
100
AcDbEntity
  8
カット1(R255G0B0)
 62
     1
420
 16711680
370
     0
100
AcDbPolyline
 90
        4
 70
     1
 43
0.0
 10
95.52929480068234
 20
-22.37959841479488
 10
81.52929480418297
 20
-22.37959841479488
 10
81.52929480418297
 20
-36.37959841129362
 10
95.52929480068234
 20
-36.37959841129362
  0
LWPOLYLINE
  5
EE
330
AE
100
AcDbEntity
  8
カット1(R255G0B0)
 62
     1
420
 16711680
370
     0
100
AcDbPolyline
 90
        4
 70
     1
 43
0.0
 10
95.52929480068234
 20
-3.379598419544063
 10
81.52929480418297
 20
-3.379598419544063
 10
81.52929480418297
 20
-17.37959841604344
 10
95.52929480068234
 20
-17.37959841604409
  0
LWPOLYLINE
  5
EF
330
AE
100
AcDbEntity
  8
カット1(R255G0B0)
 62
     1
420
 16711680
370
     0
100
AcDbPolyline
 90
        4
 70
     1
 43
0.0
 10
114.5310534257268
 20
-38.99474407129411
 10
100.5310534292274
 20
-38.99474407129411
 10
100.5310534292274
 20
-52.99474406779349
 10
114.5310534257268
 20
-52.99474406779349
  0
LWPOLYLINE
  5
F0
330
AE
100
AcDbEntity
  8
カット1(R255G0B0)
 62
     1
420
 16711680
370
     0
100
AcDbPolyline
 90
        4
 70
     1
 43
0.0
 10
114.5310534257268
 20
-19.99475133015575
 10
100.5310534292274
 20
-19.99475133015575
 10
100.5310534292274
 20
-33.99475132665449
 10
114.5310534257268
 20
-33.99475132665449
  0
LWPOLYLINE
  5
F1
330
AE
100
AcDbEntity
  8
カット1(R255G0B0)
 62
     1
420
 16711680
370
     0
100
AcDbPolyline
 90
        4
 70
     1
 43
0.0
 10
114.5310534257268
 20
-0.9947513349055785
 10
100.5310534292274
 20
-0.9947513349055785
 10
100.5310534292274
 20
-14.99475133140496
 10
114.5310534257268
 20
-14.99475133140496
  0
LWPOLYLINE
  5
F2
330
AE
100
AcDbEntity
  8
カット1(R255G0B0)
 62
     1
420
 16711680
370
     0
100
AcDbPolyline
 90
        4
 70
     1
 43
0.0
 10
86.04768730238538
 20
16.2783114378438
 10
72.047687305886
 20
16.2783114378438
 10
72.047687305886
 20
2.278311441344419
 10
86.04768730238538
 20
2.278311441344419
  0
LWPOLYLINE
  5
F3
330
AE
100
AcDbEntity
  8
カット1(R255G0B0)
 62
     1
420
 16711680
370
     0
100
AcDbPolyline
 90
        4
 70
     1
 43
0.0
 10
104.9600340694547
 20
20.56170286073818
 10
91.43707250478865
 20
16.93823623020901
 10
95.06053913531911
 20
3.415274665544201
 10
108.5835006999839
 20
7.03874129607337
  0
LWPOLYLINE
  5
F4
330
AE
100
AcDbEntity
  8
カット1(R255G0B0)
 62
     1
420
 16711680
370
     0
100
AcDbPolyline
 90
        4
 70
     1
 43
0.0
 10
124.8304624472096
 20
25.29081289363565
 10
112.706106797259
 20
18.29081289538531
 10
119.7061067955081
 20
6.166457245435367
 10
131.8304624454587
 20
13.16645724368442
  0
ENDBLK
  5
B1
330
AE
100
AcDbEntity
  8
0
100
AcDbBlockEnd
  0
BLOCK
  5
B5
330
B3
100
AcDbEntity
  8
0
100
AcDbBlockBegin
  2
Block_3
 70
     0
 10
0.0
 20
0.0
 30
0.0
  3
Block_3
  1

  0
SPLINE
  5
B7
330
B3
100
AcDbEntity
  8
カット1(R255G0B0)
 62
     5
420
      255
370
     0
100
AcDbSpline
210
0.0
220
0.0
230
1.0
 70
     8
 71
     3
 72
     8
 73
     4
 74
     0
 42
0.0000000001
 43
0.0000000001
 40
0.0
 40
0.0
 40
0.0
 40
0.0
 40
1.0
 40
1.0
 40
1.0
 40
1.0
 10
116.5162023331132
 20
-3.941067085435628
 30
0.0
 10
116.5239810754312
 20
-3.676728752734636
 30
0.0
 10
116.6542750092586
 20
-3.431043526612649
 30
0.0
 10
116.8687658911867
 20
-3.276351726255166
 30
0.0
  0
SPLINE
  5
B8
330
B3
100
AcDbEntity
  8
カット1(R255G0B0)
 62
     5
420
      255
370
     0
100
AcDbSpline
210
0.0
220
0.0
230
1.0
 70
     8
 71
     3
 72
    11
 73
     7
 74
     0
 42
0.0000000001
 43
0.0000000001
 40
0.0
 40
0.0
 40
0.0
 40
0.0
 40
1.0
 40
1.0
 40
1.0
 40
2.0
 40
2.0
 40
2.0
 40
2.0
 10
136.1689368311797
 20
9.573753552291325
 30
0.0
 10
136.5970057834375
 20
8.938654960736995
 30
0.0
 10
136.4291675116873
 20
8.076792140000767
 30
0.0
 10
135.7940689201329
 20
7.648733109607554
 30
0.0
 10
135.7925211091615
 20
7.647701235626588
 30
0.0
 10
135.7909931419204
 20
7.646669361645622
 30
0.0
 10
135.789445330949
 20
7.645637487664655
 30
0.0
  0
SPLINE
  5
B9
330
B3
100
AcDbEntity
  8
カット1(R255G0B0)
 62
     5
420
      255
370
     0
100
AcDbSpline
210
0.0
220
0.0
230
1.0
 70
    24
 71
     3
 72
     8
 73
     4
 74
     0
 42
0.0000000001
 43
0.0000000001
 40
0.0
 40
0.0
 40
0.0
 40
0.0
 40
1.0
 40
1.0
 40
1.0
 40
1.0
 10
135.7874212704478
 20
7.643097490173046
 30
0.0
 10
135.7874212704478
 20
7.643097490173046
 30
0.0
 10
116.8669799554505
 20
-3.276351726255166
 30
0.0
 10
116.8669799554505
 20
-3.276351726255166
 30
0.0
  0
SPLINE
  5
BA
330
B3
100
AcDbEntity
  8
カット1(R255G0B0)
 62
     5
420
      255
370
     0
100
AcDbSpline
210
0.0
220
0.0
230
1.0
 70
     8
 71
     3
 72
    11
 73
     7
 74
     0
 42
0.0000000001
 43
0.0000000001
 40
0.0
 40
0.0
 40
0.0
 40
0.0
 40
1.0
 40
1.0
 40
1.0
 40
2.0
 40
2.0
 40
2.0
 40
2.0
 10
121.8880390593715
 20
31.40959605066566
 30
0.0
 10
122.5231376509258
 20
31.83766500292343
 30
0.0
 10
123.3849905497975
 20
31.66982673117319
 30
0.0
 10
123.8130595020553
 20
31.0347380614847
 30
0.0
 10
123.8140913760362
 20
31.03320017237781
 30
0.0
 10
123.8151232500172
 20
31.0316622832722
 30
0.0
 10
123.8161551239982
 20
31.03012439416532
 30
0.0
  0
SPLINE
  5
BB
330
B3
100
AcDbEntity
  8
カット1(R255G0B0)
 62
     5
420
      255
370
     0
100
AcDbSpline
210
0.0
220
0.0
230
1.0
 70
     8
 71
     3
 72
     8
 73
     4
 74
     0
 42
0.0000000001
 43
0.0000000001
 40
0.0
 40
0.0
 40
0.0
 40
0.0
 40
1.0
 40
1.0
 40
1.0
 40
1.0
 10
107.593955128711
 20
23.14851217770178
 30
0.0
 10
107.3805258863588
 20
23.08406966321804
 30
0.0
 10
107.1612923528642
 20
23.0406813466908
 30
0.0
 10
106.9393997594957
 20
23.01897230562971
 30
0.0
  0
SPLINE
  5
BC
330
B3
100
AcDbEntity
  8
カット1(R255G0B0)
 62
     5
420
      255
370
     0
100
AcDbSpline
210
0.0
220
0.0
230
1.0
 70
    24
 71
     3
 72
     8
 73
     4
 74
     0
 42
0.0000000001
 43
0.0000000001
 40
0.0
 40
0.0
 40
0.0
 40
0.0
 40
1.0
 40
1.0
 40
1.0
 40
1.0
 10
123.8138730950018
 20
31.02885439541951
 30
0.0
 10
123.8138730950018
 20
31.02885439541951
 30
0.0
 10
136.1684208941893
 20
9.573495583796084
 30
0.0
 10
136.1684208941893
 20
9.573495583796084
 30
0.0
  0
SPLINE
  5
BD
330
B3
100
AcDbEntity
  8
カット1(R255G0B0)
 62
     5
420
      255
370
     0
100
AcDbSpline
210
0.0
220
0.0
230
1.0
 70
    24
 71
     3
 72
     8
 73
     4
 74
     0
 42
0.0000000001
 43
0.0000000001
 40
0.0
 40
0.0
 40
0.0
 40
0.0
 40
1.0
 40
1.0
 40
1.0
 40
1.0
 10
107.5934491135851
 20
23.14724217895598
 30
0.0
 10
107.5934491135851
 20
23.14724217895598
 30
0.0
 10
121.8860149988704
 20
31.40731402166929
 30
0.0
 10
121.8860149988704
 20
31.40731402166929
 30
0.0
  0
SPLINE
  5
BE
330
B3
100
AcDbEntity
  8
カット1(R255G0B0)
 62
     5
420
      255
370
     0
100
AcDbSpline
210
0.0
220
0.0
230
1.0
 70
    24
 71
     3
 72
     8
 73
     4
 74
     0
 42
0.0000000001
 43
0.0000000001
 40
0.0
 40
0.0
 40
0.0
 40
0.0
 40
1.0
 40
1.0
 40
1.0
 40
1.0
 10
70.26818597438763
 20
18.24758701764171
 30
0.0
 10
70.26818597438763
 20
18.24758701764171
 30
0.0
 10
106.9381297607499
 20
23.0177023068839
 30
0.0
 10
106.9381297607499
 20
23.0177023068839
 30
0.0
  0
SPLINE
  5
BF
330
B3
100
AcDbEntity
  8
カット1(R255G0B0)
 62
     5
420
      255
370
     0
100
AcDbSpline
210
0.0
220
0.0
230
1.0
 70
     8
 71
     3
 72
     8
 73
     4
 74
     0
 42
0.0000000001
 43
0.0000000001
 40
0.0
 40
0.0
 40
0.0
 40
0.0
 40
1.0
 40
1.0
 40
1.0
 40
1.0
 10
69.9153842915492
 20
18.10230114549534
 30
0.0
 10
70.00917568330056
 20
18.1960131623238
 30
0.0
 10
70.13635415145464
 20
18.24863873535308
 30
0.0
 10
70.2689499580088
 20
18.24859904789227
 30
0.0
  0
SPLINE
  5
C0
330
B3
100
AcDbEntity
  8
カット1(R255G0B0)
 62
     5
420
      255
370
     0
100
AcDbSpline
210
0.0
220
0.0
230
1.0
 70
    24
 71
     3
 72
     8
 73
     4
 74
     0
 42
0.0000000001
 43
0.0000000001
 40
0.0
 40
0.0
 40
0.0
 40
0.0
 40
1.0
 40
1.0
 40
1.0
 40
1.0
 10
59.37159673538391
 20
3.64260144088846
 30
0.0
 10
59.37159673538391
 20
3.64260144088846
 30
0.0
 10
69.91512632305395
 20
18.10026716312837
 30
0.0
 10
69.91512632305395
 20
18.10026716312837
 30
0.0
  0
SPLINE
  5
C1
330
B3
100
AcDbEntity
  8
カット1(R255G0B0)
 62
     5
420
      255
370
     0
100
AcDbSpline
210
0.0
220
0.0
230
1.0
 70
    24
 71
     3
 72
     8
 73
     4
 74
     0
 42
0.0000000001
 43
0.0000000001
 40
0.0
 40
0.0
 40
0.0
 40
0.0
 40
1.0
 40
1.0
 40
1.0
 40
1.0
 10
116.5164603016084
 20
-54.50302113702946
 30
0.0
 10
116.5164603016084
 20
-54.50302113702946
 30
0.0
 10
116.5139203041168
 20
-3.941831069056792
 30
0.0
 10
116.5139203041168
 20
-3.941831069056792
 30
0.0
  0
SPLINE
  5
C2
330
B3
100
AcDbEntity
  8
カット1(R255G0B0)
 62
     5
420
      255
370
     0
100
AcDbSpline
210
0.0
220
0.0
230
1.0
 70
     8
 71
     3
 72
     8
 73
     4
 74
     0
 42
0.0000000001
 43
0.0000000001
 40
0.0
 40
0.0
 40
0.0
 40
0.0
 40
1.0
 40
1.0
 40
1.0
 40
1.0
 10
116.5187423306048
 20
-54.50124512315837
 30
0.0
 10
116.518801861796
 20
-54.77738055358407
 30
0.0
 10
116.2950241140391
 20
-55.00129224652082
 30
0.0
 10
116.0188787617482
 20
-55.00136666051015
 30
0.0
  0
SPLINE
  5
C3
330
B3
100
AcDbEntity
  8
カット1(R255G0B0)
 62
     5
420
      255
370
     0
100
AcDbSpline
210
0.0
220
0.0
230
1.0
 70
     8
 71
     3
 72
     8
 73
     4
 74
     0
 42
0.0000000001
 43
0.0000000001
 40
0.0
 40
0.0
 40
0.0
 40
0.0
 40
1.0
 40
1.0
 40
1.0
 40
1.0
 10
59.37236071900508
 20
3.645141438380069
 30
0.0
 10
59.27860901471452
 20
3.551330202899595
 30
0.0
 10
59.15142062469588
 20
3.49861533308286
 30
0.0
 10
59.01879505254546
 20
3.498585567488538
 30
0.0
  0
SPLINE
  5
C4
330
B3
100
AcDbEntity
  8
カット1(R255G0B0)
 62
     5
420
      255
370
     0
100
AcDbSpline
210
0.0
220
0.0
230
1.0
 70
     8
 71
     3
 72
    11
 73
     7
 74
     0
 42
0.0000000001
 43
0.0000000001
 40
0.0
 40
0.0
 40
0.0
 40
0.0
 40
1.0
 40
1.0
 40
1.0
 40
2.0
 40
2.0
 40
2.0
 40
2.0
 10
3.518827908767671
 20
2.998712076766154
 30
0.0
 10
3.518897361824082
 20
3.274857429057048
 30
0.0
 10
3.742809054760839
 20
3.498655020544308
 30
0.0
 10
4.018949446119454
 20
3.498585567488538
 30
0.0
 10
4.018954407051734
 20
3.498585567488538
 30
0.0
 10
4.018954407051734
 20
3.498585567488538
 30
0.0
 10
4.018954407051734
 20
3.498585567488538
 30
0.0
  0
SPLINE
  5
C5
330
B3
100
AcDbEntity
  8
カット1(R255G0B0)
 62
     5
420
      255
370
     0
100
AcDbSpline
210
0.0
220
0.0
230
1.0
 70
     8
 71
     3
 72
    11
 73
     7
 74
     0
 42
0.0000000001
 43
0.0000000001
 40
0.0
 40
0.0
 40
0.0
 40
0.0
 40
1.0
 40
1.0
 40
1.0
 40
2.0
 40
2.0
 40
2.0
 40
2.0
 10
4.018954407051734
 20
-52.75118685143959
 30
0.0
 10
3.742814015693761
 20
-52.75125630449601
 30
0.0
 10
3.518897361824082
 20
-52.52745871300874
 30
0.0
 10
3.518827908767671
 20
-52.25131832165077
 30
0.0
 10
3.518827908767671
 20
-52.25131336071784
 30
0.0
 10
3.518827908767671
 20
-52.25131336071784
 30
0.0
 10
3.518827908767671
 20
-52.25131336071784
 30
0.0
  0
SPLINE
  5
C6
330
B3
100
AcDbEntity
  8
カット1(R255G0B0)
 62
     5
420
      255
370
     0
100
AcDbSpline
210
0.0
220
0.0
230
1.0
 70
     8
 71
     3
 72
    11
 73
     7
 74
     0
 42
0.0000000001
 43
0.0000000001
 40
0.0
 40
0.0
 40
0.0
 40
0.0
 40
1.0
 40
1.0
 40
1.0
 40
2.0
 40
2.0
 40
2.0
 40
2.0
 10
41.01884485976119
 20
-52.75118685143959
 30
0.0
 10
41.29499021205209
 20
-52.75111739838318
 30
0.0
 10
41.51889694405721
 20
-52.97491995080336
 30
0.0
 10
41.51896639711298
 20
-53.25106034216133
 30
0.0
 10
41.51896639711298
 20
-53.25114467801586
 30
0.0
 10
41.51896639711298
 20
-53.25122405293748
 30
0.0
 10
41.51896639711298
 20
-53.25130838879201
 30
0.0
  0
SPLINE
  5
C7
330
B3
100
AcDbEntity
  8
カット1(R255G0B0)
 62
     5
420
      255
370
     0
100
AcDbSpline
210
0.0
220
0.0
230
1.0
 70
     8
 71
     3
 72
     8
 73
     4
 74
     0
 42
0.0000000001
 43
0.0000000001
 40
0.0
 40
0.0
 40
0.0
 40
0.0
 40
1.0
 40
1.0
 40
1.0
 40
1.0
 10
42.01883988783536
 20
-57.50123516831187
 30
0.0
 10
41.74279375419648
 20
-57.50116571525481
 30
0.0
 10
41.51903585017003
 20
-57.27740781122836
 30
0.0
 10
41.51896639711298
 20
-57.00136167758948
 30
0.0
  0
SPLINE
  5
C8
330
B3
100
AcDbEntity
  8
カット1(R255G0B0)
 62
     5
420
      255
370
     0
100
AcDbSpline
210
0.0
220
0.0
230
1.0
 70
     8
 71
     3
 72
    11
 73
     7
 74
     0
 42
0.0000000001
 43
0.0000000001
 40
0.0
 40
0.0
 40
0.0
 40
0.0
 40
1.0
 40
1.0
 40
1.0
 40
2.0
 40
2.0
 40
2.0
 40
2.0
 10
60.01879008061963
 20
-57.50123516831187
 30
0.0
 10
60.29493543291053
 20
-57.50116571525481
 30
0.0
 10
60.51884216491436
 20
-57.724968267675
 30
0.0
 10
60.51891161797142
 20
-58.00110865903297
 30
0.0
 10
60.51891161797142
 20
-58.0011929948875
 30
0.0
 10
60.51891161797142
 20
-58.00127733074204
 30
0.0
 10
60.51891161797142
 20
-58.00136166659657
 30
0.0
  0
SPLINE
  5
C9
330
B3
100
AcDbEntity
  8
カット1(R255G0B0)
 62
     5
420
      255
370
     0
100
AcDbSpline
210
0.0
220
0.0
230
1.0
 70
     8
 71
     3
 72
    11
 73
     7
 74
     0
 42
0.0000000001
 43
0.0000000001
 40
0.0
 40
0.0
 40
0.0
 40
0.0
 40
1.0
 40
1.0
 40
1.0
 40
2.0
 40
2.0
 40
2.0
 40
2.0
 10
61.01878510869251
 20
-59.75141993831471
 30
0.0
 10
60.74263975640162
 20
-59.7513504852583
 30
0.0
 10
60.51884216491436
 20
-59.52743879232155
 30
0.0
 10
60.51891161797142
 20
-59.25129840096293
 30
0.0
 10
60.51891161797142
 20
-59.25129344003065
 30
0.0
 10
60.51891161797142
 20
-59.25129344003065
 30
0.0
 10
60.51891161797142
 20
-59.25129344003065
 30
0.0
  0
SPLINE
  5
CA
330
B3
100
AcDbEntity
  8
カット1(R255G0B0)
 62
     5
420
      255
370
     0
100
AcDbSpline
210
0.0
220
0.0
230
1.0
 70
     8
 71
     3
 72
    11
 73
     7
 74
     0
 42
0.0000000001
 43
0.0000000001
 40
0.0
 40
0.0
 40
0.0
 40
0.0
 40
1.0
 40
1.0
 40
1.0
 40
2.0
 40
2.0
 40
2.0
 40
2.0
 10
78.51886181075568
 20
-59.25129344003065
 30
0.0
 10
78.51893126381146
 20
-59.52743383138862
 30
0.0
 10
78.29513367232419
 20
-59.7513504852583
 30
0.0
 10
78.0189883200333
 20
-59.75141993831471
 30
0.0
 10
78.0189883200333
 20
-59.75141993831471
 30
0.0
 10
78.0189883200333
 20
-59.75141993831471
 30
0.0
 10
78.0189883200333
 20
-59.75141993831471
 30
0.0
  0
SPLINE
  5
CB
330
B3
100
AcDbEntity
  8
カット1(R255G0B0)
 62
     5
420
      255
370
     0
100
AcDbSpline
210
0.0
220
0.0
230
1.0
 70
     8
 71
     3
 72
    11
 73
     7
 74
     0
 42
0.0000000001
 43
0.0000000001
 40
0.0
 40
0.0
 40
0.0
 40
0.0
 40
1.0
 40
1.0
 40
1.0
 40
2.0
 40
2.0
 40
2.0
 40
2.0
 10
78.51886181075568
 20
-58.00136166659657
 30
0.0
 10
78.51879235769863
 20
-57.72522127523732
 30
0.0
 10
78.7425899491859
 20
-57.50130462136763
 30
0.0
 10
79.01873530147678
 20
-57.50123516831187
 30
0.0
 10
79.01881467639841
 20
-57.50123516831187
 30
0.0
 10
79.01890397318585
 20
-57.50123516831187
 30
0.0
 10
79.01898334810747
 20
-57.50123516831187
 30
0.0
  0
SPLINE
  5
CC
330
B3
100
AcDbEntity
  8
カット1(R255G0B0)
 62
     5
420
      255
370
     0
100
AcDbSpline
210
0.0
220
0.0
230
1.0
 70
     8
 71
     3
 72
     8
 73
     4
 74
     0
 42
0.0000000001
 43
0.0000000001
 40
0.0
 40
0.0
 40
0.0
 40
0.0
 40
1.0
 40
1.0
 40
1.0
 40
1.0
 10
97.51880703161219
 20
-57.00136167758948
 30
0.0
 10
97.51873757855642
 20
-57.27740781122836
 30
0.0
 10
97.29497967452997
 20
-57.50116571525481
 30
0.0
 10
97.0189335408911
 20
-57.50123516831187
 30
0.0
  0
SPLINE
  5
CD
330
B3
100
AcDbEntity
  8
カット1(R255G0B0)
 62
     5
420
      255
370
     0
100
AcDbSpline
210
0.0
220
0.0
230
1.0
 70
     8
 71
     3
 72
     8
 73
     4
 74
     0
 42
0.0000000001
 43
0.0000000001
 40
0.0
 40
0.0
 40
0.0
 40
0.0
 40
1.0
 40
1.0
 40
1.0
 40
1.0
 10
97.51880703161219
 20
-55.5012401512319
 30
0.0
 10
97.51887648466926
 20
-55.22509975987393
 30
0.0
 10
97.7427832166731
 20
-55.00129720745374
 30
0.0
 10
98.01892856896399
 20
-55.00136666051015
 30
0.0
  0
SPLINE
  5
CE
330
B3
100
AcDbEntity
  8
カット1(R255G0B0)
 62
     5
420
      255
370
     0
100
AcDbSpline
210
0.0
220
0.0
230
1.0
 70
    24
 71
     3
 72
     8
 73
     4
 74
     0
 42
0.0000000001
 43
0.0000000001
 40
0.0
 40
0.0
 40
0.0
 40
0.0
 40
1.0
 40
1.0
 40
1.0
 40
1.0
 10
59.01853708405022
 20
3.497821583866732
 30
0.0
 10
59.01853708405022
 20
3.497821583866732
 30
0.0
 10
4.01743140074361
 20
3.497821583867374
 30
0.0
 10
4.01743140074361
 20
3.497821583867374
 30
0.0
  0
SPLINE
  5
CF
330
B3
100
AcDbEntity
  8
カット1(R255G0B0)
 62
     5
420
      255
370
     0
100
AcDbSpline
210
0.0
220
0.0
230
1.0
 70
    24
 71
     3
 72
     8
 73
     4
 74
     0
 42
0.0000000001
 43
0.0000000001
 40
0.0
 40
0.0
 40
0.0
 40
0.0
 40
1.0
 40
1.0
 40
1.0
 40
1.0
 10
3.517051894896585
 20
-52.25258335946365
 30
0.0
 10
3.517051894896585
 20
-52.25258335946365
 30
0.0
 10
3.517051894896585
 20
2.997442078020349
 30
0.0
 10
3.517051894896585
 20
2.997442078020349
 30
0.0
  0
SPLINE
  5
D0
330
B3
100
AcDbEntity
  8
カット1(R255G0B0)
 62
     5
420
      255
370
     0
100
AcDbSpline
210
0.0
220
0.0
230
1.0
 70
    24
 71
     3
 72
     8
 73
     4
 74
     0
 42
0.0000000001
 43
0.0000000001
 40
0.0
 40
0.0
 40
0.0
 40
0.0
 40
1.0
 40
1.0
 40
1.0
 40
1.0
 10
41.01757486101539
 20
-52.75296286531068
 30
0.0
 10
41.01757486101539
 20
-52.75296286531068
 30
0.0
 10
4.01743140074361
 20
-52.75296286531068
 30
0.0
 10
4.01743140074361
 20
-52.75296286531068
 30
0.0
  0
SPLINE
  5
D1
330
B3
100
AcDbEntity
  8
カット1(R255G0B0)
 62
     5
420
      255
370
     0
100
AcDbSpline
210
0.0
220
0.0
230
1.0
 70
    24
 71
     3
 72
     8
 73
     4
 74
     0
 42
0.0000000001
 43
0.0000000001
 40
0.0
 40
0.0
 40
0.0
 40
0.0
 40
1.0
 40
1.0
 40
1.0
 40
1.0
 10
41.51795436686241
 20
-57.00237866877297
 30
0.0
 10
41.51795436686241
 20
-57.00237866877297
 30
0.0
 10
41.51795436686241
 20
-53.2533423711577
 30
0.0
 10
41.51795436686241
 20
-53.2533423711577
 30
0.0
  0
SPLINE
  5
D2
330
B3
100
AcDbEntity
  8
カット1(R255G0B0)
 62
     5
420
      255
370
     0
100
AcDbSpline
210
0.0
220
0.0
230
1.0
 70
    24
 71
     3
 72
     8
 73
     4
 74
     0
 42
0.0000000001
 43
0.0000000001
 40
0.0
 40
0.0
 40
0.0
 40
0.0
 40
1.0
 40
1.0
 40
1.0
 40
1.0
 10
60.01675609825266
 20
-57.50275817461999
 30
0.0
 10
60.01675609825266
 20
-57.50275817461999
 30
0.0
 10
42.01833387270943
 20
-57.50275817461999
 30
0.0
 10
42.01833387270943
 20
-57.50275817461999
 30
0.0
  0
SPLINE
  5
D3
330
B3
100
AcDbEntity
  8
カット1(R255G0B0)
 62
     5
420
      255
370
     0
100
AcDbSpline
210
0.0
220
0.0
230
1.0
 70
    24
 71
     3
 72
     8
 73
     4
 74
     0
 42
0.0000000001
 43
0.0000000001
 40
0.0
 40
0.0
 40
0.0
 40
0.0
 40
1.0
 40
1.0
 40
1.0
 40
1.0
 10
60.51713560409968
 20
-59.25281644633877
 30
0.0
 10
60.51713560409968
 20
-59.25281644633877
 30
0.0
 10
60.51713560409968
 20
-58.00313768046702
 30
0.0
 10
60.51713560409968
 20
-58.00313768046702
 30
0.0
  0
SPLINE
  5
D4
330
B3
100
AcDbEntity
  8
カット1(R255G0B0)
 62
     5
420
      255
370
     0
100
AcDbSpline
210
0.0
220
0.0
230
1.0
 70
    24
 71
     3
 72
     8
 73
     4
 74
     0
 42
0.0000000001
 43
0.0000000001
 40
0.0
 40
0.0
 40
0.0
 40
0.0
 40
1.0
 40
1.0
 40
1.0
 40
1.0
 10
78.0177183212875
 20
-59.7531959521858
 30
0.0
 10
78.0177183212875
 20
-59.7531959521858
 30
0.0
 10
61.01751510994671
 20
-59.7531959521858
 30
0.0
 10
61.01751510994671
 20
-59.7531959521858
 30
0.0
  0
SPLINE
  5
D5
330
B3
100
AcDbEntity
  8
カット1(R255G0B0)
 62
     5
420
      255
370
     0
100
AcDbSpline
210
0.0
220
0.0
230
1.0
 70
    24
 71
     3
 72
     8
 73
     4
 74
     0
 42
0.0000000001
 43
0.0000000001
 40
0.0
 40
0.0
 40
0.0
 40
0.0
 40
1.0
 40
1.0
 40
1.0
 40
1.0
 10
78.51809782713452
 20
-58.00313768046702
 30
0.0
 10
78.51809782713452
 20
-58.00313768046702
 30
0.0
 10
78.51809782713452
 20
-59.25281644633877
 30
0.0
 10
78.51809782713452
 20
-59.25281644633877
 30
0.0
  0
SPLINE
  5
D6
330
B3
100
AcDbEntity
  8
カット1(R255G0B0)
 62
     5
420
      255
370
     0
100
AcDbSpline
210
0.0
220
0.0
230
1.0
 70
    24
 71
     3
 72
     8
 73
     4
 74
     0
 42
0.0000000001
 43
0.0000000001
 40
0.0
 40
0.0
 40
0.0
 40
0.0
 40
1.0
 40
1.0
 40
1.0
 40
1.0
 10
97.01689955852414
 20
-57.50275817461999
 30
0.0
 10
97.01689955852414
 20
-57.50275817461999
 30
0.0
 10
79.01847733298154
 20
-57.50275817461999
 30
0.0
 10
79.01847733298154
 20
-57.50275817461999
 30
0.0
  0
SPLINE
  5
D7
330
B3
100
AcDbEntity
  8
カット1(R255G0B0)
 62
     5
420
      255
370
     0
100
AcDbSpline
210
0.0
220
0.0
230
1.0
 70
    24
 71
     3
 72
     8
 73
     4
 74
     0
 42
0.0000000001
 43
0.0000000001
 40
0.0
 40
0.0
 40
0.0
 40
0.0
 40
1.0
 40
1.0
 40
1.0
 40
1.0
 10
97.51727906437116
 20
-55.5037801487235
 30
0.0
 10
97.51727906437116
 20
-55.5037801487235
 30
0.0
 10
97.51727906437116
 20
-57.00237866877297
 30
0.0
 10
97.51727906437116
 20
-57.00237866877297
 30
0.0
  0
SPLINE
  5
D8
330
B3
100
AcDbEntity
  8
カット1(R255G0B0)
 62
     5
420
      255
370
     0
100
AcDbSpline
210
0.0
220
0.0
230
1.0
 70
    24
 71
     3
 72
     8
 73
     4
 74
     0
 42
0.0000000001
 43
0.0000000001
 40
0.0
 40
0.0
 40
0.0
 40
0.0
 40
1.0
 40
1.0
 40
1.0
 40
1.0
 10
116.018620793253
 20
-55.00340064287648
 30
0.0
 10
116.018620793253
 20
-55.00340064287648
 30
0.0
 10
98.01765857021818
 20
-55.00340064287648
 30
0.0
 10
98.01765857021818
 20
-55.00340064287648
 30
0.0
  0
ENDBLK
  5
B6
330
B3
100
AcDbEntity
  8
0
100
AcDbBlockEnd
  0
BLOCK
  5
F7
330
F5
100
AcDbEntity
  8
0
100
AcDbBlockBegin
  2
Block_4
 70
     0
 10
0.0
 20
0.0
 30
0.0
  3
Block_4
  1

  0
INSERT
  5
FA
330
F5
100
AcDbEntity
  8
カット1(R255G0B0)
100
AcDbBlockReference
  2
Block_5
 10
0.0
 20
0.0
 30
0.0
  0
CIRCLE
  5
121
330
F5
100
AcDbEntity
  8
カット1(R255G0B0)
 62
     1
420
 16711680
370
     0
100
AcDbCircle
 10
110.53010506101
 20
53.83262383283716
 30
0.0
 40
1.099997507440358
  0
CIRCLE
  5
122
330
F5
100
AcDbEntity
  8
カット1(R255G0B0)
 62
     1
420
 16711680
370
     0
100
AcDbCircle
 10
110.5301050618519
 20
72.58262734740181
 30
0.0
 40
1.099997507440518
  0
CIRCLE
  5
123
330
F5
100
AcDbEntity
  8
カット1(R255G0B0)
 62
     1
420
 16711680
370
     0
100
AcDbCircle
 10
34.53007613195918
 20
76.33242763204984
 30
0.0
 40
1.099997507440198
  0
CIRCLE
  5
124
330
F5
100
AcDbEntity
  8
カット1(R255G0B0)
 62
     1
420
 16711680
370
     0
100
AcDbCircle
 10
67.2800398033639
 20
36.58247891714534
 30
0.0
 40
1.099997507440519
  0
CIRCLE
  5
125
330
F5
100
AcDbEntity
  8
カット1(R255G0B0)
 62
     1
420
 16711680
370
     0
100
AcDbCircle
 10
20.78005767749501
 20
28.83244055720748
 30
0.0
 40
1.099997507440438
  0
ENDBLK
  5
F8
330
F5
100
AcDbEntity
  8
0
100
AcDbBlockEnd
  0
BLOCK
  5
FB
330
F9
100
AcDbEntity
  8
0
100
AcDbBlockBegin
  2
Block_5
 70
     0
 10
0.0
 20
0.0
 30
0.0
  3
Block_5
  1

  0
SPLINE
  5
FD
330
F9
100
AcDbEntity
  8
カット1(R255G0B0)
 62
     5
420
      255
370
     0
100
AcDbSpline
210
0.0
220
0.0
230
1.0
 70
     8
 71
     3
 72
     8
 73
     4
 74
     0
 42
0.0000000001
 43
0.0000000001
 40
0.0
 40
0.0
 40
0.0
 40
0.0
 40
1.0
 40
1.0
 40
1.0
 40
1.0
 10
-4.492659395447137
 20
30.48188246246024
 30
0.0
 10
-4.645396588348676
 20
30.74701454438442
 30
0.0
 10
-4.723838854618719
 20
31.04842096548179
 30
0.0
 10
-4.719751046142184
 20
31.35437160083829
 30
0.0
  0
SPLINE
  5
FE
330
F9
100
AcDbEntity
  8
カット1(R255G0B0)
 62
     5
420
      255
370
     0
100
AcDbSpline
210
0.0
220
0.0
230
1.0
 70
     8
 71
     3
 72
    11
 73
     7
 74
     0
 42
0.0000000001
 43
0.0000000001
 40
0.0
 40
0.0
 40
0.0
 40
0.0
 40
1.0
 40
1.0
 40
1.0
 40
2.0
 40
2.0
 40
2.0
 40
2.0
 10
10.6609656384471
 20
7.168515485044438
 30
0.0
 10
10.02586704687352
 20
6.7404465328149
 30
0.0
 10
9.164014148009552
 20
6.908284804604286
 30
0.0
 10
8.735945195780335
 20
7.543373474313309
 30
0.0
 10
8.734913321799368
 20
7.544911363418915
 30
0.0
 10
8.733881447818401
 20
7.546449252525804
 30
0.0
 10
8.732849573837436
 20
7.54798714163141
 30
0.0
  0
SPLINE
  5
FF
330
F9
100
AcDbEntity
  8
カット1(R255G0B0)
 62
     5
420
      255
370
     0
100
AcDbSpline
210
0.0
220
0.0
230
1.0
 70
     8
 71
     3
 72
     8
 73
     4
 74
     0
 42
0.0000000001
 43
0.0000000001
 40
0.0
 40
0.0
 40
0.0
 40
0.0
 40
1.0
 40
1.0
 40
1.0
 40
1.0
 10
24.95504956947852
 20
15.42959935736662
 30
0.0
 10
25.16847881183364
 20
15.49404187184202
 30
0.0
 10
25.38771234533009
 20
15.5374301883577
 30
0.0
 10
25.6096049386996
 20
15.55913922940917
 30
0.0
  0
SPLINE
  5
100
330
F9
100
AcDbEntity
  8
カット1(R255G0B0)
 62
     5
420
      255
370
     0
100
AcDbSpline
210
0.0
220
0.0
230
1.0
 70
    24
 71
     3
 72
     8
 73
     4
 74
     0
 42
0.0000000001
 43
0.0000000001
 40
0.0
 40
0.0
 40
0.0
 40
0.0
 40
1.0
 40
1.0
 40
1.0
 40
1.0
 10
8.735131602833803
 20
7.549257140377215
 30
0.0
 10
8.735131602833803
 20
7.549257140377215
 30
0.0
 10
-4.493175332437621
 20
30.4803544952192
 30
0.0
 10
-4.493175332437621
 20
30.4803544952192
 30
0.0
  0
SPLINE
  5
101
330
F9
100
AcDbEntity
  8
カット1(R255G0B0)
 62
     5
420
      255
370
     0
100
AcDbSpline
210
0.0
220
0.0
230
1.0
 70
    24
 71
     3
 72
     8
 73
     4
 74
     0
 42
0.0000000001
 43
0.0000000001
 40
0.0
 40
0.0
 40
0.0
 40
0.0
 40
1.0
 40
1.0
 40
1.0
 40
1.0
 10
24.95555558460444
 20
15.43086935611242
 30
0.0
 10
24.95555558460444
 20
15.43086935611242
 30
0.0
 10
10.66298969894822
 20
7.170797514040805
 30
0.0
 10
10.66298969894822
 20
7.170797514040805
 30
0.0
  0
SPLINE
  5
102
330
F9
100
AcDbEntity
  8
カット1(R255G0B0)
 62
     5
420
      255
370
     0
100
AcDbSpline
210
0.0
220
0.0
230
1.0
 70
    24
 71
     3
 72
     8
 73
     4
 74
     0
 42
0.0000000001
 43
0.0000000001
 40
0.0
 40
0.0
 40
0.0
 40
0.0
 40
1.0
 40
1.0
 40
1.0
 40
1.0
 10
62.28081872402263
 20
20.33052451575057
 30
0.0
 10
62.28081872402263
 20
20.33052451575057
 30
0.0
 10
25.61087493744541
 20
15.56040922815498
 30
0.0
 10
25.61087493744541
 20
15.56040922815498
 30
0.0
  0
SPLINE
  5
103
330
F9
100
AcDbEntity
  8
カット1(R255G0B0)
 62
     5
420
      255
370
     0
100
AcDbSpline
210
0.0
220
0.0
230
1.0
 70
     8
 71
     3
 72
     8
 73
     4
 74
     0
 42
0.0000000001
 43
0.0000000001
 40
0.0
 40
0.0
 40
0.0
 40
0.0
 40
1.0
 40
1.0
 40
1.0
 40
1.0
 10
62.63362040686749
 20
20.47581038788282
 30
0.0
 10
62.53982901511228
 20
20.38209837105693
 30
0.0
 10
62.41265054695563
 20
20.32947279803343
 30
0.0
 10
62.28005474040147
 20
20.32951248550001
 30
0.0
  0
SPLINE
  5
104
330
F9
100
AcDbEntity
  8
カット1(R255G0B0)
 62
     5
420
      255
370
     0
100
AcDbSpline
210
0.0
220
0.0
230
1.0
 70
    24
 71
     3
 72
     8
 73
     4
 74
     0
 42
0.0000000001
 43
0.0000000001
 40
0.0
 40
0.0
 40
0.0
 40
0.0
 40
1.0
 40
1.0
 40
1.0
 40
1.0
 10
73.17740796368219
 20
34.93551009201484
 30
0.0
 10
73.17740796368219
 20
34.93551009201484
 30
0.0
 10
62.63387837536273
 20
20.47784437024851
 30
0.0
 10
62.63387837536273
 20
20.47784437024851
 30
0.0
  0
SPLINE
  5
105
330
F9
100
AcDbEntity
  8
カット1(R255G0B0)
 62
     5
420
      255
370
     0
100
AcDbSpline
210
0.0
220
0.0
230
1.0
 70
    24
 71
     3
 72
     8
 73
     4
 74
     0
 42
0.0000000001
 43
0.0000000001
 40
0.0
 40
0.0
 40
0.0
 40
0.0
 40
1.0
 40
1.0
 40
1.0
 40
1.0
 10
16.03254440006746
 20
93.08113267249956
 30
0.0
 10
16.03254440006746
 20
93.08113267249956
 30
0.0
 10
16.03254440001131
 20
91.8314539066278
 30
0.0
 10
16.03254440001131
 20
91.8314539066278
 30
0.0
  0
SPLINE
  5
106
330
F9
100
AcDbEntity
  8
カット1(R255G0B0)
 62
     5
420
      255
370
     0
100
AcDbSpline
210
0.0
220
0.0
230
1.0
 70
     8
 71
     3
 72
     8
 73
     4
 74
     0
 42
0.0000000001
 43
0.0000000001
 40
0.0
 40
0.0
 40
0.0
 40
0.0
 40
1.0
 40
1.0
 40
1.0
 40
1.0
 10
16.03026237107109
 20
93.07935665862848
 30
0.0
 10
16.03020283989207
 20
93.35549208905417
 30
0.0
 10
16.25398058765919
 20
93.57940378198129
 30
0.0
 10
16.53012593995009
 20
93.57947819595844
 30
0.0
  0
SPLINE
  5
107
330
F9
100
AcDbEntity
  8
カット1(R255G0B0)
 62
     5
420
      255
370
     0
100
AcDbSpline
210
0.0
220
0.0
230
1.0
 70
     8
 71
     3
 72
    11
 73
     7
 74
     0
 42
0.0000000001
 43
0.0000000001
 40
0.0
 40
0.0
 40
0.0
 40
0.0
 40
1.0
 40
1.0
 40
1.0
 40
2.0
 40
2.0
 40
2.0
 40
2.0
 10
16.03026237101494
 20
91.82941992426147
 30
0.0
 10
16.03032190219364
 20
91.55327953290287
 30
0.0
 10
15.80652431069643
 20
91.32936783997637
 30
0.0
 10
15.53037895840553
 20
91.32929838693215
 30
0.0
 10
15.53029958348392
 20
91.32929838693215
 30
0.0
 10
15.53022020856231
 20
91.32929838693215
 30
0.0
 10
15.5301408336407
 20
91.32929838693215
 30
0.0
  0
SPLINE
  5
108
330
F9
100
AcDbEntity
  8
カット1(R255G0B0)
 62
     5
420
      255
370
     0
100
AcDbSpline
210
0.0
220
0.0
230
1.0
 70
    24
 71
     3
 72
     8
 73
     4
 74
     0
 42
0.0000000001
 43
0.0000000001
 40
0.0
 40
0.0
 40
0.0
 40
0.0
 40
1.0
 40
1.0
 40
1.0
 40
1.0
 10
-4.218855600611787
 20
91.33107440169005
 30
0.0
 10
-4.218855600611787
 20
91.33107440169005
 30
0.0
 10
15.53216489414182
 20
91.33107440080323
 30
0.0
 10
15.53216489414182
 20
91.33107440080323
 30
0.0
  0
SPLINE
  5
109
330
F9
100
AcDbEntity
  8
カット1(R255G0B0)
 62
     5
420
      255
370
     0
100
AcDbSpline
210
0.0
220
0.0
230
1.0
 70
     8
 71
     3
 72
     8
 73
     4
 74
     0
 42
0.0000000001
 43
0.0000000001
 40
0.0
 40
0.0
 40
0.0
 40
0.0
 40
1.0
 40
1.0
 40
1.0
 40
1.0
 10
73.17664398006101
 20
34.93297009452323
 30
0.0
 10
73.27039568435541
 20
35.0267813300005
 30
0.0
 10
73.39758407437662
 20
35.07949619981018
 30
0.0
 10
73.53020964652704
 20
35.07952596540065
 30
0.0
  0
SPLINE
  5
10A
330
F9
100
AcDbEntity
  8
カット1(R255G0B0)
 62
     5
420
      255
370
     0
100
AcDbSpline
210
0.0
220
0.0
230
1.0
 70
     8
 71
     3
 72
    11
 73
     7
 74
     0
 42
0.0000000001
 43
0.0000000001
 40
0.0
 40
0.0
 40
0.0
 40
0.0
 40
1.0
 40
1.0
 40
1.0
 40
2.0
 40
2.0
 40
2.0
 40
2.0
 10
129.0301767903263
 20
35.57939945363003
 30
0.0
 10
129.030107337259
 20
35.3032541013385
 30
0.0
 10
128.8061956443107
 20
35.07945650986215
 30
0.0
 10
128.5300552529527
 20
35.07952596293139
 30
0.0
 10
128.5300502920198
 20
35.07952596293139
 30
0.0
 10
128.5300502920198
 20
35.07952596293139
 30
0.0
 10
128.5300502920198
 20
35.07952596293139
 30
0.0
  0
SPLINE
  5
10B
330
F9
100
AcDbEntity
  8
カット1(R255G0B0)
 62
     5
420
      255
370
     0
100
AcDbSpline
210
0.0
220
0.0
230
1.0
 70
     8
 71
     3
 72
    11
 73
     7
 74
     0
 42
0.0000000001
 43
0.0000000001
 40
0.0
 40
0.0
 40
0.0
 40
0.0
 40
1.0
 40
1.0
 40
1.0
 40
2.0
 40
2.0
 40
2.0
 40
2.0
 10
128.5300502945455
 20
91.32929838185887
 30
0.0
 10
128.8061906859048
 20
91.32936783490309
 30
0.0
 10
129.0301073397642
 20
91.10557024340556
 30
0.0
 10
129.0301767928071
 20
90.82942985204759
 30
0.0
 10
129.0301767928071
 20
90.82942489111468
 30
0.0
 10
129.0301767928071
 20
90.82942489111468
 30
0.0
 10
129.0301767928071
 20
90.82942489111468
 30
0.0
  0
SPLINE
  5
10C
330
F9
100
AcDbEntity
  8
カット1(R255G0B0)
 62
     5
420
      255
370
     0
100
AcDbSpline
210
0.0
220
0.0
230
1.0
 70
     8
 71
     3
 72
    11
 73
     7
 74
     0
 42
0.0000000001
 43
0.0000000001
 40
0.0
 40
0.0
 40
0.0
 40
0.0
 40
1.0
 40
1.0
 40
1.0
 40
2.0
 40
2.0
 40
2.0
 40
2.0
 10
91.53015984183703
 20
91.32929838352024
 30
0.0
 10
91.25401448954614
 20
91.32922893047602
 30
0.0
 10
91.03010775755
 20
91.55303148290647
 30
0.0
 10
91.03003830450708
 20
91.82917187426445
 30
0.0
 10
91.03003830450708
 20
91.82925621011897
 30
0.0
 10
91.03003830450708
 20
91.82933558504059
 30
0.0
 10
91.03003830450708
 20
91.82941992089448
 30
0.0
  0
SPLINE
  5
10D
330
F9
100
AcDbEntity
  8
カット1(R255G0B0)
 62
     5
420
      255
370
     0
100
AcDbSpline
210
0.0
220
0.0
230
1.0
 70
     8
 71
     3
 72
     8
 73
     4
 74
     0
 42
0.0000000001
 43
0.0000000001
 40
0.0
 40
0.0
 40
0.0
 40
0.0
 40
1.0
 40
1.0
 40
1.0
 40
1.0
 10
90.53016481397591
 20
96.07934670043745
 30
0.0
 10
90.80621094761479
 20
96.07927724736754
 30
0.0
 10
91.02996885163099
 20
95.85551934333146
 30
0.0
 10
91.03003830467519
 20
95.5794732096926
 30
0.0
  0
SPLINE
  5
10E
330
F9
100
AcDbEntity
  8
カット1(R255G0B0)
 62
     5
420
      255
370
     0
100
AcDbSpline
210
0.0
220
0.0
230
1.0
 70
     8
 71
     3
 72
    11
 73
     7
 74
     0
 42
0.0000000001
 43
0.0000000001
 40
0.0
 40
0.0
 40
0.0
 40
0.0
 40
1.0
 40
1.0
 40
1.0
 40
2.0
 40
2.0
 40
2.0
 40
2.0
 10
72.53021462119164
 20
96.07934670124535
 30
0.0
 10
72.25406926890075
 20
96.07927724820047
 30
0.0
 10
72.03016253690718
 20
96.30307980063093
 30
0.0
 10
72.03009308386168
 20
96.5792201919889
 30
0.0
 10
72.03009308386168
 20
96.57930452784343
 30
0.0
 10
72.03009308386168
 20
96.57938886369798
 30
0.0
 10
72.03009308386168
 20
96.57947319955185
 30
0.0
  0
SPLINE
  5
10F
330
F9
100
AcDbEntity
  8
カット1(R255G0B0)
 62
     5
420
      255
370
     0
100
AcDbSpline
210
0.0
220
0.0
230
1.0
 70
     8
 71
     3
 72
    11
 73
     7
 74
     0
 42
0.0000000001
 43
0.0000000001
 40
0.0
 40
0.0
 40
0.0
 40
0.0
 40
1.0
 40
1.0
 40
1.0
 40
2.0
 40
2.0
 40
2.0
 40
2.0
 10
71.53021959321951
 20
98.32953147129373
 30
0.0
 10
71.80636494551039
 20
98.3294620182245
 30
0.0
 10
72.03016253698803
 20
98.10555032527748
 30
0.0
 10
72.03009308391814
 20
97.82940993391886
 30
0.0
 10
72.03009308391814
 20
97.82940497298659
 30
0.0
 10
72.03009308391814
 20
97.82940497298659
 30
0.0
 10
72.03009308391814
 20
97.82940497298659
 30
0.0
  0
SPLINE
  5
110
330
F9
100
AcDbEntity
  8
カット1(R255G0B0)
 62
     5
420
      255
370
     0
100
AcDbSpline
210
0.0
220
0.0
230
1.0
 70
     8
 71
     3
 72
    11
 73
     7
 74
     0
 42
0.0000000001
 43
0.0000000001
 40
0.0
 40
0.0
 40
0.0
 40
0.0
 40
1.0
 40
1.0
 40
1.0
 40
2.0
 40
2.0
 40
2.0
 40
2.0
 10
54.03014289113388
 20
97.82940497379449
 30
0.0
 10
54.03007343809094
 20
98.10554536515246
 30
0.0
 10
54.25387102958783
 20
98.32946201901251
 30
0.0
 10
54.53001638187872
 20
98.32953147205737
 30
0.0
 10
54.53001638187872
 20
98.32953147205737
 30
0.0
 10
54.53001638187872
 20
98.32953147205737
 30
0.0
 10
54.53001638187872
 20
98.32953147205737
 30
0.0
  0
SPLINE
  5
111
330
F9
100
AcDbEntity
  8
カット1(R255G0B0)
 62
     5
420
      255
370
     0
100
AcDbSpline
210
0.0
220
0.0
230
1.0
 70
     8
 71
     3
 72
    11
 73
     7
 74
     0
 42
0.0000000001
 43
0.0000000001
 40
0.0
 40
0.0
 40
0.0
 40
0.0
 40
1.0
 40
1.0
 40
1.0
 40
2.0
 40
2.0
 40
2.0
 40
2.0
 10
54.03014289107741
 20
96.57947320035976
 30
0.0
 10
54.03021234412292
 20
96.30333280900115
 30
0.0
 10
53.80641475262539
 20
96.07941615514173
 30
0.0
 10
53.53026940033449
 20
96.07934670209814
 30
0.0
 10
53.53019002541287
 20
96.07934670209814
 30
0.0
 10
53.53010072862542
 20
96.07934670209814
 30
0.0
 10
53.53002135370381
 20
96.07934670209814
 30
0.0
  0
SPLINE
  5
112
330
F9
100
AcDbEntity
  8
カット1(R255G0B0)
 62
     5
420
      255
370
     0
100
AcDbSpline
210
0.0
220
0.0
230
1.0
 70
     8
 71
     3
 72
     8
 73
     4
 74
     0
 42
0.0000000001
 43
0.0000000001
 40
0.0
 40
0.0
 40
0.0
 40
0.0
 40
1.0
 40
1.0
 40
1.0
 40
1.0
 10
35.03019767017534
 20
95.57947321220677
 30
0.0
 10
35.03026712324362
 20
95.85551934584565
 30
0.0
 10
35.25402502728066
 20
96.07927724986183
 30
0.0
 10
35.53007116091954
 20
96.07934670290669
 30
0.0
  0
SPLINE
  5
113
330
F9
100
AcDbEntity
  8
カット1(R255G0B0)
 62
     5
420
      255
370
     0
100
AcDbSpline
210
0.0
220
0.0
230
1.0
 70
     8
 71
     3
 72
     8
 73
     4
 74
     0
 42
0.0000000001
 43
0.0000000001
 40
0.0
 40
0.0
 40
0.0
 40
0.0
 40
1.0
 40
1.0
 40
1.0
 40
1.0
 10
35.0301976701086
 20
94.07935168584918
 30
0.0
 10
35.03012821703872
 20
93.8032112944912
 30
0.0
 10
34.80622148502494
 20
93.57940874208066
 30
0.0
 10
34.53007613273404
 20
93.57947819515054
 30
0.0
  0
SPLINE
  5
114
330
F9
100
AcDbEntity
  8
カット1(R255G0B0)
 62
     5
420
      255
370
     0
100
AcDbSpline
210
0.0
220
0.0
230
1.0
 70
     8
 71
     3
 72
     8
 73
     4
 74
     0
 42
0.0000000001
 43
0.0000000001
 40
0.0
 40
0.0
 40
0.0
 40
0.0
 40
1.0
 40
1.0
 40
1.0
 40
1.0
 10
-4.719751043471754
 20
90.82942489711969
 30
0.0
 10
-4.719691512268352
 20
91.10547103075857
 30
0.0
 10
-4.495913764501229
 20
91.32923389570768
 30
0.0
 10
-4.21986763086235
 20
91.32929838781898
 30
0.0
  0
SPLINE
  5
115
330
F9
100
AcDbEntity
  8
カット1(R255G0B0)
 62
     5
420
      255
370
     0
100
AcDbSpline
210
0.0
220
0.0
230
1.0
 70
    24
 71
     3
 72
     8
 73
     4
 74
     0
 42
0.0000000001
 43
0.0000000001
 40
0.0
 40
0.0
 40
0.0
 40
0.0
 40
1.0
 40
1.0
 40
1.0
 40
1.0
 10
-4.719235106481271
 20
90.8306948958655
 30
0.0
 10
-4.719235106481271
 20
90.8306948958655
 30
0.0
 10
-4.71923510915138
 20
31.35665362983466
 30
0.0
 10
-4.71923510915138
 20
31.35665362983466
 30
0.0
  0
SPLINE
  5
116
330
F9
100
AcDbEntity
  8
カット1(R255G0B0)
 62
     5
420
      255
370
     0
100
AcDbSpline
210
0.0
220
0.0
230
1.0
 70
    24
 71
     3
 72
     8
 73
     4
 74
     0
 42
0.0000000001
 43
0.0000000001
 40
0.0
 40
0.0
 40
0.0
 40
0.0
 40
1.0
 40
1.0
 40
1.0
 40
1.0
 10
73.53046761502229
 20
35.08028994902053
 30
0.0
 10
73.53046761502229
 20
35.08028994902053
 30
0.0
 10
128.5315732983292
 20
35.08028994655127
 30
0.0
 10
128.5315732983292
 20
35.08028994655127
 30
0.0
  0
SPLINE
  5
117
330
F9
100
AcDbEntity
  8
カット1(R255G0B0)
 62
     5
420
      255
370
     0
100
AcDbSpline
210
0.0
220
0.0
230
1.0
 70
    24
 71
     3
 72
     8
 73
     4
 74
     0
 42
0.0000000001
 43
0.0000000001
 40
0.0
 40
0.0
 40
0.0
 40
0.0
 40
1.0
 40
1.0
 40
1.0
 40
1.0
 10
129.0319528066788
 20
90.83069488986048
 30
0.0
 10
129.0319528066788
 20
90.83069488986048
 30
0.0
 10
129.031952804198
 20
35.58066945237584
 30
0.0
 10
129.031952804198
 20
35.58066945237584
 30
0.0
  0
SPLINE
  5
118
330
F9
100
AcDbEntity
  8
カット1(R255G0B0)
 62
     5
420
      255
370
     0
100
AcDbSpline
210
0.0
220
0.0
230
1.0
 70
    24
 71
     3
 72
     8
 73
     4
 74
     0
 42
0.0000000001
 43
0.0000000001
 40
0.0
 40
0.0
 40
0.0
 40
0.0
 40
1.0
 40
1.0
 40
1.0
 40
1.0
 10
91.53142984058284
 20
91.33107439739132
 30
0.0
 10
91.53142984058284
 20
91.33107439739132
 30
0.0
 10
128.5315733008549
 20
91.33107439572997
 30
0.0
 10
128.5315733008549
 20
91.33107439572997
 30
0.0
  0
SPLINE
  5
119
330
F9
100
AcDbEntity
  8
カット1(R255G0B0)
 62
     5
420
      255
370
     0
100
AcDbSpline
210
0.0
220
0.0
230
1.0
 70
    24
 71
     3
 72
     8
 73
     4
 74
     0
 42
0.0000000001
 43
0.0000000001
 40
0.0
 40
0.0
 40
0.0
 40
0.0
 40
1.0
 40
1.0
 40
1.0
 40
1.0
 10
91.03105033492576
 20
95.58049020087606
 30
0.0
 10
91.03105033492576
 20
95.58049020087606
 30
0.0
 10
91.03105033475763
 20
91.8314539032608
 30
0.0
 10
91.03105033475763
 20
91.8314539032608
 30
0.0
  0
SPLINE
  5
11A
330
F9
100
AcDbEntity
  8
カット1(R255G0B0)
 62
     5
420
      255
370
     0
100
AcDbSpline
210
0.0
220
0.0
230
1.0
 70
    24
 71
     3
 72
     8
 73
     4
 74
     0
 42
0.0000000001
 43
0.0000000001
 40
0.0
 40
0.0
 40
0.0
 40
0.0
 40
1.0
 40
1.0
 40
1.0
 40
1.0
 10
72.53224860355861
 20
96.08086970755346
 30
0.0
 10
72.53224860355861
 20
96.08086970755346
 30
0.0
 10
90.53067082910184
 20
96.08086970674555
 30
0.0
 10
90.53067082910184
 20
96.08086970674555
 30
0.0
  0
SPLINE
  5
11B
330
F9
100
AcDbEntity
  8
カット1(R255G0B0)
 62
     5
420
      255
370
     0
100
AcDbSpline
210
0.0
220
0.0
230
1.0
 70
    24
 71
     3
 72
     8
 73
     4
 74
     0
 42
0.0000000001
 43
0.0000000001
 40
0.0
 40
0.0
 40
0.0
 40
0.0
 40
1.0
 40
1.0
 40
1.0
 40
1.0
 10
72.03186909778988
 20
97.83092797929469
 30
0.0
 10
72.03186909778988
 20
97.83092797929469
 30
0.0
 10
72.03186909773404
 20
96.58124921342295
 30
0.0
 10
72.03186909773404
 20
96.58124921342295
 30
0.0
  0
SPLINE
  5
11C
330
F9
100
AcDbEntity
  8
カット1(R255G0B0)
 62
     5
420
      255
370
     0
100
AcDbSpline
210
0.0
220
0.0
230
1.0
 70
    24
 71
     3
 72
     8
 73
     4
 74
     0
 42
0.0000000001
 43
0.0000000001
 40
0.0
 40
0.0
 40
0.0
 40
0.0
 40
1.0
 40
1.0
 40
1.0
 40
1.0
 10
54.53128638062517
 20
98.33130748592717
 30
0.0
 10
54.53128638062517
 20
98.33130748592717
 30
0.0
 10
71.53148959196595
 20
98.33130748516419
 30
0.0
 10
71.53148959196595
 20
98.33130748516419
 30
0.0
  0
SPLINE
  5
11D
330
F9
100
AcDbEntity
  8
カット1(R255G0B0)
 62
     5
420
      255
370
     0
100
AcDbSpline
210
0.0
220
0.0
230
1.0
 70
    24
 71
     3
 72
     8
 73
     4
 74
     0
 42
0.0000000001
 43
0.0000000001
 40
0.0
 40
0.0
 40
0.0
 40
0.0
 40
1.0
 40
1.0
 40
1.0
 40
1.0
 10
54.03090687469922
 20
96.58124921423084
 30
0.0
 10
54.03090687469922
 20
96.58124921423084
 30
0.0
 10
54.03090687475504
 20
97.8309279801026
 30
0.0
 10
54.03090687475504
 20
97.8309279801026
 30
0.0
  0
SPLINE
  5
11E
330
F9
100
AcDbEntity
  8
カット1(R255G0B0)
 62
     5
420
      255
370
     0
100
AcDbSpline
210
0.0
220
0.0
230
1.0
 70
    24
 71
     3
 72
     8
 73
     4
 74
     0
 42
0.0000000001
 43
0.0000000001
 40
0.0
 40
0.0
 40
0.0
 40
0.0
 40
1.0
 40
1.0
 40
1.0
 40
1.0
 10
35.53210514328684
 20
96.08086970921483
 30
0.0
 10
35.53210514328684
 20
96.08086970921483
 30
0.0
 10
53.53052736882973
 20
96.08086970840629
 30
0.0
 10
53.53052736882973
 20
96.08086970840629
 30
0.0
  0
SPLINE
  5
11F
330
F9
100
AcDbEntity
  8
カット1(R255G0B0)
 62
     5
420
      255
370
     0
100
AcDbSpline
210
0.0
220
0.0
230
1.0
 70
    24
 71
     3
 72
     8
 73
     4
 74
     0
 42
0.0000000001
 43
0.0000000001
 40
0.0
 40
0.0
 40
0.0
 40
0.0
 40
1.0
 40
1.0
 40
1.0
 40
1.0
 10
35.03172563734965
 20
94.08189168334079
 30
0.0
 10
35.03172563734965
 20
94.08189168334079
 30
0.0
 10
35.03172563741703
 20
95.58049020339025
 30
0.0
 10
35.03172563741703
 20
95.58049020339025
 30
0.0
  0
SPLINE
  5
120
330
F9
100
AcDbEntity
  8
カット1(R255G0B0)
 62
     5
420
      255
370
     0
100
AcDbSpline
210
0.0
220
0.0
230
1.0
 70
    24
 71
     3
 72
     8
 73
     4
 74
     0
 42
0.0000000001
 43
0.0000000001
 40
0.0
 40
0.0
 40
0.0
 40
0.0
 40
1.0
 40
1.0
 40
1.0
 40
1.0
 10
16.53038390844533
 20
93.58151217832412
 30
0.0
 10
16.53038390844533
 20
93.58151217832412
 30
0.0
 10
34.53134613148016
 20
93.58151217751624
 30
0.0
 10
34.53134613148016
 20
93.58151217751624
 30
0.0
  0
ENDBLK
  5
FC
330
F9
100
AcDbEntity
  8
0
100
AcDbBlockEnd
  0
BLOCK
  5
128
330
126
100
AcDbEntity
  8
0
100
AcDbBlockBegin
  2
Block_6
 70
     0
 10
0.0
 20
0.0
 30
0.0
  3
Block_6
  1

  0
SPLINE
  5
12A
330
126
100
AcDbEntity
  8
カット1(R255G0B0)
 62
     5
420
      255
370
     0
100
AcDbSpline
210
0.0
220
0.0
230
1.0
 70
     9
 71
     3
 72
    29
 73
    25
 74
     0
 42
0.0000000001
 43
0.0000000001
 40
0.0
 40
0.0
 40
0.0
 40
0.0
 40
1.0
 40
1.0
 40
1.0
 40
2.0
 40
2.0
 40
2.0
 40
3.0
 40
3.0
 40
3.0
 40
4.0
 40
4.0
 40
4.0
 40
5.0
 40
5.0
 40
5.0
 40
6.0
 40
6.0
 40
6.0
 40
7.0
 40
7.0
 40
7.0
 40
8.0
 40
8.0
 40
8.0
 40
8.0
 10
-142.1273511579466
 20
-54.18533138024045
 30
0.0
 10
-142.1273511579466
 20
-54.18533138024045
 30
0.0
 10
-142.1273511605849
 20
4.568186875236764
 30
0.0
 10
-142.1273511605849
 20
4.568186875236764
 30
0.0
 10
-142.1273511606013
 20
4.95304941617385
 30
0.0
 10
-141.7107578328825
 20
5.19361672930162
 30
0.0
 10
-141.3774245067952
 20
5.001241915107087
 30
0.0
 10
-141.3774245067952
 20
5.001241915107087
 30
0.0
 10
-122.6585751740578
 20
-5.801863806700366
 30
0.0
 10
-122.6585751740578
 20
-5.801863806700366
 30
0.0
 10
-122.5038333042024
 20
-5.891169124027563
 30
0.0
 10
-122.4085018281045
 20
-6.056255794976669
 30
0.0
 10
-122.4085018280968
 20
-6.234918846527052
 30
0.0
 10
-122.4085018280968
 20
-6.234918846527052
 30
0.0
 10
-122.4085018259439
 20
-54.18285708691541
 30
0.0
 10
-122.4085018259439
 20
-54.18285708691541
 30
0.0
 10
-122.4085018259321
 20
-54.45897365200023
 30
0.0
 10
-122.6323191721919
 20
-54.68282058483036
 30
0.0
 10
-122.9084357348646
 20
-54.68285708244566
 30
0.0
 10
-122.9084357348646
 20
-54.68285708244566
 30
0.0
 10
-141.6272850671172
 20
-54.68533137572515
 30
0.0
 10
-141.6272850671172
 20
-54.68533137572515
 30
0.0
 10
-141.9034532500187
 20
-54.68536788016365
 30
0.0
 10
-142.1273511579337
 20
-54.46149956555512
 30
0.0
 10
-142.1273511579466
 20
-54.18533138024045
 30
0.0
  0
INSERT
  5
12C
330
126
100
AcDbEntity
  8
カット1(R255G0B0)
100
AcDbBlockReference
  2
Block_7
 10
0.0
 20
0.0
 30
0.0
  0
CIRCLE
  5
151
330
126
100
AcDbEntity
  8
カット1(R255G0B0)
 62
     1
420
 16711680
370
     0
100
AcDbCircle
 10
-125.0567920025712
 20
-7.200875334941022
 30
0.0
 40
1.09999999972491
  0
CIRCLE
  5
152
330
126
100
AcDbEntity
  8
カット1(R255G0B0)
 62
     1
420
 16711680
370
     0
100
AcDbCircle
 10
-139.4887997817825
 20
1.320052265140371
 30
0.0
 40
1.09999999972523
  0
CIRCLE
  5
153
330
126
100
AcDbEntity
  8
カット1(R255G0B0)
 62
     1
420
 16711680
370
     0
100
AcDbCircle
 10
-24.60032350870407
 20
-34.37388273409377
 30
0.0
 40
1.099999999725151
  0
CIRCLE
  5
154
330
126
100
AcDbEntity
  8
カット1(R255G0B0)
 62
     1
420
 16711680
370
     0
100
AcDbCircle
 10
-24.60032350954631
 20
-15.62387672724497
 30
0.0
 40
1.099997507440438
  0
CIRCLE
  5
155
330
126
100
AcDbEntity
  8
カット1(R255G0B0)
 62
     1
420
 16711680
370
     0
100
AcDbCircle
 10
-100.6003524385969
 20
-38.12368052645765
 30
0.0
 40
1.099997507440398
  0
CIRCLE
  5
156
330
126
100
AcDbEntity
  8
カット1(R255G0B0)
 62
     1
420
 16711680
370
     0
100
AcDbCircle
 10
-67.85038876719276
 20
1.62626818844814
 30
0.0
 40
1.099997507440438
  0
CIRCLE
  5
157
330
126
100
AcDbEntity
  8
カット1(R255G0B0)
 62
     1
420
 16711680
370
     0
100
AcDbCircle
 10
-114.3503708930608
 20
9.376306548384226
 30
0.0
 40
1.099997507440559
  0
LWPOLYLINE
  5
158
330
126
100
AcDbEntity
  8
カット1(R255G0B0)
 62
     1
420
 16711680
370
     0
100
AcDbPolyline
 90
        4
 70
     1
 43
0.0
 10
-22.10911686431305
 20
-36.99920323018588
 10
-8.109116867813666
 20
-36.99920322955701
 10
-8.109116867185122
 20
-50.99920322605639
 10
-22.10911686368451
 20
-50.99920322668526
  0
LWPOLYLINE
  5
159
330
126
100
AcDbEntity
  8
カット1(R255G0B0)
 62
     1
420
 16711680
370
     0
100
AcDbPolyline
 90
        4
 70
     1
 43
0.0
 10
-22.10911686516619
 20
-17.99921048904623
 10
-8.109116868666804
 20
-17.99921048841737
 10
-8.10911686803826
 20
-31.99921048491676
 10
-22.10911686453764
 20
-31.99921048554562
  0
LWPOLYLINE
  5
15A
330
126
100
AcDbEntity
  8
カット1(R255G0B0)
 62
     1
420
 16711680
370
     0
100
AcDbPolyline
 90
        4
 70
     1
 43
0.0
 10
-22.10911686601901
 20
1.000789506203934
 10
-8.109116869519622
 20
1.000789506832799
 10
-8.109116868891078
 20
-12.99921048966658
 10
-22.10911686539046
 20
-12.99921049029545
  0
LWPOLYLINE
  5
15B
330
126
100
AcDbEntity
  8
カット1(R255G0B0)
 62
     1
420
 16711680
370
     0
100
AcDbPolyline
 90
        4
 70
     1
 43
0.0
 10
-41.10728820467442
 20
-36.99987468310669
 10
-27.10728820817439
 20
-36.99987468247846
 10
-27.10728820754585
 20
-50.99987467897785
 10
-41.10728820404619
 20
-50.99987467960607
  0
LWPOLYLINE
  5
15C
330
126
100
AcDbEntity
  8
カット1(R255G0B0)
 62
     1
420
 16711680
370
     0
100
AcDbPolyline
 90
        4
 70
     1
 43
0.0
 10
-41.10728820552659
 20
-17.99988194196769
 10
-27.10728820902721
 20
-17.99988194133947
 10
-27.10728820839867
 20
-31.99988193783886
 10
-41.10728820489804
 20
-31.99988193846708
  0
LWPOLYLINE
  5
15D
330
126
100
AcDbEntity
  8
カット1(R255G0B0)
 62
     1
420
 16711680
370
     0
100
AcDbPolyline
 90
        4
 70
     1
 43
0.0
 10
-41.10728820637973
 20
1.00011805328248
 10
-27.10728820988035
 20
1.000118053910703
 10
-27.10728820925181
 20
-12.99988194258868
 10
-41.10728820575086
 20
-12.9998819432169
  0
LWPOLYLINE
  5
15E
330
126
100
AcDbEntity
  8
カット1(R255G0B0)
 62
     1
420
 16711680
370
     0
100
AcDbPolyline
 90
        4
 70
     1
 43
0.0
 10
-60.10755716164008
 20
-41.74468917648684
 10
-46.10755716514069
 20
-41.74468917585861
 10
-46.10755716451246
 20
-55.744689172358
 10
-60.10755716101186
 20
-55.74468917298623
  0
LWPOLYLINE
  5
15F
330
126
100
AcDbEntity
  8
カット1(R255G0B0)
 62
     1
420
 16711680
370
     0
100
AcDbPolyline
 90
        4
 70
     1
 43
0.0
 10
-60.10755716249418
 20
-22.7446964353472
 10
-46.1075571659948
 20
-22.74469643471898
 10
-46.10755716536561
 20
-36.74469643121901
 10
-60.10755716186499
 20
-36.74469643184723
  0
LWPOLYLINE
  5
160
330
126
100
AcDbEntity
  8
カット1(R255G0B0)
 62
     1
420
 16711680
370
     0
100
AcDbPolyline
 90
        4
 70
     1
 43
0.0
 10
-60.10755716334668
 20
-3.744696440097029
 10
-46.10755716684729
 20
-3.744696439468805
 10
-46.10755716621907
 20
-17.74469643596819
 10
-60.10755716271845
 20
-17.74469643659641
  0
LWPOLYLINE
  5
161
330
126
100
AcDbEntity
  8
カット1(R255G0B0)
 62
     1
420
 16711680
370
     0
100
AcDbPolyline
 90
        4
 70
     1
 43
0.0
 10
-79.10949365736911
 20
-44.12353312281683
 10
-65.10949366086973
 20
-44.12353312218797
 10
-65.10949366024085
 20
-58.12353311868736
 10
-79.10949365674024
 20
-58.12353311931622
  0
LWPOLYLINE
  5
162
330
126
100
AcDbEntity
  8
カット1(R255G0B0)
 62
     1
420
 16711680
370
     0
100
AcDbPolyline
 90
        4
 70
     1
 43
0.0
 10
-79.10949365822194
 20
-25.12354038167784
 10
-65.10949366172255
 20
-25.12354038104898
 10
-65.109493661094
 20
-39.12354037754836
 10
-79.10949365759339
 20
-39.12354037817723
  0
LWPOLYLINE
  5
163
330
126
100
AcDbEntity
  8
カット1(R255G0B0)
 62
     1
420
 16711680
370
     0
100
AcDbPolyline
 90
        4
 70
     1
 43
0.0
 10
-79.10949365907571
 20
-6.123540386427669
 10
-65.10949366257633
 20
-6.123540385798804
 10
-65.10949366194714
 20
-20.12354038229819
 10
-79.10949365844652
 20
-20.12354038292706
  0
LWPOLYLINE
  5
164
330
126
100
AcDbEntity
  8
カット1(R255G0B0)
 62
     1
420
 16711680
370
     0
100
AcDbPolyline
 90
        4
 70
     1
 43
0.0
 10
-98.11071867015158
 20
-41.74895807715328
 10
-84.11071867365221
 20
-41.74895807652506
 10
-84.11071867302398
 20
-55.74895807302444
 10
-98.11071866952369
 20
-55.74895807365266
  0
LWPOLYLINE
  5
165
330
126
100
AcDbEntity
  8
カット1(R255G0B0)
 62
     1
420
 16711680
370
     0
100
AcDbPolyline
 90
        4
 70
     1
 43
0.0
 10
-98.11071867100441
 20
-22.74896533601493
 10
-84.11071867450502
 20
-22.7489653353867
 10
-84.11071867387681
 20
-36.74896533188544
 10
-98.11071867037618
 20
-36.74896533251367
  0
LWPOLYLINE
  5
166
330
126
100
AcDbEntity
  8
カット1(R255G0B0)
 62
     1
420
 16711680
370
     0
100
AcDbPolyline
 90
        4
 70
     1
 43
0.0
 10
-98.11071867185788
 20
-3.74896534076411
 10
-84.11071867535849
 20
-3.748965340135887
 10
-84.1107186747296
 20
-17.74896533663527
 10
-98.11071867122869
 20
-17.74896533726413
  0
LWPOLYLINE
  5
167
330
126
100
AcDbEntity
  8
カット1(R255G0B0)
 62
     1
420
 16711680
370
     0
100
AcDbPolyline
 90
        4
 70
     1
 43
0.0
 10
-117.1124772953035
 20
-39.36411099336761
 10
-103.1124772988041
 20
-39.36411099273875
 10
-103.1124772981749
 20
-53.36411098923814
 10
-117.1124772946743
 20
-53.364110989867
  0
LWPOLYLINE
  5
168
330
126
100
AcDbEntity
  8
カット1(R255G0B0)
 62
     1
420
 16711680
370
     0
100
AcDbPolyline
 90
        4
 70
     1
 43
0.0
 10
-117.112477296156
 20
-20.36411825222926
 10
-103.1124772996566
 20
-20.36411825160039
 10
-103.1124772990284
 20
-34.36411824809914
 10
-117.1124772955278
 20
-34.364118248728
  0
LWPOLYLINE
  5
169
330
126
100
AcDbEntity
  8
カット1(R255G0B0)
 62
     1
420
 16711680
370
     0
100
AcDbPolyline
 90
        4
 70
     1
 43
0.0
 10
-117.1124772970095
 20
-1.364118256979085
 10
-103.1124773005101
 20
-1.36411825635022
 10
-103.1124772998812
 20
-15.3641182528496
 10
-117.1124772963806
 20
-15.36411825347847
  0
LWPOLYLINE
  5
16A
330
126
100
AcDbEntity
  8
カット1(R255G0B0)
 62
     1
420
 16711680
370
     0
100
AcDbPolyline
 90
        4
 70
     1
 43
0.0
 10
-88.62911117444324
 20
15.9089445170492
 10
-74.62911117794385
 20
15.90894451767742
 10
-74.62911117731562
 20
1.908944521178041
 10
-88.629111173815
 20
1.908944520549818
  0
LWPOLYLINE
  5
16B
330
126
100
AcDbEntity
  8
カット1(R255G0B0)
 62
     1
420
 16711680
370
     0
100
AcDbPolyline
 90
        4
 70
     1
 43
0.0
 10
-107.5414579417054
 20
20.19233593909461
 10
-94.01849637687602
 20
16.56886930917249
 10
-97.64196300679941
 20
3.045907744344688
 10
-111.1649245716272
 20
6.66937437426681
  0
LWPOLYLINE
  5
16C
330
126
100
AcDbEntity
  8
カット1(R255G0B0)
 62
     1
420
 16711680
370
     0
100
AcDbPolyline
 90
        4
 70
     1
 43
0.0
 10
-127.4118863196724
 20
24.92144597110012
 10
-115.2875306694074
 20
17.92144597339395
 10
-122.2875306671123
 20
5.797090323129564
 10
-134.4118863173766
 20
12.79709032083445
  0
ENDBLK
  5
129
330
126
100
AcDbEntity
  8
0
100
AcDbBlockEnd
  0
BLOCK
  5
12D
330
12B
100
AcDbEntity
  8
0
100
AcDbBlockBegin
  2
Block_7
 70
     0
 10
0.0
 20
0.0
 30
0.0
  3
Block_7
  1

  0
SPLINE
  5
12F
330
12B
100
AcDbEntity
  8
カット1(R255G0B0)
 62
     5
420
      255
370
     0
100
AcDbSpline
210
0.0
220
0.0
230
1.0
 70
     8
 71
     3
 72
     8
 73
     4
 74
     0
 42
0.0000000001
 43
0.0000000001
 40
0.0
 40
0.0
 40
0.0
 40
0.0
 40
1.0
 40
1.0
 40
1.0
 40
1.0
 10
-119.097626204264
 20
-4.31043400759833
 30
0.0
 10
-119.1054049465939
 20
-4.046095674897339
 30
0.0
 10
-119.2356988804322
 20
-3.800410448781128
 30
0.0
 10
-119.4501897623674
 20
-3.64571864843327
 30
0.0
  0
SPLINE
  5
130
330
12B
100
AcDbEntity
  8
カット1(R255G0B0)
 62
     5
420
      255
370
     0
100
AcDbSpline
210
0.0
220
0.0
230
1.0
 70
     8
 71
     3
 72
    11
 73
     7
 74
     0
 42
0.0000000001
 43
0.0000000001
 40
0.0
 40
0.0
 40
0.0
 40
0.0
 40
1.0
 40
1.0
 40
1.0
 40
2.0
 40
2.0
 40
2.0
 40
2.0
 10
-138.7503607029373
 20
9.204386629246286
 30
0.0
 10
-139.1784296551662
 20
8.569288037672704
 30
0.0
 10
-139.0105913833774
 20
7.707425216944177
 30
0.0
 10
-138.3754927918038
 20
7.279366186579198
 30
0.0
 10
-138.3739449808324
 20
7.278334312598874
 30
0.0
 10
-138.3724170135913
 20
7.277302438617907
 30
0.0
 10
-138.3708692026199
 20
7.276270564636941
 30
0.0
  0
SPLINE
  5
131
330
12B
100
AcDbEntity
  8
カット1(R255G0B0)
 62
     5
420
      255
370
     0
100
AcDbSpline
210
0.0
220
0.0
230
1.0
 70
    24
 71
     3
 72
     8
 73
     4
 74
     0
 42
0.0000000001
 43
0.0000000001
 40
0.0
 40
0.0
 40
0.0
 40
0.0
 40
1.0
 40
1.0
 40
1.0
 40
1.0
 10
-138.3688451421191
 20
7.273730567145332
 30
0.0
 10
-138.3688451421191
 20
7.273730567145332
 30
0.0
 10
-119.4484038266311
 20
-3.64571864843327
 30
0.0
 10
-119.4484038266311
 20
-3.64571864843327
 30
0.0
  0
SPLINE
  5
132
330
12B
100
AcDbEntity
  8
カット1(R255G0B0)
 62
     5
420
      255
370
     0
100
AcDbSpline
210
0.0
220
0.0
230
1.0
 70
     8
 71
     3
 72
    11
 73
     7
 74
     0
 42
0.0000000001
 43
0.0000000001
 40
0.0
 40
0.0
 40
0.0
 40
0.0
 40
1.0
 40
1.0
 40
1.0
 40
2.0
 40
2.0
 40
2.0
 40
2.0
 10
-124.4694629321096
 20
31.04022912826168
 30
0.0
 10
-125.1045615236831
 20
31.46829808049122
 30
0.0
 10
-125.9664144225471
 20
31.30045980870247
 30
0.0
 10
-126.394483374776
 20
30.66537113899473
 30
0.0
 10
-126.395515248757
 20
30.66383324988784
 30
0.0
 10
-126.3965471227379
 20
30.66229536078223
 30
0.0
 10
-126.3975789967189
 20
30.66075747167535
 30
0.0
  0
SPLINE
  5
133
330
12B
100
AcDbEntity
  8
カット1(R255G0B0)
 62
     5
420
      255
370
     0
100
AcDbSpline
210
0.0
220
0.0
230
1.0
 70
     8
 71
     3
 72
     8
 73
     4
 74
     0
 42
0.0000000001
 43
0.0000000001
 40
0.0
 40
0.0
 40
0.0
 40
0.0
 40
1.0
 40
1.0
 40
1.0
 40
1.0
 10
-110.1753790010781
 20
22.7791452559395
 30
0.0
 10
-109.9619497587227
 20
22.71470274146538
 30
0.0
 10
-109.7427162252262
 20
22.67131442494841
 30
0.0
 10
-109.520823631857
 20
22.64960538389694
 30
0.0
  0
SPLINE
  5
134
330
12B
100
AcDbEntity
  8
カット1(R255G0B0)
 62
     5
420
      255
370
     0
100
AcDbSpline
210
0.0
220
0.0
230
1.0
 70
    24
 71
     3
 72
     8
 73
     4
 74
     0
 42
0.0000000001
 43
0.0000000001
 40
0.0
 40
0.0
 40
0.0
 40
0.0
 40
1.0
 40
1.0
 40
1.0
 40
1.0
 10
-126.3952969677225
 20
30.65948747292954
 30
0.0
 10
-126.3952969677225
 20
30.65948747292954
 30
0.0
 10
-138.7498447659468
 20
9.204128660751045
 30
0.0
 10
-138.7498447659468
 20
9.204128660751045
 30
0.0
  0
SPLINE
  5
135
330
12B
100
AcDbEntity
  8
カット1(R255G0B0)
 62
     5
420
      255
370
     0
100
AcDbSpline
210
0.0
220
0.0
230
1.0
 70
    24
 71
     3
 72
     8
 73
     4
 74
     0
 42
0.0000000001
 43
0.0000000001
 40
0.0
 40
0.0
 40
0.0
 40
0.0
 40
1.0
 40
1.0
 40
1.0
 40
1.0
 10
-110.1748729859519
 20
22.77787525719434
 30
0.0
 10
-110.1748729859519
 20
22.77787525719434
 30
0.0
 10
-124.4674388716078
 20
31.03794709926595
 30
0.0
 10
-124.4674388716078
 20
31.03794709926595
 30
0.0
  0
SPLINE
  5
136
330
12B
100
AcDbEntity
  8
カット1(R255G0B0)
 62
     5
420
      255
370
     0
100
AcDbSpline
210
0.0
220
0.0
230
1.0
 70
    24
 71
     3
 72
     8
 73
     4
 74
     0
 42
0.0000000001
 43
0.0000000001
 40
0.0
 40
0.0
 40
0.0
 40
0.0
 40
1.0
 40
1.0
 40
1.0
 40
1.0
 10
-72.84960984653404
 20
17.87822009755554
 30
0.0
 10
-72.84960984653404
 20
17.87822009755554
 30
0.0
 10
-109.5195536331106
 20
22.64833538515114
 30
0.0
 10
-109.5195536331106
 20
22.64833538515114
 30
0.0
  0
SPLINE
  5
137
330
12B
100
AcDbEntity
  8
カット1(R255G0B0)
 62
     5
420
      255
370
     0
100
AcDbSpline
210
0.0
220
0.0
230
1.0
 70
     8
 71
     3
 72
     8
 73
     4
 74
     0
 42
0.0000000001
 43
0.0000000001
 40
0.0
 40
0.0
 40
0.0
 40
0.0
 40
1.0
 40
1.0
 40
1.0
 40
1.0
 10
-72.49680816368918
 20
17.73293422542522
 30
0.0
 10
-72.59059955544438
 20
17.82664624224918
 30
0.0
 10
-72.71777802360104
 20
17.87927181527269
 30
0.0
 10
-72.8503738301552
 20
17.87923212780611
 30
0.0
  0
SPLINE
  5
138
330
12B
100
AcDbEntity
  8
カット1(R255G0B0)
 62
     5
420
      255
370
     0
100
AcDbSpline
210
0.0
220
0.0
230
1.0
 70
    24
 71
     3
 72
     8
 73
     4
 74
     0
 42
0.0000000001
 43
0.0000000001
 40
0.0
 40
0.0
 40
0.0
 40
0.0
 40
1.0
 40
1.0
 40
1.0
 40
1.0
 10
-61.95302060687481
 20
3.27323452129127
 30
0.0
 10
-61.95302060687481
 20
3.27323452129127
 30
0.0
 10
-72.49655019519329
 20
17.73090024305825
 30
0.0
 10
-72.49655019519329
 20
17.73090024305825
 30
0.0
  0
SPLINE
  5
139
330
12B
100
AcDbEntity
  8
カット1(R255G0B0)
 62
     5
420
      255
370
     0
100
AcDbSpline
210
0.0
220
0.0
230
1.0
 70
    24
 71
     3
 72
     8
 73
     4
 74
     0
 42
0.0000000001
 43
0.0000000001
 40
0.0
 40
0.0
 40
0.0
 40
0.0
 40
1.0
 40
1.0
 40
1.0
 40
1.0
 10
-119.0978841704892
 20
-54.87238805919216
 30
0.0
 10
-119.0978841704892
 20
-54.87238805919216
 30
0.0
 10
-119.0953441752673
 20
-4.311197991219495
 30
0.0
 10
-119.0953441752673
 20
-4.311197991219495
 30
0.0
  0
SPLINE
  5
13A
330
12B
100
AcDbEntity
  8
カット1(R255G0B0)
 62
     5
420
      255
370
     0
100
AcDbSpline
210
0.0
220
0.0
230
1.0
 70
     8
 71
     3
 72
     8
 73
     4
 74
     0
 42
0.0000000001
 43
0.0000000001
 40
0.0
 40
0.0
 40
0.0
 40
0.0
 40
1.0
 40
1.0
 40
1.0
 40
1.0
 10
-119.1001661994856
 20
-54.87061204532107
 30
0.0
 10
-119.1002257306646
 20
-55.14674747574677
 30
0.0
 10
-118.8764479828978
 20
-55.37065916867326
 30
0.0
 10
-118.6003026306069
 20
-55.3707335826504
 30
0.0
  0
SPLINE
  5
13B
330
12B
100
AcDbEntity
  8
カット1(R255G0B0)
 62
     5
420
      255
370
     0
100
AcDbSpline
210
0.0
220
0.0
230
1.0
 70
     8
 71
     3
 72
     8
 73
     4
 74
     0
 42
0.0000000001
 43
0.0000000001
 40
0.0
 40
0.0
 40
0.0
 40
0.0
 40
1.0
 40
1.0
 40
1.0
 40
1.0
 10
-61.95378459049567
 20
3.275774518782879
 30
0.0
 10
-61.86003288620127
 20
3.181963283306897
 30
0.0
 10
-61.73284449618004
 20
3.129248413495937
 30
0.0
 10
-61.60021892402931
 20
3.129218647907391
 30
0.0
  0
SPLINE
  5
13C
330
12B
100
AcDbEntity
  8
カット1(R255G0B0)
 62
     5
420
      255
370
     0
100
AcDbSpline
210
0.0
220
0.0
230
1.0
 70
     8
 71
     3
 72
    11
 73
     7
 74
     0
 42
0.0000000001
 43
0.0000000001
 40
0.0
 40
0.0
 40
0.0
 40
0.0
 40
1.0
 40
1.0
 40
1.0
 40
2.0
 40
2.0
 40
2.0
 40
2.0
 10
-6.10025178022906
 20
2.629345159676723
 30
0.0
 10
-6.100321233297663
 20
2.905490511967617
 30
0.0
 10
-6.324232926244687
 20
3.12928810344461
 30
0.0
 10
-6.600373317603302
 20
3.129218650376648
 30
0.0
 10
-6.600378278535582
 20
3.129218650376648
 30
0.0
 10
-6.600378278535582
 20
3.129218650376648
 30
0.0
 10
-6.600378278535582
 20
3.129218650376648
 30
0.0
  0
SPLINE
  5
13D
330
12B
100
AcDbEntity
  8
カット1(R255G0B0)
 62
     5
420
      255
370
     0
100
AcDbSpline
210
0.0
220
0.0
230
1.0
 70
     8
 71
     3
 72
    11
 73
     7
 74
     0
 42
0.0000000001
 43
0.0000000001
 40
0.0
 40
0.0
 40
0.0
 40
0.0
 40
1.0
 40
1.0
 40
1.0
 40
2.0
 40
2.0
 40
2.0
 40
2.0
 10
-6.600378276010175
 20
-53.12055376855148
 30
0.0
 10
-6.324237884652203
 20
-53.1206232215957
 30
0.0
 10
-6.10032123079247
 20
-52.89682563009817
 30
0.0
 10
-6.100251777748572
 20
-52.6206852387402
 30
0.0
 10
-6.100251777748572
 20
-52.62068027780728
 30
0.0
 10
-6.100251777748572
 20
-52.62068027780728
 30
0.0
 10
-6.100251777748572
 20
-52.62068027780728
 30
0.0
  0
SPLINE
  5
13E
330
12B
100
AcDbEntity
  8
カット1(R255G0B0)
 62
     5
420
      255
370
     0
100
AcDbSpline
210
0.0
220
0.0
230
1.0
 70
     8
 71
     3
 72
    11
 73
     7
 74
     0
 42
0.0000000001
 43
0.0000000001
 40
0.0
 40
0.0
 40
0.0
 40
0.0
 40
1.0
 40
1.0
 40
1.0
 40
2.0
 40
2.0
 40
2.0
 40
2.0
 10
-43.60026872871996
 20
-53.12055377021284
 30
0.0
 10
-43.87641408101085
 20
-53.12048431716862
 30
0.0
 10
-44.10032081300538
 20
-53.34428686959906
 30
0.0
 10
-44.10039026604896
 20
-53.62042726095705
 30
0.0
 10
-44.10039026604896
 20
-53.62051159681158
 30
0.0
 10
-44.10039026604896
 20
-53.62059097173318
 30
0.0
 10
-44.10039026604896
 20
-53.62067530758772
 30
0.0
  0
SPLINE
  5
13F
330
12B
100
AcDbEntity
  8
カット1(R255G0B0)
 62
     5
420
      255
370
     0
100
AcDbSpline
210
0.0
220
0.0
230
1.0
 70
     8
 71
     3
 72
     8
 73
     4
 74
     0
 42
0.0000000001
 43
0.0000000001
 40
0.0
 40
0.0
 40
0.0
 40
0.0
 40
1.0
 40
1.0
 40
1.0
 40
1.0
 10
-44.60026375658012
 20
-57.87060208713004
 30
0.0
 10
-44.32421762294124
 20
-57.87053263406015
 30
0.0
 10
-44.10045971892506
 20
-57.64677473002407
 30
0.0
 10
-44.10039026588083
 20
-57.37072859638519
 30
0.0
  0
SPLINE
  5
140
330
12B
100
AcDbEntity
  8
カット1(R255G0B0)
 62
     5
420
      255
370
     0
100
AcDbSpline
210
0.0
220
0.0
230
1.0
 70
     8
 71
     3
 72
    11
 73
     7
 74
     0
 42
0.0000000001
 43
0.0000000001
 40
0.0
 40
0.0
 40
0.0
 40
0.0
 40
1.0
 40
1.0
 40
1.0
 40
2.0
 40
2.0
 40
2.0
 40
2.0
 10
-62.60021394936503
 20
-57.87060208793794
 30
0.0
 10
-62.87635930165592
 20
-57.87053263489307
 30
0.0
 10
-63.10026603364949
 20
-58.09433518732352
 30
0.0
 10
-63.10033548669467
 20
-58.37047557868149
 30
0.0
 10
-63.10033548669467
 20
-58.37055991453603
 30
0.0
 10
-63.10033548669467
 20
-58.37064425039057
 30
0.0
 10
-63.10033548669467
 20
-58.3707285862451
 30
0.0
  0
SPLINE
  5
141
330
12B
100
AcDbEntity
  8
カット1(R255G0B0)
 62
     5
420
      255
370
     0
100
AcDbSpline
210
0.0
220
0.0
230
1.0
 70
     8
 71
     3
 72
    11
 73
     7
 74
     0
 42
0.0000000001
 43
0.0000000001
 40
0.0
 40
0.0
 40
0.0
 40
0.0
 40
1.0
 40
1.0
 40
1.0
 40
2.0
 40
2.0
 40
2.0
 40
2.0
 10
-63.60020897733717
 20
-60.1207868579857
 30
0.0
 10
-63.32406362504627
 20
-60.12071740491709
 30
0.0
 10
-63.10026603356863
 20
-59.89680571197007
 30
0.0
 10
-63.10033548663852
 20
-59.62066532061146
 30
0.0
 10
-63.10033548663852
 20
-59.62066035967918
 30
0.0
 10
-63.10033548663852
 20
-59.62066035967918
 30
0.0
 10
-63.10033548663852
 20
-59.62066035967918
 30
0.0
  0
SPLINE
  5
142
330
12B
100
AcDbEntity
  8
カット1(R255G0B0)
 62
     5
420
      255
370
     0
100
AcDbSpline
210
0.0
220
0.0
230
1.0
 70
     8
 71
     3
 72
    11
 73
     7
 74
     0
 42
0.0000000001
 43
0.0000000001
 40
0.0
 40
0.0
 40
0.0
 40
0.0
 40
1.0
 40
1.0
 40
1.0
 40
2.0
 40
2.0
 40
2.0
 40
2.0
 10
-81.10028567942279
 20
-59.62066036048708
 30
0.0
 10
-81.10035513246574
 20
-59.89680075184505
 30
0.0
 10
-80.87655754096884
 20
-60.1207174057051
 30
0.0
 10
-80.60041218867795
 20
-60.12078685874868
 30
0.0
 10
-80.60041218867795
 20
-60.12078685874868
 30
0.0
 10
-80.60041218867795
 20
-60.12078685874868
 30
0.0
 10
-80.60041218867795
 20
-60.12078685874868
 30
0.0
  0
SPLINE
  5
143
330
12B
100
AcDbEntity
  8
カット1(R255G0B0)
 62
     5
420
      255
370
     0
100
AcDbSpline
210
0.0
220
0.0
230
1.0
 70
     8
 71
     3
 72
    11
 73
     7
 74
     0
 42
0.0000000001
 43
0.0000000001
 40
0.0
 40
0.0
 40
0.0
 40
0.0
 40
1.0
 40
1.0
 40
1.0
 40
2.0
 40
2.0
 40
2.0
 40
2.0
 10
-81.10028567947862
 20
-58.370728587053
 30
0.0
 10
-81.10021622643376
 20
-58.09458819569375
 30
0.0
 10
-81.32401381793128
 20
-57.87067154183433
 30
0.0
 10
-81.60015917022219
 20
-57.87060208879076
 30
0.0
 10
-81.60023854514379
 20
-57.87060208879076
 30
0.0
 10
-81.60032784193125
 20
-57.87060208879076
 30
0.0
 10
-81.60040721685287
 20
-57.87060208879076
 30
0.0
  0
SPLINE
  5
144
330
12B
100
AcDbEntity
  8
カット1(R255G0B0)
 62
     5
420
      255
370
     0
100
AcDbSpline
210
0.0
220
0.0
230
1.0
 70
     8
 71
     3
 72
     8
 73
     4
 74
     0
 42
0.0000000001
 43
0.0000000001
 40
0.0
 40
0.0
 40
0.0
 40
0.0
 40
1.0
 40
1.0
 40
1.0
 40
1.0
 10
-100.1002309003807
 20
-57.37072859889937
 30
0.0
 10
-100.1001614473127
 20
-57.64677473253825
 30
0.0
 10
-99.87640354327602
 20
-57.87053263655444
 30
0.0
 10
-99.60035740963714
 20
-57.87060208959929
 30
0.0
  0
SPLINE
  5
145
330
12B
100
AcDbEntity
  8
カット1(R255G0B0)
 62
     5
420
      255
370
     0
100
AcDbSpline
210
0.0
220
0.0
230
1.0
 70
     8
 71
     3
 72
     8
 73
     4
 74
     0
 42
0.0000000001
 43
0.0000000001
 40
0.0
 40
0.0
 40
0.0
 40
0.0
 40
1.0
 40
1.0
 40
1.0
 40
1.0
 10
-100.100230900448
 20
-55.87060707254178
 30
0.0
 10
-100.1003003535173
 20
-55.59446668118381
 30
0.0
 10
-100.3242070855314
 20
-55.37066412877326
 30
0.0
 10
-100.6003524378223
 20
-55.3707335818425
 30
0.0
  0
SPLINE
  5
146
330
12B
100
AcDbEntity
  8
カット1(R255G0B0)
 62
     5
420
      255
370
     0
100
AcDbSpline
210
0.0
220
0.0
230
1.0
 70
    24
 71
     3
 72
     8
 73
     4
 74
     0
 42
0.0000000001
 43
0.0000000001
 40
0.0
 40
0.0
 40
0.0
 40
0.0
 40
1.0
 40
1.0
 40
1.0
 40
1.0
 10
-61.59996095553439
 20
3.128454664285584
 30
0.0
 10
-61.59996095553439
 20
3.128454664285584
 30
0.0
 10
-6.598855272227457
 20
3.128454666755484
 30
0.0
 10
-6.598855272227457
 20
3.128454666755484
 30
0.0
  0
SPLINE
  5
147
330
12B
100
AcDbEntity
  8
カット1(R255G0B0)
 62
     5
420
      255
370
     0
100
AcDbSpline
210
0.0
220
0.0
230
1.0
 70
    24
 71
     3
 72
     8
 73
     4
 74
     0
 42
0.0000000001
 43
0.0000000001
 40
0.0
 40
0.0
 40
0.0
 40
0.0
 40
1.0
 40
1.0
 40
1.0
 40
1.0
 10
-6.098475763877164
 20
-52.62195027655309
 30
0.0
 10
-6.098475763877164
 20
-52.62195027655309
 30
0.0
 10
-6.098475766357973
 20
2.628075160930919
 30
0.0
 10
-6.098475766357973
 20
2.628075160930919
 30
0.0
  0
SPLINE
  5
148
330
12B
100
AcDbEntity
  8
カット1(R255G0B0)
 62
     5
420
      255
370
     0
100
AcDbSpline
210
0.0
220
0.0
230
1.0
 70
    24
 71
     3
 72
     8
 73
     4
 74
     0
 42
0.0000000001
 43
0.0000000001
 40
0.0
 40
0.0
 40
0.0
 40
0.0
 40
1.0
 40
1.0
 40
1.0
 40
1.0
 10
-43.59899872997384
 20
-53.12232978408328
 30
0.0
 10
-43.59899872997384
 20
-53.12232978408328
 30
0.0
 10
-6.598855269701729
 20
-53.12232978242256
 30
0.0
 10
-6.598855269701729
 20
-53.12232978242256
 30
0.0
  0
SPLINE
  5
149
330
12B
100
AcDbEntity
  8
カット1(R255G0B0)
 62
     5
420
      255
370
     0
100
AcDbSpline
210
0.0
220
0.0
230
1.0
 70
    24
 71
     3
 72
     8
 73
     4
 74
     0
 42
0.0000000001
 43
0.0000000001
 40
0.0
 40
0.0
 40
0.0
 40
0.0
 40
1.0
 40
1.0
 40
1.0
 40
1.0
 10
-44.09937823563027
 20
-57.37174558756803
 30
0.0
 10
-44.09937823563027
 20
-57.37174558756803
 30
0.0
 10
-44.0993782357984
 20
-53.62270928995276
 30
0.0
 10
-44.0993782357984
 20
-53.62270928995276
 30
0.0
  0
SPLINE
  5
14A
330
12B
100
AcDbEntity
  8
カット1(R255G0B0)
 62
     5
420
      255
370
     0
100
AcDbSpline
210
0.0
220
0.0
230
1.0
 70
    24
 71
     3
 72
     8
 73
     4
 74
     0
 42
0.0000000001
 43
0.0000000001
 40
0.0
 40
0.0
 40
0.0
 40
0.0
 40
1.0
 40
1.0
 40
1.0
 40
1.0
 10
-62.59817996699806
 20
-57.87212509424605
 30
0.0
 10
-62.59817996699806
 20
-57.87212509424605
 30
0.0
 10
-44.59975774145483
 20
-57.87212509343752
 30
0.0
 10
-44.59975774145483
 20
-57.87212509343752
 30
0.0
  0
SPLINE
  5
14B
330
12B
100
AcDbEntity
  8
カット1(R255G0B0)
 62
     5
420
      255
370
     0
100
AcDbSpline
210
0.0
220
0.0
230
1.0
 70
    24
 71
     3
 72
     8
 73
     4
 74
     0
 42
0.0000000001
 43
0.0000000001
 40
0.0
 40
0.0
 40
0.0
 40
0.0
 40
1.0
 40
1.0
 40
1.0
 40
1.0
 10
-63.09855947276616
 20
-59.62218336598731
 30
0.0
 10
-63.09855947276616
 20
-59.62218336598731
 30
0.0
 10
-63.09855947282263
 20
-58.37250460011555
 30
0.0
 10
-63.09855947282263
 20
-58.37250460011555
 30
0.0
  0
SPLINE
  5
14C
330
12B
100
AcDbEntity
  8
カット1(R255G0B0)
 62
     5
420
      255
370
     0
100
AcDbSpline
210
0.0
220
0.0
230
1.0
 70
    24
 71
     3
 72
     8
 73
     4
 74
     0
 42
0.0000000001
 43
0.0000000001
 40
0.0
 40
0.0
 40
0.0
 40
0.0
 40
1.0
 40
1.0
 40
1.0
 40
1.0
 10
-80.59914218993149
 20
-60.12256287261976
 30
0.0
 10
-80.59914218993149
 20
-60.12256287261976
 30
0.0
 10
-63.59893897859072
 20
-60.12256287185678
 30
0.0
 10
-63.59893897859072
 20
-60.12256287185678
 30
0.0
  0
SPLINE
  5
14D
330
12B
100
AcDbEntity
  8
カット1(R255G0B0)
 62
     5
420
      255
370
     0
100
AcDbSpline
210
0.0
220
0.0
230
1.0
 70
    24
 71
     3
 72
     8
 73
     4
 74
     0
 42
0.0000000001
 43
0.0000000001
 40
0.0
 40
0.0
 40
0.0
 40
0.0
 40
1.0
 40
1.0
 40
1.0
 40
1.0
 10
-81.09952169585746
 20
-58.37250460092344
 30
0.0
 10
-81.09952169585746
 20
-58.37250460092344
 30
0.0
 10
-81.09952169580099
 20
-59.62218336679519
 30
0.0
 10
-81.09952169580099
 20
-59.62218336679519
 30
0.0
  0
SPLINE
  5
14E
330
12B
100
AcDbEntity
  8
カット1(R255G0B0)
 62
     5
420
      255
370
     0
100
AcDbSpline
210
0.0
220
0.0
230
1.0
 70
    24
 71
     3
 72
     8
 73
     4
 74
     0
 42
0.0000000001
 43
0.0000000001
 40
0.0
 40
0.0
 40
0.0
 40
0.0
 40
1.0
 40
1.0
 40
1.0
 40
1.0
 10
-99.59832342727017
 20
-57.87212509590678
 30
0.0
 10
-99.59832342727017
 20
-57.87212509590678
 30
0.0
 10
-81.59990120172693
 20
-57.87212509509888
 30
0.0
 10
-81.59990120172693
 20
-57.87212509509888
 30
0.0
  0
SPLINE
  5
14F
330
12B
100
AcDbEntity
  8
カット1(R255G0B0)
 62
     5
420
      255
370
     0
100
AcDbSpline
210
0.0
220
0.0
230
1.0
 70
    24
 71
     3
 72
     8
 73
     4
 74
     0
 42
0.0000000001
 43
0.0000000001
 40
0.0
 40
0.0
 40
0.0
 40
0.0
 40
1.0
 40
1.0
 40
1.0
 40
1.0
 10
-100.098702933207
 20
-55.87314707003275
 30
0.0
 10
-100.098702933207
 20
-55.87314707003275
 30
0.0
 10
-100.0987029331396
 20
-57.37174559008221
 30
0.0
 10
-100.0987029331396
 20
-57.37174559008221
 30
0.0
  0
SPLINE
  5
150
330
12B
100
AcDbEntity
  8
カット1(R255G0B0)
 62
     5
420
      255
370
     0
100
AcDbSpline
210
0.0
220
0.0
230
1.0
 70
    24
 71
     3
 72
     8
 73
     4
 74
     0
 42
0.0000000001
 43
0.0000000001
 40
0.0
 40
0.0
 40
0.0
 40
0.0
 40
1.0
 40
1.0
 40
1.0
 40
1.0
 10
-118.6000446621116
 20
-55.37276756501672
 30
0.0
 10
-118.6000446621116
 20
-55.37276756501672
 30
0.0
 10
-100.5990824390765
 20
-55.37276756420818
 30
0.0
 10
-100.5990824390765
 20
-55.37276756420818
 30
0.0
  0
ENDBLK
  5
12E
330
12B
100
AcDbEntity
  8
0
100
AcDbBlockEnd
  0
ENDSEC
  0
SECTION
  2
ENTITIES
  0
MTEXT
  5
79
330
70
100
AcDbEntity
  8
彫刻パス
100
AcDbMText
 10
-119.0952929728846
 20
56.75221391954472
 30
0.0
 40
0.2
 41
0.0
 46
0.0
 71
     7
 72
     1
  1
\C18;\c0;\FCopperplate Gothic Light|b0|i0|c1;\H11.988800;\W1.000000;Strength
 73
     1
 44
1.0
  0
MTEXT
  5
7A
330
70
100
AcDbEntity
  8
彫刻パス
100
AcDbMText
 10
28.36680856631325
 20
56.22767794580908
 30
0.0
 40
0.2
 41
0.0
 46
0.0
 71
     7
 72
     1
  1
\C18;\c0;\FCopperplate Gothic Light|b0|i0|c1;\H11.988800;\W1.000000;Humility
 73
     1
 44
1.0
  0
INSERT
  5
7E
330
70
100
AcDbEntity
  8
カット1(R255G0B0)
100
AcDbBlockReference
  2
Block_0
 10
0.0
 20
0.0
 30
0.0
  0
INSERT
  5
AF
330
70
100
AcDbEntity
  8
カット1(R255G0B0)
100
AcDbBlockReference
  2
Block_2
 10
0.0
 20
0.0
 30
0.0
  0
INSERT
  5
F6
330
70
100
AcDbEntity
  8
カット1(R255G0B0)
100
AcDbBlockReference
  2
Block_4
 10
0.0
 20
0.0
 30
0.0
  0
INSERT
  5
127
330
70
100
AcDbEntity
  8
カット1(R255G0B0)
100
AcDbBlockReference
  2
Block_6
 10
0.0
 20
0.0
 30
0.0
  0
ENDSEC
  0
SECTION
  2
OBJECTS
  0
DICTIONARY
  5
C
330
0
100
AcDbDictionary
281
     1
  3
ACAD_COLOR
350
63
  3
ACAD_DETAILVIEWSTYLE
350
6A
  3
ACAD_GROUP
350
D
  3
ACAD_LAYOUT
350
62
  3
ACAD_MATERIAL
350
10
  3
ACAD_MLEADERSTYLE
350
66
  3
ACAD_MLINESTYLE
350
5F
  3
ACAD_PLOTSETTINGS
350
61
  3
ACAD_PLOTSTYLENAME
350
E
  3
ACAD_SCALELIST
350
42
  3
ACAD_SECTIONVIEWSTYLE
350
68
  3
ACAD_TABLESTYLE
350
64
  3
ACAD_VISUALSTYLE
350
29
  3
ACDB_RECOMPOSE_DATA
350
175
  3
AcDbVariableDictionary
350
16D
  0
DICTIONARY
  5
63
102
{ACAD_REACTORS
330
C
102
}
330
C
100
AcDbDictionary
281
     1
  0
DICTIONARY
  5
6A
102
{ACAD_REACTORS
330
C
102
}
330
C
100
AcDbDictionary
281
     1
  3
Imperial24
350
6B
  0
DICTIONARY
  5
D
102
{ACAD_REACTORS
330
C
102
}
330
C
100
AcDbDictionary
281
     1
  0
DICTIONARY
  5
62
102
{ACAD_REACTORS
330
C
102
}
330
C
100
AcDbDictionary
281
     1
  3
Layout1
350
6F
  3
Layout2
350
77
  3
Model
350
73
  0
DICTIONARY
  5
10
102
{ACAD_REACTORS
330
C
102
}
330
C
100
AcDbDictionary
281
     1
  3
ByBlock
350
19
  3
ByLayer
350
11
  3
Global
350
21
  0
DICTIONARY
  5
66
102
{ACAD_REACTORS
330
C
102
}
330
C
100
AcDbDictionary
281
     1
  3
Standard
350
67
  0
DICTIONARY
  5
5F
102
{ACAD_REACTORS
330
C
102
}
330
C
100
AcDbDictionary
281
     1
  3
Standard
350
60
  0
DICTIONARY
  5
61
102
{ACAD_REACTORS
330
C
102
}
330
C
100
AcDbDictionary
281
     1
  0
ACDBDICTIONARYWDFLT
  5
E
102
{ACAD_REACTORS
330
C
102
}
330
C
100
AcDbDictionary
281
     1
  3
Normal
350
F
100
AcDbDictionaryWithDefault
340
F
  0
DICTIONARY
  5
42
102
{ACAD_REACTORS
330
C
102
}
330
C
100
AcDbDictionary
281
     1
  3
A0
350
43
  3
A1
350
44
  3
A2
350
45
  3
A3
350
46
  3
A4
350
47
  3
A5
350
48
  3
A6
350
49
  3
A7
350
4A
  3
A8
350
4B
  3
A9
350
4C
  3
B0
350
4D
  3
B1
350
4E
  3
B2
350
4F
  3
B3
350
50
  3
B4
350
51
  3
B5
350
52
  3
B6
350
53
  0
DICTIONARY
  5
68
102
{ACAD_REACTORS
330
C
102
}
330
C
100
AcDbDictionary
281
     1
  3
Imperial24
350
69
  0
DICTIONARY
  5
64
102
{ACAD_REACTORS
330
C
102
}
330
C
100
AcDbDictionary
281
     1
  3
Standard
350
65
  0
DICTIONARY
  5
29
102
{ACAD_REACTORS
330
C
102
}
330
C
100
AcDbDictionary
281
     1
  3
2dWireframe
350
2F
  3
Basic
350
2E
  3
Brighten
350
35
  3
ColorChange
350
39
  3
Conceptual
350
32
  3
Dim
350
34
  3
EdgeColorOff
350
41
  3
Facepattern
350
38
  3
Flat
350
2A
  3
FlatWithEdges
350
2B
  3
Gouraud
350
2C
  3
GouraudWithEdges
350
2D
  3
Hidden
350
31
  3
JitterOff
350
3F
  3
Linepattern
350
37
  3
OverhangOff
350
40
  3
Realistic
350
33
  3
Shaded
350
3E
  3
Shaded with edges
350
3D
  3
Shades of Gray
350
3A
  3
Sketchy
350
3B
  3
Thicken
350
36
  3
Wireframe
350
30
  3
X-Ray
350
3C
  0
XRECORD
  5
175
102
{ACAD_REACTORS
330
C
102
}
330
C
100
AcDbXrecord
280
     1
 90
        1
330
65
  0
DICTIONARY
  5
16D
102
{ACAD_REACTORS
330
C
102
}
330
C
100
AcDbDictionary
281
     1
  3
CANNOSCALE
350
172
  3
CMLEADERSTYLE
350
16F
  3
CTABLESTYLE
350
16E
  3
CVIEWDETAILSTYLE
350
170
  3
CVIEWSECTIONSTYLE
350
171
  0
ACDBDETAILVIEWSTYLE
  5
6B
102
{ACAD_REACTORS
330
6A
102
}
330
6A
100
AcDbModelDocViewStyle
 70
     0
  3
Imperial24
290
     1
300
Imperial24
 90
        0
100
AcDbDetailViewStyle
 70
     0
 71
     0
 90
        3
 71
     1
340
55
 62
   256
 40
0.24
340
0
 62
   256
 40
0.24
300

 40
0.36
280
     3
 71
     2
340
5D
 90
       25
 62
   256
 71
     3
340
55
 62
   256
 40
0.24
 90
        1
 40
0.75
 90
        1
300
%<\AcVar ViewType \f "%tc1">% %<\AcVar ViewDetailId>%\PSCALE %<\AcVar ViewScale \f "%sn">%
 71
     4
340
5D
 90
       25
 62
   256
340
5D
 90
       25
 62
   256
280
     0
  0
LAYOUT
  5
6F
102
{ACAD_REACTORS
330
62
102
}
330
62
100
AcDbPlotSettings
  1

  2

  4

  6

 40
0.0
 41
0.0
 42
0.0
 43
0.0
 44
0.0
 45
0.0
 46
0.0
 47
0.0
 48
0.0
 49
0.0
140
0.0
141
0.0
142
1.0
143
1.0
 70
   688
 72
     0
 73
     0
 74
     5
  7

 75
    16
147
1.0
 76
     0
 77
     2
 78
   300
148
0.0
149
0.0
100
AcDbLayout
  1
Layout1
 70
     1
 71
     1
 10
0.0
 20
0.0
 11
12.0
 21
9.0
 12
0.0
 22
0.0
 32
0.0
 14
0.0
 24
0.0
 34
0.0
 15
0.0
 25
0.0
 35
0.0
146
0.0
 13
0.0
 23
0.0
 33
0.0
 16
1.0
 26
0.0
 36
0.0
 17
0.0
 27
1.0
 37
0.0
 76
     0
330
6C
  0
LAYOUT
  5
77
102
{ACAD_REACTORS
330
62
102
}
330
62
100
AcDbPlotSettings
  1

  2

  4

  6

 40
0.0
 41
0.0
 42
0.0
 43
0.0
 44
0.0
 45
0.0
 46
0.0
 47
0.0
 48
0.0
 49
0.0
140
0.0
141
0.0
142
1.0
143
1.0
 70
   688
 72
     0
 73
     0
 74
     5
  7

 75
    16
147
1.0
 76
     0
 77
     2
 78
   300
148
0.0
149
0.0
100
AcDbLayout
  1
Layout2
 70
     1
 71
     2
 10
0.0
 20
0.0
 11
12.0
 21
9.0
 12
0.0
 22
0.0
 32
0.0
 14
0.0
 24
0.0
 34
0.0
 15
0.0
 25
0.0
 35
0.0
146
0.0
 13
0.0
 23
0.0
 33
0.0
 16
1.0
 26
0.0
 36
0.0
 17
0.0
 27
1.0
 37
0.0
 76
     0
330
74
  0
LAYOUT
  5
73
102
{ACAD_REACTORS
330
62
102
}
330
62
100
AcDbPlotSettings
  1

  2

  4

  6

 40
0.0
 41
0.0
 42
0.0
 43
0.0
 44
0.0
 45
0.0
 46
0.0
 47
0.0
 48
0.0
 49
0.0
140
0.0
141
0.0
142
1.0
143
1.0
 70
  1712
 72
     0
 73
     0
 74
     0
  7

 75
     0
147
1.0
 76
     0
 77
     2
 78
   300
148
0.0
149
0.0
100
AcDbLayout
  1
Model
 70
     1
 71
     0
 10
0.0
 20
0.0
 11
12.0
 21
9.0
 12
0.0
 22
0.0
 32
0.0
 14
0.0
 24
0.0
 34
0.0
 15
0.0
 25
0.0
 35
0.0
146
0.0
 13
0.0
 23
0.0
 33
0.0
 16
1.0
 26
0.0
 36
0.0
 17
0.0
 27
1.0
 37
0.0
 76
     0
330
70
  0
MATERIAL
  5
19
102
{ACAD_XDICTIONARY
360
1A
102
}
102
{ACAD_REACTORS
330
10
102
}
330
10
100
AcDbMaterial
  1
ByBlock
 72
     0
 43
0.0208333333333333
 43
0.0
 43
0.0
 43
0.0
 43
0.0
 43
0.0208333333333333
 43
0.0
 43
0.0
 43
0.0
 43
0.0
 43
1.0
 43
0.0
 43
0.0
 43
0.0
 43
0.0
 43
1.0
 77
     0
 47
0.0208333333333333
 47
0.0
 47
0.0
 47
0.0
 47
0.0
 47
0.0208333333333333
 47
0.0
 47
0.0
 47
0.0
 47
0.0
 47
1.0
 47
0.0
 47
0.0
 47
0.0
 47
0.0
 47
1.0
171
     0
 49
0.0208333333333333
 49
0.0
 49
0.0
 49
0.0
 49
0.0
 49
0.0208333333333333
 49
0.0
 49
0.0
 49
0.0
 49
0.0
 49
1.0
 49
0.0
 49
0.0
 49
0.0
 49
0.0
 49
1.0
175
     0
142
0.0208333333333333
142
0.0
142
0.0
142
0.0
142
0.0
142
0.0208333333333333
142
0.0
142
0.0
142
0.0
142
0.0
142
1.0
142
0.0
142
0.0
142
0.0
142
0.0
142
1.0
179
     0
144
0.0208333333333333
144
0.0
144
0.0
144
0.0
144
0.0
144
0.0208333333333333
144
0.0
144
0.0
144
0.0
144
0.0
144
1.0
144
0.0
144
0.0
144
0.0
144
0.0
144
1.0
147
0.0208333333333333
147
0.0
147
0.0
147
0.0
147
0.0
147
0.0208333333333333
147
0.0
147
0.0
147
0.0
147
0.0
147
1.0
147
0.0
147
0.0
147
0.0
147
0.0
147
1.0
  0
MATERIAL
  5
11
102
{ACAD_XDICTIONARY
360
12
102
}
102
{ACAD_REACTORS
330
10
102
}
330
10
100
AcDbMaterial
  1
ByLayer
 72
     0
 43
0.0208333333333333
 43
0.0
 43
0.0
 43
0.0
 43
0.0
 43
0.0208333333333333
 43
0.0
 43
0.0
 43
0.0
 43
0.0
 43
1.0
 43
0.0
 43
0.0
 43
0.0
 43
0.0
 43
1.0
 77
     0
 47
0.0208333333333333
 47
0.0
 47
0.0
 47
0.0
 47
0.0
 47
0.0208333333333333
 47
0.0
 47
0.0
 47
0.0
 47
0.0
 47
1.0
 47
0.0
 47
0.0
 47
0.0
 47
0.0
 47
1.0
171
     0
 49
0.0208333333333333
 49
0.0
 49
0.0
 49
0.0
 49
0.0
 49
0.0208333333333333
 49
0.0
 49
0.0
 49
0.0
 49
0.0
 49
1.0
 49
0.0
 49
0.0
 49
0.0
 49
0.0
 49
1.0
175
     0
142
0.0208333333333333
142
0.0
142
0.0
142
0.0
142
0.0
142
0.0208333333333333
142
0.0
142
0.0
142
0.0
142
0.0
142
1.0
142
0.0
142
0.0
142
0.0
142
0.0
142
1.0
179
     0
144
0.0208333333333333
144
0.0
144
0.0
144
0.0
144
0.0
144
0.0208333333333333
144
0.0
144
0.0
144
0.0
144
0.0
144
1.0
144
0.0
144
0.0
144
0.0
144
0.0
144
1.0
147
0.0208333333333333
147
0.0
147
0.0
147
0.0
147
0.0
147
0.0208333333333333
147
0.0
147
0.0
147
0.0
147
0.0
147
1.0
147
0.0
147
0.0
147
0.0
147
0.0
147
1.0
  0
MATERIAL
  5
21
102
{ACAD_XDICTIONARY
360
22
102
}
102
{ACAD_REACTORS
330
10
102
}
330
10
100
AcDbMaterial
  1
Global
 72
     0
 43
0.0208333333333333
 43
0.0
 43
0.0
 43
0.0
 43
0.0
 43
0.0208333333333333
 43
0.0
 43
0.0
 43
0.0
 43
0.0
 43
1.0
 43
0.0
 43
0.0
 43
0.0
 43
0.0
 43
1.0
 77
     0
 47
0.0208333333333333
 47
0.0
 47
0.0
 47
0.0
 47
0.0
 47
0.0208333333333333
 47
0.0
 47
0.0
 47
0.0
 47
0.0
 47
1.0
 47
0.0
 47
0.0
 47
0.0
 47
0.0
 47
1.0
171
     0
 49
0.0208333333333333
 49
0.0
 49
0.0
 49
0.0
 49
0.0
 49
0.0208333333333333
 49
0.0
 49
0.0
 49
0.0
 49
0.0
 49
1.0
 49
0.0
 49
0.0
 49
0.0
 49
0.0
 49
1.0
175
     0
142
0.0208333333333333
142
0.0
142
0.0
142
0.0
142
0.0
142
0.0208333333333333
142
0.0
142
0.0
142
0.0
142
0.0
142
1.0
142
0.0
142
0.0
142
0.0
142
0.0
142
1.0
179
     0
144
0.0208333333333333
144
0.0
144
0.0
144
0.0
144
0.0
144
0.0208333333333333
144
0.0
144
0.0
144
0.0
144
0.0
144
1.0
144
0.0
144
0.0
144
0.0
144
0.0
144
1.0
147
0.0208333333333333
147
0.0
147
0.0
147
0.0
147
0.0
147
0.0208333333333333
147
0.0
147
0.0
147
0.0
147
0.0
147
1.0
147
0.0
147
0.0
147
0.0
147
0.0
147
1.0
  0
MLEADERSTYLE
  5
67
102
{ACAD_REACTORS
330
66
102
}
330
66
100
AcDbMLeaderStyle
179
     2
170
     2
171
     1
172
     0
 90
        2
 40
0.0
 41
0.0
173
     1
 91
-1056964608
340
5B
 92
       -2
290
     1
 42
0.09
291
     1
 43
0.36
  3
Standard
 44
0.18
300

342
55
174
     1
178
     6
175
     1
176
     0
 93
-1056964608
 45
0.18
292
     0
297
     0
 46
0.18
 94
-1056964608
 47
1.0
 49
1.0
140
1.0
293
     1
141
0.0
294
     1
177
     0
142
1.0
295
     1
296
     0
143
0.125
271
     0
272
     9
273
     9
298
     1
  0
MLINESTYLE
  5
60
102
{ACAD_REACTORS
330
5F
102
}
330
5F
100
AcDbMlineStyle
  2
STANDARD
 70
     0
  3

 62
   256
 51
90.0
 52
90.0
 71
     2
 49
0.5
 62
   256
  6
BYLAYER
 49
-0.5
 62
   256
  6
BYLAYER
  0
ACDBPLACEHOLDER
  5
F
102
{ACAD_REACTORS
330
E
102
}
330
E
  0
SCALE
  5
43
102
{ACAD_REACTORS
330
42
102
}
330
42
100
AcDbScale
 70
     0
300
1:1
140
1.0
141
1.0
290
     1
  0
SCALE
  5
44
102
{ACAD_REACTORS
330
42
102
}
330
42
100
AcDbScale
 70
     0
300
1/128" = 1'-0"
140
0.0078125
141
12.0
290
     0
  0
SCALE
  5
45
102
{ACAD_REACTORS
330
42
102
}
330
42
100
AcDbScale
 70
     0
300
1/64" = 1'-0"
140
0.015625
141
12.0
290
     0
  0
SCALE
  5
46
102
{ACAD_REACTORS
330
42
102
}
330
42
100
AcDbScale
 70
     0
300
1/32" = 1'-0"
140
0.03125
141
12.0
290
     0
  0
SCALE
  5
47
102
{ACAD_REACTORS
330
42
102
}
330
42
100
AcDbScale
 70
     0
300
1/16" = 1'-0"
140
0.0625
141
12.0
290
     0
  0
SCALE
  5
48
102
{ACAD_REACTORS
330
42
102
}
330
42
100
AcDbScale
 70
     0
300
3/32" = 1'-0"
140
0.09375
141
12.0
290
     0
  0
SCALE
  5
49
102
{ACAD_REACTORS
330
42
102
}
330
42
100
AcDbScale
 70
     0
300
1/8" = 1'-0"
140
0.125
141
12.0
290
     0
  0
SCALE
  5
4A
102
{ACAD_REACTORS
330
42
102
}
330
42
100
AcDbScale
 70
     0
300
3/16" = 1'-0"
140
0.1875
141
12.0
290
     0
  0
SCALE
  5
4B
102
{ACAD_REACTORS
330
42
102
}
330
42
100
AcDbScale
 70
     0
300
1/4" = 1'-0"
140
0.25
141
12.0
290
     0
  0
SCALE
  5
4C
102
{ACAD_REACTORS
330
42
102
}
330
42
100
AcDbScale
 70
     0
300
3/8" = 1'-0"
140
0.375
141
12.0
290
     0
  0
SCALE
  5
4D
102
{ACAD_REACTORS
330
42
102
}
330
42
100
AcDbScale
 70
     0
300
1/2" = 1'-0"
140
0.5
141
12.0
290
     0
  0
SCALE
  5
4E
102
{ACAD_REACTORS
330
42
102
}
330
42
100
AcDbScale
 70
     0
300
3/4" = 1'-0"
140
0.75
141
12.0
290
     0
  0
SCALE
  5
4F
102
{ACAD_REACTORS
330
42
102
}
330
42
100
AcDbScale
 70
     0
300
1" = 1'-0"
140
1.0
141
12.0
290
     0
  0
SCALE
  5
50
102
{ACAD_REACTORS
330
42
102
}
330
42
100
AcDbScale
 70
     0
300
1-1/2" = 1'-0"
140
1.5
141
12.0
290
     0
  0
SCALE
  5
51
102
{ACAD_REACTORS
330
42
102
}
330
42
100
AcDbScale
 70
     0
300
3" = 1'-0"
140
3.0
141
12.0
290
     0
  0
SCALE
  5
52
102
{ACAD_REACTORS
330
42
102
}
330
42
100
AcDbScale
 70
     0
300
6" = 1'-0"
140
6.0
141
12.0
290
     0
  0
SCALE
  5
53
102
{ACAD_REACTORS
330
42
102
}
330
42
100
AcDbScale
 70
     0
300
1'-0" = 1'-0"
140
12.0
141
12.0
290
     0
  0
ACDBSECTIONVIEWSTYLE
  5
69
102
{ACAD_REACTORS
330
68
102
}
330
68
100
AcDbModelDocViewStyle
 70
     0
  3
Imperial24
290
     1
300
Imperial24
 90
        0
100
AcDbSectionViewStyle
 70
     0
 71
     0
 90
       78
 71
     1
340
55
 62
   256
 40
0.24
340
0
340
0
 62
   256
 40
0.24
300
I, O, Q, S, X, Z
 40
0.48
 90
        3
 40
0.18
 90
        1
 71
     2
340
5D
 90
       25
 62
   256
340
5D
 90
       50
 62
   256
 40
0.24
 40
0.0
 40
0.24
 71
     3
340
55
 62
   256
 40
0.24
 90
        1
 40
0.75
 90
        1
300
%<\AcVar ViewType \f "%tc1">% %<\AcVar ViewSectionStartId>%-%<\AcVar ViewSectionEndId>%\PSCALE %<\AcVar ViewScale \f "%sn">%
 71
     4
 62
   256
 62
   257
300
ANSI31
 40
1.0
 90
        0
290
     0
290
     0
 90
        6
 40
0.0
 40
1.570796326794896
 40
0.2617993877991494
 40
1.308996938995747
 40
-0.2617993877991494
 40
1.832595714594046
  0
TABLESTYLE
  5
65
102
{ACAD_XDICTIONARY
360
173
102
}
102
{ACAD_REACTORS
330
64
102
}
330
64
100
AcDbTableStyle
280
     0
  3
Standard
 70
     0
 71
     0
 40
0.06
 41
0.06
280
     0
281
     0
  7
Standard
140
0.18
170
     2
 62
     0
 63
     7
283
     0
 90
      512
 91
        0
  1

274
    -2
284
     1
 64
     0
275
    -2
285
     1
 65
     0
276
    -2
286
     1
 66
     0
277
    -2
287
     1
 67
     0
278
    -2
288
     1
 68
     0
279
    -2
289
     1
 69
     0
  7
Standard
140
0.25
170
     5
 62
     0
 63
     7
283
     0
 90
      512
 91
        0
  1

274
    -2
284
     1
 64
     0
275
    -2
285
     1
 65
     0
276
    -2
286
     1
 66
     0
277
    -2
287
     1
 67
     0
278
    -2
288
     1
 68
     0
279
    -2
289
     1
 69
     0
  7
Standard
140
0.18
170
     5
 62
     0
 63
     7
283
     0
 90
      512
 91
        0
  1

274
    -2
284
     1
 64
     0
275
    -2
285
     1
 65
     0
276
    -2
286
     1
 66
     0
277
    -2
287
     1
 67
     0
278
    -2
288
     1
 68
     0
279
    -2
289
     1
 69
     0
  0
VISUALSTYLE
  5
2F
102
{ACAD_REACTORS
330
29
102
}
330
29
100
AcDbVisualStyle
  2
2dWireframe
 70
     4
177
     3
291
     0
 70
    58
 90
        0
176
     1
 90
        2
176
     1
 90
        0
176
     1
 90
        0
176
     1
 40
0.6
176
     1
 40
30.0
176
     1
 62
     7
420
 16777215
176
     1
 90
        1
176
     1
 90
        4
176
     1
 62
     7
176
     1
 62
   257
176
     1
 90
        1
176
     1
 90
        1
176
     1
 40
1.0
176
     1
 90
        0
176
     1
 62
   257
176
     1
 40
1.0
176
     1
 90
        1
176
     1
 90
        6
176
     1
 90
        2
176
     1
 62
     7
176
     1
 90
        5
176
     1
 90
        0
176
     1
 90
        0
176
     1
290
     0
176
     1
 90
        1
176
     1
 40
0.0
176
     1
 90
        0
176
     1
290
     1
176
     1
290
     1
176
     1
290
     0
176
     1
290
     0
176
     1
290
     0
176
     1
290
     0
176
     1
290
     0
176
     1
290
     0
176
     1
290
     0
176
     1
 90
       50
176
     1
 40
0.0
176
     1
 40
1.0
176
     1
 90
        0
176
     1
 62
    18
420
        0
176
     1
 90
       50
176
     1
 90
        3
176
     1
 62
     5
420
      255
176
     1
290
     0
176
     1
 90
       50
176
     1
 90
       50
176
     1
 90
       50
176
     1
290
     0
176
     1
 90
       50
176
     1
 62
   256
176
     0
 40
1.0
176
     0
 90
        2
176
     1
  1
strokes_ogs.tif
176
     1
290
     0
176
     1
 40
1.0
176
     1
 40
1.0
176
     1
  0
VISUALSTYLE
  5
2E
102
{ACAD_REACTORS
330
29
102
}
330
29
100
AcDbVisualStyle
  2
Basic
 70
     7
177
     3
291
     1
 70
    58
 90
        1
176
     1
 90
        0
176
     1
 90
        1
176
     1
 90
        0
176
     1
 40
0.6
176
     1
 40
30.0
176
     1
 62
     7
420
 16777215
176
     1
 90
        0
176
     1
 90
        4
176
     1
 62
     7
176
     1
 62
   257
176
     1
 90
        1
176
     1
 90
        1
176
     1
 40
1.0
176
     1
 90
        8
176
     1
 62
     7
176
     1
 40
1.0
176
     1
 90
        1
176
     1
 90
        6
176
     1
 90
        2
176
     1
 62
     7
176
     1
 90
        5
176
     1
 90
        0
176
     1
 90
        0
176
     1
290
     0
176
     1
 90
        1
176
     1
 40
0.0
176
     1
 90
        0
176
     1
290
     0
176
     1
290
     1
176
     1
290
     1
176
     1
290
     0
176
     1
290
     0
176
     1
290
     0
176
     1
290
     0
176
     1
290
     0
176
     1
290
     0
176
     1
 90
       50
176
     1
 40
0.0
176
     1
 40
1.0
176
     1
 90
        0
176
     1
 62
    18
420
        0
176
     1
 90
       50
176
     1
 90
        3
176
     1
 62
     5
420
      255
176
     1
290
     0
176
     1
 90
       50
176
     1
 90
       50
176
     1
 90
       50
176
     1
290
     0
176
     1
 90
       50
176
     1
 62
   256
176
     0
 40
1.0
176
     0
 90
        2
176
     1
  1
strokes_ogs.tif
176
     1
290
     0
176
     1
 40
1.0
176
     1
 40
1.0
176
     1
  0
VISUALSTYLE
  5
35
102
{ACAD_REACTORS
330
29
102
}
330
29
100
AcDbVisualStyle
  2
Brighten
 70
    12
177
     3
291
     1
 70
    58
 90
        2
176
     1
 90
        2
176
     1
 90
        0
176
     1
 90
        0
176
     1
 40
0.6
176
     1
 40
30.0
176
     1
 62
     7
420
 16777215
176
     1
 90
        1
176
     1
 90
        4
176
     1
 62
     7
176
     1
 62
   257
176
     1
 90
        1
176
     1
 90
        1
176
     1
 40
1.0
176
     1
 90
        8
176
     1
 62
     7
176
     1
 40
1.0
176
     1
 90
        1
176
     1
 90
        6
176
     1
 90
        2
176
     1
 62
     7
176
     1
 90
        5
176
     1
 90
        0
176
     1
 90
        0
176
     1
290
     0
176
     1
 90
        1
176
     1
 40
50.0
176
     1
 90
        0
176
     1
290
     0
176
     1
290
     1
176
     1
290
     1
176
     1
290
     0
176
     1
290
     0
176
     1
290
     0
176
     1
290
     0
176
     1
290
     0
176
     1
290
     0
176
     1
 90
       50
176
     1
 40
0.0
176
     1
 40
1.0
176
     1
 90
        0
176
     1
 62
    18
420
        0
176
     1
 90
       50
176
     1
 90
        3
176
     1
 62
     5
420
      255
176
     1
290
     0
176
     1
 90
       50
176
     1
 90
       50
176
     1
 90
       50
176
     1
290
     0
176
     1
 90
       50
176
     1
 62
   256
176
     0
 40
1.0
176
     0
 90
        2
176
     1
  1
strokes_ogs.tif
176
     1
290
     0
176
     1
 40
1.0
176
     1
 40
1.0
176
     1
  0
VISUALSTYLE
  5
39
102
{ACAD_REACTORS
330
29
102
}
330
29
100
AcDbVisualStyle
  2
ColorChange
 70
    16
177
     3
291
     1
 70
    58
 90
        2
176
     1
 90
        2
176
     1
 90
        3
176
     1
 90
        0
176
     1
 40
0.6
176
     1
 40
30.0
176
     1
 62
     8
420
  8421504
176
     1
 90
        1
176
     1
 90
        4
176
     1
 62
     7
176
     1
 62
   257
176
     1
 90
        1
176
     1
 90
        1
176
     1
 40
1.0
176
     1
 90
        8
176
     1
 62
     8
420
  8421504
176
     1
 40
1.0
176
     1
 90
        1
176
     1
 90
        6
176
     1
 90
        2
176
     1
 62
     7
176
     1
 90
        5
176
     1
 90
        0
176
     1
 90
        0
176
     1
290
     0
176
     1
 90
        1
176
     1
 40
0.0
176
     1
 90
        0
176
     1
290
     0
176
     1
290
     1
176
     1
290
     1
176
     1
290
     0
176
     1
290
     0
176
     1
290
     0
176
     1
290
     0
176
     1
290
     0
176
     1
290
     0
176
     1
 90
       50
176
     1
 40
0.0
176
     1
 40
1.0
176
     1
 90
        0
176
     1
 62
    18
420
        0
176
     1
 90
       50
176
     1
 90
        3
176
     1
 62
     5
420
      255
176
     1
290
     0
176
     1
 90
       50
176
     1
 90
       50
176
     1
 90
       50
176
     1
290
     0
176
     1
 90
       50
176
     1
 62
   256
176
     0
 40
1.0
176
     0
 90
        2
176
     1
  1
strokes_ogs.tif
176
     1
290
     0
176
     1
 40
1.0
176
     1
 40
1.0
176
     1
  0
VISUALSTYLE
  5
32
102
{ACAD_REACTORS
330
29
102
}
330
29
100
AcDbVisualStyle
  2
Conceptual
 70
     9
177
     3
291
     0
 70
    58
 90
        3
176
     1
 90
        2
176
     1
 90
        0
176
     1
 90
        0
176
     1
 40
0.6
176
     1
 40
30.0
176
     1
 62
     7
420
 16777215
176
     1
 90
        2
176
     1
 90
        2
176
     1
 62
     7
176
     1
 62
   257
176
     1
 90
        1
176
     1
 90
        1
176
     1
 40
179.0
176
     1
 90
        8
176
     1
 62
     7
176
     1
 40
1.0
176
     1
 90
        1
176
     1
 90
        6
176
     1
 90
        2
176
     1
 62
     7
176
     1
 90
        3
176
     1
 90
        0
176
     1
 90
        0
176
     1
290
     0
176
     1
 90
        1
176
     1
 40
0.0
176
     1
 90
        0
176
     1
290
     0
176
     1
290
     1
176
     1
290
     1
176
     1
290
     0
176
     1
290
     0
176
     1
290
     0
176
     1
290
     0
176
     1
290
     0
176
     1
290
     0
176
     1
 90
       50
176
     1
 40
0.0
176
     1
 40
1.0
176
     1
 90
        0
176
     1
 62
    18
420
        0
176
     1
 90
       50
176
     1
 90
        3
176
     1
 62
     5
420
      255
176
     1
290
     0
176
     1
 90
       50
176
     1
 90
       50
176
     1
 90
       50
176
     1
290
     0
176
     1
 90
       50
176
     1
 62
   256
176
     0
 40
1.0
176
     0
 90
        2
176
     1
  1
strokes_ogs.tif
176
     1
290
     0
176
     1
 40
1.0
176
     1
 40
1.0
176
     1
  0
VISUALSTYLE
  5
34
102
{ACAD_REACTORS
330
29
102
}
330
29
100
AcDbVisualStyle
  2
Dim
 70
    11
177
     3
291
     1
 70
    58
 90
        2
176
     1
 90
        2
176
     1
 90
        0
176
     1
 90
        0
176
     1
 40
0.6
176
     1
 40
30.0
176
     1
 62
     7
420
 16777215
176
     1
 90
        1
176
     1
 90
        4
176
     1
 62
     7
176
     1
 62
   257
176
     1
 90
        1
176
     1
 90
        1
176
     1
 40
1.0
176
     1
 90
        8
176
     1
 62
     7
176
     1
 40
1.0
176
     1
 90
        1
176
     1
 90
        6
176
     1
 90
        2
176
     1
 62
     7
176
     1
 90
        5
176
     1
 90
        0
176
     1
 90
        0
176
     1
290
     0
176
     1
 90
        1
176
     1
 40
-50.0
176
     1
 90
        0
176
     1
290
     0
176
     1
290
     1
176
     1
290
     1
176
     1
290
     0
176
     1
290
     0
176
     1
290
     0
176
     1
290
     0
176
     1
290
     0
176
     1
290
     0
176
     1
 90
       50
176
     1
 40
0.0
176
     1
 40
1.0
176
     1
 90
        0
176
     1
 62
    18
420
        0
176
     1
 90
       50
176
     1
 90
        3
176
     1
 62
     5
420
      255
176
     1
290
     0
176
     1
 90
       50
176
     1
 90
       50
176
     1
 90
       50
176
     1
290
     0
176
     1
 90
       50
176
     1
 62
   256
176
     0
 40
1.0
176
     0
 90
        2
176
     1
  1
strokes_ogs.tif
176
     1
290
     0
176
     1
 40
1.0
176
     1
 40
1.0
176
     1
  0
VISUALSTYLE
  5
41
102
{ACAD_REACTORS
330
29
102
}
330
29
100
AcDbVisualStyle
  2
EdgeColorOff
 70
    22
177
     3
291
     1
 70
    58
 90
        2
176
     0
 90
        2
176
     0
 90
        0
176
     0
 90
        0
176
     0
 40
0.6
176
     0
 40
30.0
176
     0
 62
     7
420
 16777215
176
     0
 90
        1
176
     0
 90
        4
176
     0
 62
     7
176
     0
 62
   257
176
     0
 90
        1
176
     0
 90
        1
176
     0
 40
1.0
176
     0
 90
        8
176
     2
 62
     7
176
     0
 40
1.0
176
     0
 90
        1
176
     0
 90
        6
176
     0
 90
        2
176
     0
 62
     7
176
     0
 90
        5
176
     0
 90
        0
176
     0
 90
        0
176
     0
290
     0
176
     0
 90
        1
176
     0
 40
0.0
176
     0
 90
        0
176
     0
290
     0
176
     0
290
     1
176
     0
290
     1
176
     0
290
     0
176
     0
290
     0
176
     0
290
     0
176
     0
290
     0
176
     0
290
     0
176
     0
290
     0
176
     0
 90
       50
176
     0
 40
0.0
176
     0
 40
1.0
176
     0
 90
        0
176
     0
 62
    18
420
        0
176
     0
 90
       50
176
     0
 90
        3
176
     0
 62
     5
420
      255
176
     0
290
     0
176
     0
 90
       50
176
     0
 90
       50
176
     0
 90
       50
176
     0
290
     0
176
     0
 90
       50
176
     0
 62
   256
176
     0
 40
1.0
176
     0
 90
        2
176
     0
  1
strokes_ogs.tif
176
     0
290
     0
176
     0
 40
1.0
176
     0
 40
1.0
176
     0
  0
VISUALSTYLE
  5
38
102
{ACAD_REACTORS
330
29
102
}
330
29
100
AcDbVisualStyle
  2
Facepattern
 70
    15
177
     3
291
     1
 70
    58
 90
        2
176
     1
 90
        2
176
     1
 90
        0
176
     1
 90
        0
176
     1
 40
0.6
176
     1
 40
30.0
176
     1
 62
     7
420
 16777215
176
     1
 90
        1
176
     1
 90
        4
176
     1
 62
     7
176
     1
 62
   257
176
     1
 90
        1
176
     1
 90
        1
176
     1
 40
1.0
176
     1
 90
        8
176
     1
 62
     7
176
     1
 40
1.0
176
     1
 90
        1
176
     1
 90
        6
176
     1
 90
        2
176
     1
 62
     7
176
     1
 90
        5
176
     1
 90
        0
176
     1
 90
        0
176
     1
290
     0
176
     1
 90
        1
176
     1
 40
0.0
176
     1
 90
        0
176
     1
290
     0
176
     1
290
     1
176
     1
290
     1
176
     1
290
     0
176
     1
290
     0
176
     1
290
     0
176
     1
290
     0
176
     1
290
     0
176
     1
290
     0
176
     1
 90
       50
176
     1
 40
0.0
176
     1
 40
1.0
176
     1
 90
        0
176
     1
 62
    18
420
        0
176
     1
 90
       50
176
     1
 90
        3
176
     1
 62
     5
420
      255
176
     1
290
     0
176
     1
 90
       50
176
     1
 90
       50
176
     1
 90
       50
176
     1
290
     0
176
     1
 90
       50
176
     1
 62
   256
176
     0
 40
1.0
176
     0
 90
        2
176
     1
  1
strokes_ogs.tif
176
     1
290
     0
176
     1
 40
1.0
176
     1
 40
1.0
176
     1
  0
VISUALSTYLE
  5
2A
102
{ACAD_REACTORS
330
29
102
}
330
29
100
AcDbVisualStyle
  2
Flat
 70
     0
177
     3
291
     1
 70
    58
 90
        2
176
     1
 90
        1
176
     1
 90
        1
176
     1
 90
        2
176
     1
 40
0.6
176
     1
 40
30.0
176
     1
 62
     7
420
 16777215
176
     1
 90
        0
176
     1
 90
        0
176
     1
 62
     7
176
     1
 62
   257
176
     1
 90
        1
176
     1
 90
        1
176
     1
 40
1.0
176
     1
 90
        8
176
     1
 62
     7
176
     1
 40
1.0
176
     1
 90
        1
176
     1
 90
        6
176
     1
 90
        2
176
     1
 62
     7
176
     1
 90
        5
176
     1
 90
        0
176
     1
 90
        0
176
     1
290
     0
176
     1
 90
       13
176
     1
 40
0.0
176
     1
 90
        0
176
     1
290
     0
176
     1
290
     1
176
     1
290
     1
176
     1
290
     0
176
     1
290
     0
176
     1
290
     0
176
     1
290
     0
176
     1
290
     0
176
     1
290
     0
176
     1
 90
       50
176
     1
 40
0.0
176
     1
 40
1.0
176
     1
 90
        0
176
     1
 62
    18
420
        0
176
     1
 90
       50
176
     1
 90
        3
176
     1
 62
     5
420
      255
176
     1
290
     0
176
     1
 90
       50
176
     1
 90
       50
176
     1
 90
       50
176
     1
290
     0
176
     1
 90
       50
176
     1
 62
   256
176
     0
 40
1.0
176
     0
 90
        2
176
     1
  1
strokes_ogs.tif
176
     1
290
     0
176
     1
 40
1.0
176
     1
 40
1.0
176
     1
  0
VISUALSTYLE
  5
2B
102
{ACAD_REACTORS
330
29
102
}
330
29
100
AcDbVisualStyle
  2
FlatWithEdges
 70
     1
177
     3
291
     1
 70
    58
 90
        2
176
     1
 90
        1
176
     1
 90
        1
176
     1
 90
        2
176
     1
 40
0.6
176
     1
 40
30.0
176
     1
 62
     7
420
 16777215
176
     1
 90
        1
176
     1
 90
        0
176
     1
 62
     7
176
     1
 62
   257
176
     1
 90
        1
176
     1
 90
        1
176
     1
 40
1.0
176
     1
 90
        0
176
     1
 62
   257
176
     1
 40
1.0
176
     1
 90
        1
176
     1
 90
        6
176
     1
 90
        2
176
     1
 62
     7
176
     1
 90
        5
176
     1
 90
        0
176
     1
 90
        0
176
     1
290
     0
176
     1
 90
       13
176
     1
 40
0.0
176
     1
 90
        0
176
     1
290
     0
176
     1
290
     1
176
     1
290
     1
176
     1
290
     0
176
     1
290
     0
176
     1
290
     0
176
     1
290
     0
176
     1
290
     0
176
     1
290
     0
176
     1
 90
       50
176
     1
 40
0.0
176
     1
 40
1.0
176
     1
 90
        0
176
     1
 62
    18
420
        0
176
     1
 90
       50
176
     1
 90
        3
176
     1
 62
     5
420
      255
176
     1
290
     0
176
     1
 90
       50
176
     1
 90
       50
176
     1
 90
       50
176
     1
290
     0
176
     1
 90
       50
176
     1
 62
   256
176
     0
 40
1.0
176
     0
 90
        2
176
     1
  1
strokes_ogs.tif
176
     1
290
     0
176
     1
 40
1.0
176
     1
 40
1.0
176
     1
  0
VISUALSTYLE
  5
2C
102
{ACAD_REACTORS
330
29
102
}
330
29
100
AcDbVisualStyle
  2
Gouraud
 70
     2
177
     3
291
     1
 70
    58
 90
        2
176
     1
 90
        2
176
     1
 90
        1
176
     1
 90
        2
176
     1
 40
0.6
176
     1
 40
30.0
176
     1
 62
     7
420
 16777215
176
     1
 90
        0
176
     1
 90
        0
176
     1
 62
     7
176
     1
 62
   257
176
     1
 90
        1
176
     1
 90
        1
176
     1
 40
1.0
176
     1
 90
        0
176
     1
 62
     7
176
     1
 40
1.0
176
     1
 90
        1
176
     1
 90
        6
176
     1
 90
        2
176
     1
 62
     7
176
     1
 90
        5
176
     1
 90
        0
176
     1
 90
        0
176
     1
290
     0
176
     1
 90
       13
176
     1
 40
0.0
176
     1
 90
        0
176
     1
290
     0
176
     1
290
     1
176
     1
290
     1
176
     1
290
     0
176
     1
290
     0
176
     1
290
     0
176
     1
290
     0
176
     1
290
     0
176
     1
290
     0
176
     1
 90
       50
176
     1
 40
0.0
176
     1
 40
1.0
176
     1
 90
        0
176
     1
 62
    18
420
        0
176
     1
 90
       50
176
     1
 90
        3
176
     1
 62
     5
420
      255
176
     1
290
     0
176
     1
 90
       50
176
     1
 90
       50
176
     1
 90
       50
176
     1
290
     0
176
     1
 90
       50
176
     1
 62
   256
176
     0
 40
1.0
176
     0
 90
        2
176
     1
  1
strokes_ogs.tif
176
     1
290
     0
176
     1
 40
1.0
176
     1
 40
1.0
176
     1
  0
VISUALSTYLE
  5
2D
102
{ACAD_REACTORS
330
29
102
}
330
29
100
AcDbVisualStyle
  2
GouraudWithEdges
 70
     3
177
     3
291
     1
 70
    58
 90
        2
176
     1
 90
        2
176
     1
 90
        1
176
     1
 90
        2
176
     1
 40
0.6
176
     1
 40
30.0
176
     1
 62
     7
420
 16777215
176
     1
 90
        1
176
     1
 90
        0
176
     1
 62
     7
176
     1
 62
   257
176
     1
 90
        1
176
     1
 90
        1
176
     1
 40
1.0
176
     1
 90
        0
176
     1
 62
   257
176
     1
 40
1.0
176
     1
 90
        1
176
     1
 90
        6
176
     1
 90
        2
176
     1
 62
     7
176
     1
 90
        5
176
     1
 90
        0
176
     1
 90
        0
176
     1
290
     0
176
     1
 90
       13
176
     1
 40
0.0
176
     1
 90
        0
176
     1
290
     0
176
     1
290
     1
176
     1
290
     1
176
     1
290
     0
176
     1
290
     0
176
     1
290
     0
176
     1
290
     0
176
     1
290
     0
176
     1
290
     0
176
     1
 90
       50
176
     1
 40
0.0
176
     1
 40
1.0
176
     1
 90
        0
176
     1
 62
    18
420
        0
176
     1
 90
       50
176
     1
 90
        3
176
     1
 62
     5
420
      255
176
     1
290
     0
176
     1
 90
       50
176
     1
 90
       50
176
     1
 90
       50
176
     1
290
     0
176
     1
 90
       50
176
     1
 62
   256
176
     0
 40
1.0
176
     0
 90
        2
176
     1
  1
strokes_ogs.tif
176
     1
290
     0
176
     1
 40
1.0
176
     1
 40
1.0
176
     1
  0
VISUALSTYLE
  5
31
102
{ACAD_REACTORS
330
29
102
}
330
29
100
AcDbVisualStyle
  2
Hidden
 70
     6
177
     3
291
     0
 70
    58
 90
        1
176
     1
 90
        2
176
     1
 90
        2
176
     1
 90
        0
176
     1
 40
0.6
176
     1
 40
30.0
176
     1
 62
     7
420
 16777215
176
     1
 90
        2
176
     1
 90
        2
176
     1
 62
     7
176
     1
 62
   257
176
     1
 90
        2
176
     1
 90
        1
176
     1
 40
40.0
176
     1
 90
        0
176
     1
 62
   257
176
     1
 40
1.0
176
     1
 90
        1
176
     1
 90
        6
176
     1
 90
        2
176
     1
 62
     7
176
     1
 90
        3
176
     1
 90
        0
176
     1
 90
        0
176
     1
290
     0
176
     1
 90
        1
176
     1
 40
0.0
176
     1
 90
        0
176
     1
290
     0
176
     1
290
     1
176
     1
290
     1
176
     1
290
     0
176
     1
290
     0
176
     1
290
     0
176
     1
290
     0
176
     1
290
     0
176
     1
290
     0
176
     1
 90
       50
176
     1
 40
0.0
176
     1
 40
1.0
176
     1
 90
        0
176
     1
 62
    18
420
        0
176
     1
 90
       50
176
     1
 90
        3
176
     1
 62
     5
420
      255
176
     1
290
     0
176
     1
 90
       50
176
     1
 90
       50
176
     1
 90
       50
176
     1
290
     0
176
     1
 90
       50
176
     1
 62
   256
176
     0
 40
1.0
176
     0
 90
        2
176
     1
  1
strokes_ogs.tif
176
     1
290
     0
176
     1
 40
1.0
176
     1
 40
1.0
176
     1
  0
VISUALSTYLE
  5
3F
102
{ACAD_REACTORS
330
29
102
}
330
29
100
AcDbVisualStyle
  2
JitterOff
 70
    20
177
     3
291
     1
 70
    58
 90
        2
176
     0
 90
        2
176
     0
 90
        0
176
     0
 90
        0
176
     0
 40
0.6
176
     0
 40
30.0
176
     0
 62
     7
420
 16777215
176
     0
 90
        1
176
     0
 90
        4
176
     0
 62
     7
176
     0
 62
   257
176
     0
 90
        1
176
     0
 90
        1
176
     0
 40
1.0
176
     0
 90
       10
176
     2
 62
     7
176
     0
 40
1.0
176
     0
 90
        1
176
     0
 90
        6
176
     0
 90
        2
176
     0
 62
     7
176
     0
 90
        5
176
     0
 90
        0
176
     0
 90
        0
176
     0
290
     0
176
     0
 90
        1
176
     0
 40
0.0
176
     0
 90
        0
176
     0
290
     0
176
     0
290
     1
176
     0
290
     1
176
     0
290
     0
176
     0
290
     0
176
     0
290
     0
176
     0
290
     0
176
     0
290
     0
176
     0
290
     0
176
     0
 90
       50
176
     0
 40
0.0
176
     0
 40
1.0
176
     0
 90
        0
176
     0
 62
    18
420
        0
176
     0
 90
       50
176
     0
 90
        3
176
     0
 62
     5
420
      255
176
     0
290
     0
176
     0
 90
       50
176
     0
 90
       50
176
     0
 90
       50
176
     0
290
     0
176
     0
 90
       50
176
     0
 62
   256
176
     0
 40
1.0
176
     0
 90
        2
176
     0
  1
strokes_ogs.tif
176
     0
290
     0
176
     0
 40
1.0
176
     0
 40
1.0
176
     0
  0
VISUALSTYLE
  5
37
102
{ACAD_REACTORS
330
29
102
}
330
29
100
AcDbVisualStyle
  2
Linepattern
 70
    14
177
     3
291
     1
 70
    58
 90
        2
176
     1
 90
        2
176
     1
 90
        0
176
     1
 90
        0
176
     1
 40
0.6
176
     1
 40
30.0
176
     1
 62
     7
420
 16777215
176
     1
 90
        1
176
     1
 90
        4
176
     1
 62
     7
176
     1
 62
   257
176
     1
 90
        7
176
     1
 90
        7
176
     1
 40
1.0
176
     1
 90
        8
176
     1
 62
     7
176
     1
 40
1.0
176
     1
 90
        1
176
     1
 90
        6
176
     1
 90
        2
176
     1
 62
     7
176
     1
 90
        5
176
     1
 90
        0
176
     1
 90
        0
176
     1
290
     0
176
     1
 90
        1
176
     1
 40
0.0
176
     1
 90
        0
176
     1
290
     0
176
     1
290
     1
176
     1
290
     1
176
     1
290
     0
176
     1
290
     0
176
     1
290
     0
176
     1
290
     0
176
     1
290
     0
176
     1
290
     0
176
     1
 90
       50
176
     1
 40
0.0
176
     1
 40
1.0
176
     1
 90
        0
176
     1
 62
    18
420
        0
176
     1
 90
       50
176
     1
 90
        3
176
     1
 62
     5
420
      255
176
     1
290
     0
176
     1
 90
       50
176
     1
 90
       50
176
     1
 90
       50
176
     1
290
     0
176
     1
 90
       50
176
     1
 62
   256
176
     0
 40
1.0
176
     0
 90
        2
176
     1
  1
strokes_ogs.tif
176
     1
290
     0
176
     1
 40
1.0
176
     1
 40
1.0
176
     1
  0
VISUALSTYLE
  5
40
102
{ACAD_REACTORS
330
29
102
}
330
29
100
AcDbVisualStyle
  2
OverhangOff
 70
    21
177
     3
291
     1
 70
    58
 90
        2
176
     0
 90
        2
176
     0
 90
        0
176
     0
 90
        0
176
     0
 40
0.6
176
     0
 40
30.0
176
     0
 62
     7
420
 16777215
176
     0
 90
        1
176
     0
 90
        4
176
     0
 62
     7
176
     0
 62
   257
176
     0
 90
        1
176
     0
 90
        1
176
     0
 40
1.0
176
     0
 90
        9
176
     2
 62
     7
176
     0
 40
1.0
176
     0
 90
        1
176
     0
 90
        6
176
     0
 90
        2
176
     0
 62
     7
176
     0
 90
        5
176
     0
 90
        0
176
     0
 90
        0
176
     0
290
     0
176
     0
 90
        1
176
     0
 40
0.0
176
     0
 90
        0
176
     0
290
     0
176
     0
290
     1
176
     0
290
     1
176
     0
290
     0
176
     0
290
     0
176
     0
290
     0
176
     0
290
     0
176
     0
290
     0
176
     0
290
     0
176
     0
 90
       50
176
     0
 40
0.0
176
     0
 40
1.0
176
     0
 90
        0
176
     0
 62
    18
420
        0
176
     0
 90
       50
176
     0
 90
        3
176
     0
 62
     5
420
      255
176
     0
290
     0
176
     0
 90
       50
176
     0
 90
       50
176
     0
 90
       50
176
     0
290
     0
176
     0
 90
       50
176
     0
 62
   256
176
     0
 40
1.0
176
     0
 90
        2
176
     0
  1
strokes_ogs.tif
176
     0
290
     0
176
     0
 40
1.0
176
     0
 40
1.0
176
     0
  0
VISUALSTYLE
  5
33
102
{ACAD_REACTORS
330
29
102
}
330
29
100
AcDbVisualStyle
  2
Realistic
 70
     8
177
     3
291
     0
 70
    58
 90
        2
176
     1
 90
        3
176
     1
 90
        0
176
     1
 90
        2
176
     1
 40
0.6
176
     1
 40
30.0
176
     1
 62
     7
420
 16777215
176
     1
 90
        0
176
     1
 90
        0
176
     1
 62
     7
176
     1
 62
   257
176
     1
 90
        1
176
     1
 90
        1
176
     1
 40
1.0
176
     1
 90
        8
176
     1
 62
   257
176
     1
 40
1.0
176
     1
 90
        1
176
     1
 90
        6
176
     1
 90
        2
176
     1
 62
     7
176
     1
 90
        3
176
     1
 90
        0
176
     1
 90
        0
176
     1
290
     0
176
     1
 90
       13
176
     1
 40
0.0
176
     1
 90
        0
176
     1
290
     0
176
     1
290
     1
176
     1
290
     1
176
     1
290
     0
176
     1
290
     0
176
     1
290
     0
176
     1
290
     0
176
     1
290
     0
176
     1
290
     0
176
     1
 90
       50
176
     1
 40
0.0
176
     1
 40
1.0
176
     1
 90
        0
176
     1
 62
    18
420
        0
176
     1
 90
       50
176
     1
 90
        3
176
     1
 62
     5
420
      255
176
     1
290
     0
176
     1
 90
       50
176
     1
 90
       50
176
     1
 90
       50
176
     1
290
     0
176
     1
 90
       50
176
     1
 62
   256
176
     0
 40
1.0
176
     0
 90
        2
176
     1
  1
strokes_ogs.tif
176
     1
290
     0
176
     1
 40
1.0
176
     1
 40
1.0
176
     1
  0
VISUALSTYLE
  5
3E
102
{ACAD_REACTORS
330
29
102
}
330
29
100
AcDbVisualStyle
  2
Shaded
 70
    27
177
     3
291
     0
 70
    58
 90
        2
176
     1
 90
        2
176
     1
 90
        1
176
     1
 90
        2
176
     1
 40
0.6
176
     1
 40
30.0
176
     1
 62
     7
420
 16777215
176
     1
 90
        0
176
     1
 90
        4
176
     1
 62
     7
176
     1
 62
   257
176
     1
 90
        1
176
     1
 90
        1
176
     1
 40
1.0
176
     1
 90
        8
176
     1
 62
   257
176
     1
 40
1.0
176
     1
 90
        1
176
     1
 90
        6
176
     1
 90
        2
176
     1
 62
     8
420
  7895160
176
     1
 90
        3
176
     1
 90
        0
176
     1
 90
        0
176
     1
290
     0
176
     1
 90
        5
176
     1
 40
0.0
176
     1
 90
        0
176
     1
290
     0
176
     1
290
     1
176
     1
290
     1
176
     1
290
     0
176
     1
290
     0
176
     1
290
     0
176
     1
290
     0
176
     1
290
     0
176
     1
290
     0
176
     1
 90
       50
176
     1
 40
0.0
176
     1
 40
1.0
176
     1
 90
        0
176
     1
 62
    18
420
        0
176
     1
 90
       50
176
     1
 90
        3
176
     1
 62
     5
420
      255
176
     1
290
     0
176
     1
 90
       50
176
     1
 90
       50
176
     1
 90
       50
176
     1
290
     0
176
     1
 90
       50
176
     1
 62
   256
176
     0
 40
1.0
176
     0
 90
        2
176
     1
  1
strokes_ogs.tif
176
     1
290
     0
176
     1
 40
1.0
176
     1
 40
1.0
176
     1
  0
VISUALSTYLE
  5
3D
102
{ACAD_REACTORS
330
29
102
}
330
29
100
AcDbVisualStyle
  2
Shaded with edges
 70
    26
177
     3
291
     0
 70
    58
 90
        2
176
     1
 90
        2
176
     1
 90
        1
176
     1
 90
        2
176
     1
 40
0.6
176
     1
 40
30.0
176
     1
 62
     7
420
 16777215
176
     1
 90
        1
176
     1
 90
        2
176
     1
 62
     7
176
     1
 62
   257
176
     1
 90
        2
176
     1
 90
        1
176
     1
 40
1.0
176
     1
 90
        8
176
     1
 62
   257
176
     1
 40
1.0
176
     1
 90
        1
176
     1
 90
        6
176
     1
 90
        2
176
     1
 62
     7
176
     1
 90
        3
176
     1
 90
        0
176
     1
 90
        0
176
     1
290
     0
176
     1
 90
        5
176
     1
 40
0.0
176
     1
 90
        0
176
     1
290
     0
176
     1
290
     1
176
     1
290
     1
176
     1
290
     0
176
     1
290
     0
176
     1
290
     0
176
     1
290
     0
176
     1
290
     0
176
     1
290
     0
176
     1
 90
       50
176
     1
 40
0.0
176
     1
 40
1.0
176
     1
 90
        0
176
     1
 62
    18
420
        0
176
     1
 90
       50
176
     1
 90
        3
176
     1
 62
     5
420
      255
176
     1
290
     0
176
     1
 90
       50
176
     1
 90
       50
176
     1
 90
       50
176
     1
290
     0
176
     1
 90
       50
176
     1
 62
   256
176
     0
 40
1.0
176
     0
 90
        2
176
     1
  1
strokes_ogs.tif
176
     1
290
     0
176
     1
 40
1.0
176
     1
 40
1.0
176
     1
  0
VISUALSTYLE
  5
3A
102
{ACAD_REACTORS
330
29
102
}
330
29
100
AcDbVisualStyle
  2
Shades of Gray
 70
    23
177
     3
291
     0
 70
    58
 90
        2
176
     1
 90
        2
176
     1
 90
        3
176
     1
 90
        0
176
     1
 40
0.6
176
     1
 40
30.0
176
     1
 62
     7
420
 16777215
176
     1
 90
        2
176
     1
 90
        2
176
     1
 62
     7
176
     1
 62
     7
176
     1
 90
        1
176
     1
 90
        1
176
     1
 40
40.0
176
     1
 90
        8
176
     1
 62
     7
176
     1
 40
1.0
176
     1
 90
        1
176
     1
 90
        6
176
     1
 90
        2
176
     1
 62
     7
176
     1
 90
        3
176
     1
 90
        0
176
     1
 90
        0
176
     1
290
     0
176
     1
 90
        1
176
     1
 40
0.0
176
     1
 90
        0
176
     1
290
     0
176
     1
290
     1
176
     1
290
     1
176
     1
290
     0
176
     1
290
     0
176
     1
290
     0
176
     1
290
     0
176
     1
290
     0
176
     1
290
     0
176
     1
 90
       50
176
     1
 40
0.0
176
     1
 40
1.0
176
     1
 90
        0
176
     1
 62
    18
420
        0
176
     1
 90
       50
176
     1
 90
        3
176
     1
 62
     5
420
      255
176
     1
290
     0
176
     1
 90
       50
176
     1
 90
       50
176
     1
 90
       50
176
     1
290
     0
176
     1
 90
       50
176
     1
 62
   256
176
     0
 40
1.0
176
     0
 90
        2
176
     1
  1
strokes_ogs.tif
176
     1
290
     0
176
     1
 40
1.0
176
     1
 40
1.0
176
     1
  0
VISUALSTYLE
  5
3B
102
{ACAD_REACTORS
330
29
102
}
330
29
100
AcDbVisualStyle
  2
Sketchy
 70
    24
177
     3
291
     0
 70
    58
 90
        1
176
     1
 90
        2
176
     1
 90
        2
176
     1
 90
        0
176
     1
 40
0.6
176
     1
 40
30.0
176
     1
 62
     7
420
 16777215
176
     1
 90
        2
176
     1
 90
        2
176
     1
 62
     7
176
     1
 62
     7
176
     1
 90
        1
176
     1
 90
        1
176
     1
 40
40.0
176
     1
 90
       11
176
     1
 62
     7
176
     1
 40
1.0
176
     1
 90
        1
176
     1
 90
        6
176
     1
 90
        2
176
     1
 62
     7
176
     1
 90
        6
176
     1
 90
        0
176
     1
 90
        0
176
     1
290
     0
176
     1
 90
        1
176
     1
 40
0.0
176
     1
 90
        0
176
     1
290
     0
176
     1
290
     1
176
     1
290
     1
176
     1
290
     0
176
     1
290
     0
176
     1
290
     0
176
     1
290
     0
176
     1
290
     0
176
     1
290
     0
176
     1
 90
       50
176
     1
 40
0.0
176
     1
 40
1.0
176
     1
 90
        0
176
     1
 62
    18
420
        0
176
     1
 90
       50
176
     1
 90
        3
176
     1
 62
     5
420
      255
176
     1
290
     0
176
     1
 90
       50
176
     1
 90
       50
176
     1
 90
       50
176
     1
290
     0
176
     1
 90
       50
176
     1
 62
   256
176
     0
 40
1.0
176
     0
 90
        2
176
     1
  1
strokes_ogs.tif
176
     1
290
     0
176
     1
 40
1.0
176
     1
 40
1.0
176
     1
  0
VISUALSTYLE
  5
36
102
{ACAD_REACTORS
330
29
102
}
330
29
100
AcDbVisualStyle
  2
Thicken
 70
    13
177
     3
291
     1
 70
    58
 90
        2
176
     1
 90
        2
176
     1
 90
        0
176
     1
 90
        0
176
     1
 40
0.6
176
     1
 40
30.0
176
     1
 62
     7
420
 16777215
176
     1
 90
        1
176
     1
 90
        4
176
     1
 62
     7
176
     1
 62
   257
176
     1
 90
        1
176
     1
 90
        1
176
     1
 40
1.0
176
     1
 90
       12
176
     1
 62
     7
176
     1
 40
1.0
176
     1
 90
        1
176
     1
 90
        6
176
     1
 90
        2
176
     1
 62
     7
176
     1
 90
        5
176
     1
 90
        0
176
     1
 90
        0
176
     1
290
     0
176
     1
 90
        1
176
     1
 40
0.0
176
     1
 90
        0
176
     1
290
     0
176
     1
290
     1
176
     1
290
     1
176
     1
290
     0
176
     1
290
     0
176
     1
290
     0
176
     1
290
     0
176
     1
290
     0
176
     1
290
     0
176
     1
 90
       50
176
     1
 40
0.0
176
     1
 40
1.0
176
     1
 90
        0
176
     1
 62
    18
420
        0
176
     1
 90
       50
176
     1
 90
        3
176
     1
 62
     5
420
      255
176
     1
290
     0
176
     1
 90
       50
176
     1
 90
       50
176
     1
 90
       50
176
     1
290
     0
176
     1
 90
       50
176
     1
 62
   256
176
     0
 40
1.0
176
     0
 90
        2
176
     1
  1
strokes_ogs.tif
176
     1
290
     0
176
     1
 40
1.0
176
     1
 40
1.0
176
     1
  0
VISUALSTYLE
  5
30
102
{ACAD_REACTORS
330
29
102
}
330
29
100
AcDbVisualStyle
  2
Wireframe
 70
     5
177
     3
291
     0
 70
    58
 90
        0
176
     1
 90
        2
176
     1
 90
        0
176
     1
 90
        0
176
     1
 40
0.6
176
     1
 40
30.0
176
     1
 62
     7
420
 16777215
176
     1
 90
        1
176
     1
 90
        4
176
     1
 62
     7
176
     1
 62
   257
176
     1
 90
        1
176
     1
 90
        1
176
     1
 40
1.0
176
     1
 90
        0
176
     1
 62
   257
176
     1
 40
1.0
176
     1
 90
        1
176
     1
 90
        6
176
     1
 90
        2
176
     1
 62
     7
176
     1
 90
        3
176
     1
 90
        0
176
     1
 90
        0
176
     1
290
     0
176
     1
 90
        1
176
     1
 40
0.0
176
     1
 90
        0
176
     1
290
     0
176
     1
290
     1
176
     1
290
     1
176
     1
290
     0
176
     1
290
     0
176
     1
290
     0
176
     1
290
     0
176
     1
290
     0
176
     1
290
     0
176
     1
 90
       50
176
     1
 40
0.0
176
     1
 40
1.0
176
     1
 90
        0
176
     1
 62
    18
420
        0
176
     1
 90
       50
176
     1
 90
        3
176
     1
 62
     5
420
      255
176
     1
290
     0
176
     1
 90
       50
176
     1
 90
       50
176
     1
 90
       50
176
     1
290
     0
176
     1
 90
       50
176
     1
 62
   256
176
     0
 40
1.0
176
     0
 90
        2
176
     1
  1
strokes_ogs.tif
176
     1
290
     0
176
     1
 40
1.0
176
     1
 40
1.0
176
     1
  0
VISUALSTYLE
  5
3C
102
{ACAD_REACTORS
330
29
102
}
330
29
100
AcDbVisualStyle
  2
X-Ray
 70
    25
177
     3
291
     0
 70
    58
 90
        2
176
     1
 90
        2
176
     1
 90
        1
176
     1
 90
        1
176
     1
 40
0.5
176
     1
 40
30.0
176
     1
 62
     7
420
 16777215
176
     1
 90
        1
176
     1
 90
        0
176
     1
 62
     7
176
     1
 62
   257
176
     1
 90
        1
176
     1
 90
        1
176
     1
 40
1.0
176
     1
 90
        8
176
     1
 62
     7
176
     1
 40
1.0
176
     1
 90
        1
176
     1
 90
        6
176
     1
 90
        2
176
     1
 62
     7
176
     1
 90
        3
176
     1
 90
        0
176
     1
 90
        0
176
     1
290
     0
176
     1
 90
       13
176
     1
 40
0.0
176
     1
 90
        0
176
     1
290
     0
176
     1
290
     1
176
     1
290
     1
176
     1
290
     0
176
     1
290
     0
176
     1
290
     0
176
     1
290
     0
176
     1
290
     0
176
     1
290
     0
176
     1
 90
       50
176
     1
 40
0.0
176
     1
 40
1.0
176
     1
 90
        0
176
     1
 62
    18
420
        0
176
     1
 90
       50
176
     1
 90
        3
176
     1
 62
     5
420
      255
176
     1
290
     0
176
     1
 90
       50
176
     1
 90
       50
176
     1
 90
       50
176
     1
290
     0
176
     1
 90
       50
176
     1
 62
   256
176
     0
 40
1.0
176
     0
 90
        2
176
     1
  1
strokes_ogs.tif
176
     1
290
     0
176
     1
 40
1.0
176
     1
 40
1.0
176
     1
  0
DICTIONARYVAR
  5
172
102
{ACAD_REACTORS
330
16D
102
}
330
16D
100
DictionaryVariables
280
     0
  1
1:1
  0
DICTIONARYVAR
  5
16F
102
{ACAD_REACTORS
330
16D
102
}
330
16D
100
DictionaryVariables
280
     0
  1
STANDARD
  0
DICTIONARYVAR
  5
16E
102
{ACAD_REACTORS
330
16D
102
}
330
16D
100
DictionaryVariables
280
     0
  1
STANDARD
  0
DICTIONARYVAR
  5
170
102
{ACAD_REACTORS
330
16D
102
}
330
16D
100
DictionaryVariables
280
     0
  1
Imperial24
  0
DICTIONARYVAR
  5
171
102
{ACAD_REACTORS
330
16D
102
}
330
16D
100
DictionaryVariables
280
     0
  1
Imperial24
  0
DICTIONARY
  5
1A
330
19
100
AcDbDictionary
280
     1
281
     1
  3
BUMPTILE
360
1C
  3
DIFFUSETILE
360
1B
  3
OPACITYTILE
360
1F
  3
REFLECTIONTILE
360
1E
  3
REFRACTIONTILE
360
20
  3
SPECULARTILE
360
1D
  0
DICTIONARY
  5
12
330
11
100
AcDbDictionary
280
     1
281
     1
  3
BUMPTILE
360
14
  3
DIFFUSETILE
360
13
  3
OPACITYTILE
360
17
  3
REFLECTIONTILE
360
16
  3
REFRACTIONTILE
360
18
  3
SPECULARTILE
360
15
  0
DICTIONARY
  5
22
330
21
100
AcDbDictionary
280
     1
281
     1
  3
BUMPTILE
360
24
  3
DIFFUSETILE
360
23
  3
OPACITYTILE
360
27
  3
REFLECTIONTILE
360
26
  3
REFRACTIONTILE
360
28
  3
SPECULARTILE
360
25
  0
DICTIONARY
  5
173
330
65
100
AcDbDictionary
280
     1
281
     1
  3
ACAD_ROUNDTRIP_2008_TABLESTYLE_CELLSTYLEMAP
360
174
  0
XRECORD
  5
1C
102
{ACAD_REACTORS
330
1A
102
}
330
1A
100
AcDbXrecord
280
     1
270
     1
271
     1
  0
XRECORD
  5
1B
102
{ACAD_REACTORS
330
1A
102
}
330
1A
100
AcDbXrecord
280
     1
270
     1
271
     1
  0
XRECORD
  5
1F
102
{ACAD_REACTORS
330
1A
102
}
330
1A
100
AcDbXrecord
280
     1
270
     1
271
     1
  0
XRECORD
  5
1E
102
{ACAD_REACTORS
330
1A
102
}
330
1A
100
AcDbXrecord
280
     1
270
     1
271
     1
  0
XRECORD
  5
20
102
{ACAD_REACTORS
330
1A
102
}
330
1A
100
AcDbXrecord
280
     1
270
     1
271
     1
  0
XRECORD
  5
1D
102
{ACAD_REACTORS
330
1A
102
}
330
1A
100
AcDbXrecord
280
     1
270
     1
271
     1
  0
XRECORD
  5
14
102
{ACAD_REACTORS
330
12
102
}
330
12
100
AcDbXrecord
280
     1
270
     1
271
     1
  0
XRECORD
  5
13
102
{ACAD_REACTORS
330
12
102
}
330
12
100
AcDbXrecord
280
     1
270
     1
271
     1
  0
XRECORD
  5
17
102
{ACAD_REACTORS
330
12
102
}
330
12
100
AcDbXrecord
280
     1
270
     1
271
     1
  0
XRECORD
  5
16
102
{ACAD_REACTORS
330
12
102
}
330
12
100
AcDbXrecord
280
     1
270
     1
271
     1
  0
XRECORD
  5
18
102
{ACAD_REACTORS
330
12
102
}
330
12
100
AcDbXrecord
280
     1
270
     1
271
     1
  0
XRECORD
  5
15
102
{ACAD_REACTORS
330
12
102
}
330
12
100
AcDbXrecord
280
     1
270
     1
271
     1
  0
XRECORD
  5
24
102
{ACAD_REACTORS
330
22
102
}
330
22
100
AcDbXrecord
280
     1
270
     1
271
     1
  0
XRECORD
  5
23
102
{ACAD_REACTORS
330
22
102
}
330
22
100
AcDbXrecord
280
     1
270
     1
271
     1
  0
XRECORD
  5
27
102
{ACAD_REACTORS
330
22
102
}
330
22
100
AcDbXrecord
280
     1
270
     1
271
     1
  0
XRECORD
  5
26
102
{ACAD_REACTORS
330
22
102
}
330
22
100
AcDbXrecord
280
     1
270
     1
271
     1
  0
XRECORD
  5
28
102
{ACAD_REACTORS
330
22
102
}
330
22
100
AcDbXrecord
280
     1
270
     1
271
     1
  0
XRECORD
  5
25
102
{ACAD_REACTORS
330
22
102
}
330
22
100
AcDbXrecord
280
     1
270
     1
271
     1
  0
CELLSTYLEMAP
  5
174
102
{ACAD_REACTORS
330
173
102
}
330
173
100
AcDbCellStyleMap
 90
        3
300
CELLSTYLE
  1
TABLEFORMAT_BEGIN
 90
        5
170
     1
 91
        0
 92
    32768
 62
   257
 93
        1
300
CONTENTFORMAT
  1
CONTENTFORMAT_BEGIN
 90
        0
 91
        0
 92
      512
 93
        0
300

 40
0.0
140
1.0
 94
        5
 62
     0
340
55
144
0.25
309
CONTENTFORMAT_END
171
     0
 94
        0
309
TABLEFORMAT_END
  1
CELLSTYLE_BEGIN
 90
        1
 91
        1
300
_TITLE
309
CELLSTYLE_END
300
CELLSTYLE
  1
TABLEFORMAT_BEGIN
 90
        5
170
     1
 91
        0
 92
        0
 62
   257
 93
        1
300
CONTENTFORMAT
  1
CONTENTFORMAT_BEGIN
 90
        0
 91
        0
 92
      512
 93
        0
300

 40
0.0
140
1.0
 94
        5
 62
     0
340
55
144
0.18
309
CONTENTFORMAT_END
171
     0
 94
        0
309
TABLEFORMAT_END
  1
CELLSTYLE_BEGIN
 90
        2
 91
        1
300
_HEADER
309
CELLSTYLE_END
300
CELLSTYLE
  1
TABLEFORMAT_BEGIN
 90
        5
170
     1
 91
        0
 92
        0
 62
   257
 93
        1
300
CONTENTFORMAT
  1
CONTENTFORMAT_BEGIN
 90
        0
 91
        0
 92
      512
 93
        0
300

 40
0.0
140
1.0
 94
        2
 62
     0
340
55
144
0.18
309
CONTENTFORMAT_END
171
     0
 94
        0
309
TABLEFORMAT_END
  1
CELLSTYLE_BEGIN
 90
        3
 91
        2
300
_DATA
309
CELLSTYLE_END
  0
ENDSEC
  0
EOF
